<?xml version="1.0" encoding="UTF-8" standalone="no"?>
<!DOCTYPE svg PUBLIC "-//W3C//DTD SVG 1.1//EN"
 "http://www.w3.org/Graphics/SVG/1.1/DTD/svg11.dtd">
<!-- Generated by graphviz version 2.44.0 (20200408.0750)
 -->
<!-- Title: g Pages: 1 -->
<svg width="221pt" height="176pt"
 viewBox="0.00 0.00 221.00 176.00" xmlns="http://www.w3.org/2000/svg" xmlns:xlink="http://www.w3.org/1999/xlink">
<g id="graph0" class="graph" transform="scale(1 1) rotate(0) translate(4 172)">
<title>g</title>
<polygon fill="white" stroke="transparent" points="-4,4 -4,-172 217,-172 217,4 -4,4"/>
<!-- c -->
<g id="node1" class="node">
<title>c</title>
<text text-anchor="middle" x="159" y="-54.8" font-family="Times,serif" font-size="14.00">C</text>
</g>
<!-- bi -->
<g id="node2" class="node">
<title>bi</title>
<text text-anchor="start" x="79" y="-106.8" font-family="Times,serif" font-size="14.00">B</text>
<text text-anchor="start" x="89" y="-106.8" font-family="Times,serif" font-style="italic" baseline-shift="sub" font-size="14.00">i</text>
</g>
<!-- c&#45;&gt;bi -->
<g id="edge5" class="edge">
<title>c&#45;&gt;bi</title>
<path fill="none" stroke="black" d="M153.75,-63.02C140.93,-71.63 108.03,-93.71 93.31,-103.59"/>
</g>
<!-- ai1 -->
<g id="node3" class="node">
<title>ai1</title>
<text text-anchor="start" x="14" y="-157.8" font-family="Times,serif" font-size="14.00">A</text>
<text text-anchor="start" x="24" y="-157.8" font-family="Times,serif" font-style="italic" baseline-shift="sub" font-size="14.00">i</text>
<text text-anchor="start" x="28" y="-157.8" font-family="Times,serif" baseline-shift="sub" font-size="14.00">,1</text>
</g>
<!-- bi&#45;&gt;ai1 -->
<g id="edge6" class="edge">
<title>bi&#45;&gt;ai1</title>
<path fill="none" stroke="black" d="M78.64,-116.51C67.38,-125.71 45.93,-143.23 34.19,-152.82"/>
</g>
<!-- ai2 -->
<g id="node4" class="node">
<title>ai2</title>
<text text-anchor="start" x="56" y="-157.8" font-family="Times,serif" font-size="14.00">A</text>
<text text-anchor="start" x="66" y="-157.8" font-family="Times,serif" font-style="italic" baseline-shift="sub" font-size="14.00">i</text>
<text text-anchor="start" x="70" y="-157.8" font-family="Times,serif" baseline-shift="sub" font-size="14.00">,2</text>
</g>
<!-- bi&#45;&gt;ai2 -->
<g id="edge7" class="edge">
<title>bi&#45;&gt;ai2</title>
<path fill="none" stroke="black" d="M83.5,-117.31C80.06,-126.67 73.91,-143.41 70.48,-152.74"/>
</g>
<!-- aidots -->
<g id="node5" class="node">
<title>aidots</title>
<text text-anchor="middle" x="104" y="-156.8" font-family="Times,serif" font-size="14.00">...</text>
</g>
<!-- bi&#45;&gt;aidots -->
<g id="edge8" class="edge">
<title>bi&#45;&gt;aidots</title>
<path fill="none" stroke="black" d="M88.5,-117.31C91.94,-126.67 98.09,-143.41 101.52,-152.74"/>
</g>
<!-- aij -->
<g id="node6" class="node">
<title>aij</title>
<text text-anchor="start" x="128" y="-157.8" font-family="Times,serif" font-size="14.00">A</text>
<text text-anchor="start" x="138" y="-157.8" font-family="Times,serif" font-style="italic" baseline-shift="sub" font-size="14.00">i</text>
<text text-anchor="start" x="142" y="-157.8" font-family="Times,serif" baseline-shift="sub" font-size="14.00">,</text>
<text text-anchor="start" x="146" y="-157.8" font-family="Times,serif" font-style="italic" baseline-shift="sub" font-size="14.00">j</text>
</g>
<!-- bi&#45;&gt;aij -->
<g id="edge9" class="edge">
<title>bi&#45;&gt;aij</title>
<path fill="none" stroke="black" d="M93.37,-117.31C103.5,-126.67 121.6,-143.41 131.69,-152.74"/>
</g>
<!-- d1 -->
<g id="node7" class="node">
<title>d1</title>
<text text-anchor="start" x="98.5" y="-4.8" font-family="Times,serif" font-size="14.00">D</text>
<text text-anchor="start" x="108.5" y="-4.8" font-family="Times,serif" baseline-shift="sub" font-size="14.00">1</text>
</g>
<!-- d1&#45;&gt;c -->
<g id="edge1" class="edge">
<title>d1&#45;&gt;c</title>
<path fill="none" stroke="black" d="M114.23,-15.31C124.83,-25.31 144.36,-43.7 153.72,-52.53"/>
</g>
<!-- d2 -->
<g id="node8" class="node">
<title>d2</title>
<text text-anchor="start" x="133.5" y="-4.8" font-family="Times,serif" font-size="14.00">D</text>
<text text-anchor="start" x="143.5" y="-4.8" font-family="Times,serif" baseline-shift="sub" font-size="14.00">2</text>
</g>
<!-- d2&#45;&gt;c -->
<g id="edge2" class="edge">
<title>d2&#45;&gt;c</title>
<path fill="none" stroke="black" d="M144.36,-15.31C147.61,-24.67 153.42,-41.41 156.66,-50.74"/>
</g>
<!-- ddots -->
<g id="node9" class="node">
<title>ddots</title>
<text text-anchor="middle" x="175" y="-3.8" font-family="Times,serif" font-size="14.00">...</text>
</g>
<!-- ddots&#45;&gt;c -->
<g id="edge3" class="edge">
<title>ddots&#45;&gt;c</title>
<path fill="none" stroke="black" d="M172.78,-15.31C169.72,-24.67 164.25,-41.41 161.21,-50.74"/>
</g>
<!-- dl -->
<g id="node10" class="node">
<title>dl</title>
<text text-anchor="start" x="199" y="-4.8" font-family="Times,serif" font-size="14.00">D</text>
<text text-anchor="start" x="209" y="-4.8" font-family="Times,serif" font-style="italic" baseline-shift="sub" font-size="14.00">l</text>
</g>
<!-- dl&#45;&gt;c -->
<g id="edge4" class="edge">
<title>dl&#45;&gt;c</title>
<path fill="none" stroke="black" d="M199.46,-15.31C189.98,-25.2 172.6,-43.32 164.04,-52.24"/>
</g>
<!-- ei1 -->
<g id="node11" class="node">
<title>ei1</title>
<text text-anchor="start" x="0" y="-55.8" font-family="Times,serif" font-size="14.00">E</text>
<text text-anchor="start" x="9" y="-55.8" font-family="Times,serif" baseline-shift="sub" font-size="14.00">i,1</text>
</g>
<!-- ei1&#45;&gt;bi -->
<g id="edge10" class="edge">
<title>ei1&#45;&gt;bi</title>
<path fill="none" stroke="black" d="M21.11,-66.11C36.47,-76.14 65.29,-94.97 78.74,-103.76"/>
</g>
<!-- ei2 -->
<g id="node12" class="node">
<title>ei2</title>
<text text-anchor="start" x="40" y="-55.8" font-family="Times,serif" font-size="14.00">E</text>
<text text-anchor="start" x="49" y="-55.8" font-family="Times,serif" baseline-shift="sub" font-size="14.00">i,2</text>
</g>
<!-- ei2&#45;&gt;bi -->
<g id="edge11" class="edge">
<title>ei2&#45;&gt;bi</title>
<path fill="none" stroke="black" d="M55.87,-66.31C62.55,-75.67 74.51,-92.41 81.17,-101.74"/>
</g>
<!-- eidots -->
<g id="node13" class="node">
<title>eidots</title>
<text text-anchor="middle" x="86" y="-54.8" font-family="Times,serif" font-size="14.00">...</text>
</g>
<!-- eidots&#45;&gt;bi -->
<g id="edge12" class="edge">
<title>eidots&#45;&gt;bi</title>
<path fill="none" stroke="black" d="M86,-66.31C86,-75.67 86,-92.41 86,-101.74"/>
</g>
<!-- eim -->
<g id="node14" class="node">
<title>eim</title>
<text text-anchor="start" x="110.5" y="-55.8" font-family="Times,serif" font-size="14.00">E</text>
<text text-anchor="start" x="119.5" y="-55.8" font-family="Times,serif" baseline-shift="sub" font-size="14.00">i,</text>
<text text-anchor="start" x="126.5" y="-55.8" font-family="Times,serif" font-style="italic" baseline-shift="sub" font-size="14.00">m</text>
</g>
<!-- eim&#45;&gt;bi -->
<g id="edge13" class="edge">
<title>eim&#45;&gt;bi</title>
<path fill="none" stroke="black" d="M117.86,-66.31C110.79,-75.67 98.15,-92.41 91.1,-101.74"/>
</g>
</g>
</svg>
