<?xml version="1.0" encoding="UTF-8" standalone="no"?>
<!DOCTYPE svg PUBLIC "-//W3C//DTD SVG 1.1//EN"
 "http://www.w3.org/Graphics/SVG/1.1/DTD/svg11.dtd">
<!-- Generated by graphviz version 2.44.0 (20200408.0750)
 -->
<!-- Title: g Pages: 1 -->
<svg width="125pt" height="125pt"
 viewBox="0.00 0.00 124.50 125.00" xmlns="http://www.w3.org/2000/svg" xmlns:xlink="http://www.w3.org/1999/xlink">
<g id="graph0" class="graph" transform="scale(1 1) rotate(0) translate(4 121)">
<title>g</title>
<polygon fill="white" stroke="transparent" points="-4,4 -4,-121 120.5,-121 120.5,4 -4,4"/>
<!-- c -->
<g id="node1" class="node">
<title>c</title>
<text text-anchor="middle" x="59.5" y="-54.8" font-family="Times,serif" font-size="14.00">C</text>
</g>
<!-- b1 -->
<g id="node2" class="node">
<title>b1</title>
<text text-anchor="start" x="0" y="-106.8" font-family="Times,serif" font-size="14.00">B</text>
<text text-anchor="start" x="10" y="-106.8" font-family="Times,serif" baseline-shift="sub" font-size="14.00">1</text>
</g>
<!-- c&#45;&gt;b1 -->
<g id="edge5" class="edge">
<title>c&#45;&gt;b1</title>
<path fill="none" stroke="black" d="M54.42,-64.38C45.25,-73.19 25.91,-91.77 15.49,-101.78"/>
</g>
<!-- b2 -->
<g id="node3" class="node">
<title>b2</title>
<text text-anchor="start" x="35" y="-106.8" font-family="Times,serif" font-size="14.00">B</text>
<text text-anchor="start" x="45" y="-106.8" font-family="Times,serif" baseline-shift="sub" font-size="14.00">2</text>
</g>
<!-- c&#45;&gt;b2 -->
<g id="edge6" class="edge">
<title>c&#45;&gt;b2</title>
<path fill="none" stroke="black" d="M57.28,-66.31C54.22,-75.67 48.75,-92.41 45.71,-101.74"/>
</g>
<!-- bdots -->
<g id="node4" class="node">
<title>bdots</title>
<text text-anchor="middle" x="76.5" y="-105.8" font-family="Times,serif" font-size="14.00">...</text>
</g>
<!-- c&#45;&gt;bdots -->
<g id="edge7" class="edge">
<title>c&#45;&gt;bdots</title>
<path fill="none" stroke="black" d="M61.86,-66.31C65.11,-75.67 70.92,-92.41 74.16,-101.74"/>
</g>
<!-- bn -->
<g id="node5" class="node">
<title>bn</title>
<text text-anchor="start" x="100.5" y="-106.8" font-family="Times,serif" font-size="14.00">B</text>
<text text-anchor="start" x="110.5" y="-106.8" font-family="Times,serif" font-style="italic" baseline-shift="sub" font-size="14.00">k</text>
</g>
<!-- c&#45;&gt;bn -->
<g id="edge8" class="edge">
<title>c&#45;&gt;bn</title>
<path fill="none" stroke="black" d="M64.74,-64.74C73.73,-73.73 92.06,-92.06 101.9,-101.9"/>
</g>
<!-- d1 -->
<g id="node6" class="node">
<title>d1</title>
<text text-anchor="start" x="0" y="-4.8" font-family="Times,serif" font-size="14.00">D</text>
<text text-anchor="start" x="10" y="-4.8" font-family="Times,serif" baseline-shift="sub" font-size="14.00">1</text>
</g>
<!-- d1&#45;&gt;c -->
<g id="edge1" class="edge">
<title>d1&#45;&gt;c</title>
<path fill="none" stroke="black" d="M15.59,-15.31C25.99,-25.31 45.14,-43.7 54.32,-52.53"/>
</g>
<!-- d2 -->
<g id="node7" class="node">
<title>d2</title>
<text text-anchor="start" x="35" y="-4.8" font-family="Times,serif" font-size="14.00">D</text>
<text text-anchor="start" x="45" y="-4.8" font-family="Times,serif" baseline-shift="sub" font-size="14.00">2</text>
</g>
<!-- d2&#45;&gt;c -->
<g id="edge2" class="edge">
<title>d2&#45;&gt;c</title>
<path fill="none" stroke="black" d="M45.72,-15.31C48.78,-24.67 54.25,-41.41 57.29,-50.74"/>
</g>
<!-- ddots -->
<g id="node8" class="node">
<title>ddots</title>
<text text-anchor="middle" x="76.5" y="-3.8" font-family="Times,serif" font-size="14.00">...</text>
</g>
<!-- ddots&#45;&gt;c -->
<g id="edge3" class="edge">
<title>ddots&#45;&gt;c</title>
<path fill="none" stroke="black" d="M74.14,-15.31C70.89,-24.67 65.08,-41.41 61.84,-50.74"/>
</g>
<!-- dl -->
<g id="node9" class="node">
<title>dl</title>
<text text-anchor="start" x="100.5" y="-4.8" font-family="Times,serif" font-size="14.00">D</text>
<text text-anchor="start" x="110.5" y="-4.8" font-family="Times,serif" font-style="italic" baseline-shift="sub" font-size="14.00">l</text>
</g>
<!-- dl&#45;&gt;c -->
<g id="edge4" class="edge">
<title>dl&#45;&gt;c</title>
<path fill="none" stroke="black" d="M100.83,-15.31C91.14,-25.2 73.39,-43.32 64.65,-52.24"/>
</g>
</g>
</svg>
