<?xml version="1.0" encoding="UTF-8" standalone="no"?>
<!DOCTYPE svg PUBLIC "-//W3C//DTD SVG 1.1//EN"
 "http://www.w3.org/Graphics/SVG/1.1/DTD/svg11.dtd">
<!-- Generated by graphviz version 7.0.6 (20230106.0513)
 -->
<!-- Title: initial Pages: 1 -->
<svg width="125pt" height="125pt"
 viewBox="0.00 0.00 124.50 125.00" xmlns="http://www.w3.org/2000/svg" xmlns:xlink="http://www.w3.org/1999/xlink">
<g id="graph0" class="graph" transform="scale(1 1) rotate(0) translate(4 121)">
<title>initial</title>
<polygon fill="white" stroke="none" points="-4,4 -4,-121 120.5,-121 120.5,4 -4,4"/>
<!-- b1 -->
<g id="node1" class="node">
<title>b1</title>
<text text-anchor="start" x="0" y="-106.8" font-family="Times,serif" font-size="14.00">B</text>
<text text-anchor="start" x="10" y="-106.8" font-family="Times,serif" baseline-shift="sub" font-size="14.00">1</text>
</g>
<!-- b2 -->
<g id="node2" class="node">
<title>b2</title>
<text text-anchor="start" x="35" y="-106.8" font-family="Times,serif" font-size="14.00">B</text>
<text text-anchor="start" x="45" y="-106.8" font-family="Times,serif" baseline-shift="sub" font-size="14.00">2</text>
</g>
<!-- b1&#45;&gt;b2 -->
<!-- bdots -->
<g id="node3" class="node">
<title>bdots</title>
<text text-anchor="middle" x="76.5" y="-105.8" font-family="Times,serif" font-size="14.00">...</text>
</g>
<!-- b2&#45;&gt;bdots -->
<!-- bk -->
<g id="node4" class="node">
<title>bk</title>
<text text-anchor="start" x="100.5" y="-106.8" font-family="Times,serif" font-size="14.00">B</text>
<text text-anchor="start" x="110.5" y="-106.8" font-family="Times,serif" font-style="italic" baseline-shift="sub" font-size="14.00">k</text>
</g>
<!-- bdots&#45;&gt;bk -->
<!-- c -->
<g id="node5" class="node">
<title>c</title>
<text text-anchor="start" x="54.5" y="-54.8" font-family="Times,serif" font-size="14.00">C</text>
</g>
<!-- c&#45;&gt;b1 -->
<g id="edge1" class="edge">
<title>c&#45;&gt;b1</title>
<path fill="none" stroke="black" d="M54.79,-64.02C45.62,-72.84 25.34,-92.32 14.93,-102.32"/>
</g>
<!-- c&#45;&gt;b2 -->
<g id="edge2" class="edge">
<title>c&#45;&gt;b2</title>
<path fill="none" stroke="black" d="M57.41,-65.91C54.32,-75.35 48.6,-92.89 45.54,-102.25"/>
</g>
<!-- c&#45;&gt;bdots -->
<g id="edge3" class="edge">
<title>c&#45;&gt;bdots</title>
<path fill="none" stroke="black" d="M61.72,-65.91C65,-75.35 71.09,-92.89 74.33,-102.25"/>
</g>
<!-- c&#45;&gt;bk -->
<g id="edge4" class="edge">
<title>c&#45;&gt;bk</title>
<path fill="none" stroke="black" d="M64.38,-64.38C73.29,-73.29 92.18,-92.18 102.11,-102.11"/>
</g>
<!-- d1 -->
<g id="node6" class="node">
<title>d1</title>
<text text-anchor="start" x="0" y="-4.8" font-family="Times,serif" font-size="14.00">D</text>
<text text-anchor="start" x="10" y="-4.8" font-family="Times,serif" baseline-shift="sub" font-size="14.00">1</text>
</g>
<!-- d1&#45;&gt;c -->
<g id="edge5" class="edge">
<title>d1&#45;&gt;c</title>
<path fill="none" stroke="black" d="M15.17,-14.91C25.54,-24.87 45.29,-43.85 54.52,-52.71"/>
</g>
<!-- d2 -->
<g id="node7" class="node">
<title>d2</title>
<text text-anchor="start" x="35" y="-4.8" font-family="Times,serif" font-size="14.00">D</text>
<text text-anchor="start" x="45" y="-4.8" font-family="Times,serif" baseline-shift="sub" font-size="14.00">2</text>
</g>
<!-- d1&#45;&gt;d2 -->
<!-- d2&#45;&gt;c -->
<g id="edge6" class="edge">
<title>d2&#45;&gt;c</title>
<path fill="none" stroke="black" d="M45.59,-14.91C48.68,-24.35 54.4,-41.89 57.46,-51.25"/>
</g>
<!-- ddots -->
<g id="node8" class="node">
<title>ddots</title>
<text text-anchor="middle" x="76.5" y="-3.8" font-family="Times,serif" font-size="14.00">...</text>
</g>
<!-- d2&#45;&gt;ddots -->
<!-- ddots&#45;&gt;c -->
<g id="edge7" class="edge">
<title>ddots&#45;&gt;c</title>
<path fill="none" stroke="black" d="M74.28,-14.91C71,-24.35 64.91,-41.89 61.67,-51.25"/>
</g>
<!-- dl -->
<g id="node9" class="node">
<title>dl</title>
<text text-anchor="start" x="100.5" y="-4.8" font-family="Times,serif" font-size="14.00">D</text>
<text text-anchor="start" x="110.5" y="-4.8" font-family="Times,serif" font-style="italic" baseline-shift="sub" font-size="14.00">l</text>
</g>
<!-- ddots&#45;&gt;dl -->
<!-- dl&#45;&gt;c -->
<g id="edge8" class="edge">
<title>dl&#45;&gt;c</title>
<path fill="none" stroke="black" d="M101.22,-14.91C91.57,-24.76 73.26,-43.45 64.46,-52.43"/>
</g>
</g>
</svg>
