<?xml version="1.0" encoding="UTF-8" standalone="no"?>
<!DOCTYPE svg PUBLIC "-//W3C//DTD SVG 1.1//EN"
 "http://www.w3.org/Graphics/SVG/1.1/DTD/svg11.dtd">
<!-- Generated by graphviz version 7.0.6 (20230106.0513)
 -->
<!-- Title: BundleClosure__Taxonomy Pages: 1 -->
<svg width="158pt" height="278pt"
 viewBox="0.00 0.00 157.50 278.00" xmlns="http://www.w3.org/2000/svg" xmlns:xlink="http://www.w3.org/1999/xlink">
<g id="graph0" class="graph" transform="scale(1 1) rotate(0) translate(4 274)">
<title>BundleClosure__Taxonomy</title>
<polygon fill="white" stroke="none" points="-4,4 -4,-274 153.5,-274 153.5,4 -4,4"/>
<!-- A -->
<g id="node1" class="node">
<title>A</title>
<text text-anchor="middle" x="66" y="-258.8" font-family="Times,serif" font-size="14.00">A</text>
</g>
<!-- B -->
<g id="node2" class="node">
<title>B</title>
<text text-anchor="middle" x="66" y="-207.8" font-family="Times,serif" font-size="14.00">B</text>
</g>
<!-- B&#45;&gt;A -->
<g id="edge1" class="edge">
<title>B&#45;&gt;A</title>
<path fill="none" stroke="black" d="M66,-218.91C66,-228.35 66,-245.89 66,-255.25"/>
</g>
<!-- C -->
<g id="node3" class="node">
<title>C</title>
<text text-anchor="middle" x="22" y="-156.8" font-family="Times,serif" font-size="14.00">C</text>
</g>
<!-- C&#45;&gt;A -->
<g id="edge2" class="edge">
<title>C&#45;&gt;A</title>
<path fill="none" stroke="black" d="M24.75,-167.76C32.65,-185.71 55.35,-237.29 63.25,-255.25"/>
</g>
<!-- C&#45;&gt;B -->
<g id="edge3" class="edge">
<title>C&#45;&gt;B</title>
<path fill="none" stroke="black" d="M26.71,-166.74C35.13,-176.13 52.7,-195.68 61.19,-205.15"/>
</g>
<!-- I -->
<g id="node4" class="node">
<title>I</title>
<text text-anchor="middle" x="70" y="-54.8" font-family="Times,serif" font-size="14.00">I</text>
</g>
<!-- I&#45;&gt;A -->
<g id="edge4" class="edge">
<title>I&#45;&gt;A</title>
<path fill="none" stroke="black" d="M71.82,-65.77C76.06,-80.72 86.47,-119.65 90,-153 93.12,-182.5 87.51,-190.3 80,-219 76.58,-232.08 71.34,-247.01 68.34,-255.24"/>
</g>
<!-- F -->
<g id="node7" class="node">
<title>F</title>
<text text-anchor="middle" x="49" y="-156.8" font-family="Times,serif" font-size="14.00">F</text>
</g>
<!-- I&#45;&gt;F -->
<g id="edge5" class="edge">
<title>I&#45;&gt;F</title>
<path fill="none" stroke="black" d="M68.69,-65.76C64.92,-83.71 54.08,-135.29 50.31,-153.25"/>
</g>
<!-- G -->
<g id="node8" class="node">
<title>G</title>
<text text-anchor="middle" x="38" y="-105.8" font-family="Times,serif" font-size="14.00">G</text>
</g>
<!-- I&#45;&gt;G -->
<g id="edge6" class="edge">
<title>I&#45;&gt;G</title>
<path fill="none" stroke="black" d="M67.7,-63.02C62.31,-71.27 48.82,-91.93 42.03,-102.33"/>
</g>
<!-- D -->
<g id="node5" class="node">
<title>D</title>
<text text-anchor="middle" x="76" y="-156.8" font-family="Times,serif" font-size="14.00">D</text>
</g>
<!-- D&#45;&gt;B -->
<g id="edge7" class="edge">
<title>D&#45;&gt;B</title>
<path fill="none" stroke="black" d="M74.69,-167.91C72.77,-177.35 69.19,-194.89 67.28,-204.25"/>
</g>
<!-- E -->
<g id="node6" class="node">
<title>E</title>
<text text-anchor="middle" x="145" y="-105.8" font-family="Times,serif" font-size="14.00">E</text>
</g>
<!-- E&#45;&gt;B -->
<g id="edge8" class="edge">
<title>E&#45;&gt;B</title>
<path fill="none" stroke="black" d="M140.53,-116.16C126.75,-133.6 85.06,-186.38 70.82,-204.4"/>
</g>
<!-- F&#45;&gt;B -->
<g id="edge9" class="edge">
<title>F&#45;&gt;B</title>
<path fill="none" stroke="black" d="M51.22,-167.91C54.5,-177.35 60.59,-194.89 63.83,-204.25"/>
</g>
<!-- G&#45;&gt;C -->
<g id="edge10" class="edge">
<title>G&#45;&gt;C</title>
<path fill="none" stroke="black" d="M35.91,-116.91C32.82,-126.35 27.1,-143.89 24.04,-153.25"/>
</g>
<!-- H -->
<g id="node9" class="node">
<title>H</title>
<text text-anchor="middle" x="5" y="-54.8" font-family="Times,serif" font-size="14.00">H</text>
</g>
<!-- H&#45;&gt;C -->
<g id="edge11" class="edge">
<title>H&#45;&gt;C</title>
<path fill="none" stroke="black" d="M6.06,-65.76C9.12,-83.71 17.88,-135.29 20.94,-153.25"/>
</g>
<!-- J -->
<g id="node10" class="node">
<title>J</title>
<text text-anchor="middle" x="53" y="-3.8" font-family="Times,serif" font-size="14.00">J</text>
</g>
<!-- J&#45;&gt;I -->
<g id="edge12" class="edge">
<title>J&#45;&gt;I</title>
<path fill="none" stroke="black" d="M55.22,-14.91C58.5,-24.35 64.59,-41.89 67.83,-51.25"/>
</g>
<!-- J&#45;&gt;E -->
<g id="edge13" class="edge">
<title>J&#45;&gt;E</title>
<path fill="none" stroke="black" d="M55.65,-11.38C68.5,-25.35 124.26,-85.95 140.53,-103.64"/>
</g>
<!-- J&#45;&gt;G -->
<g id="edge14" class="edge">
<title>J&#45;&gt;G</title>
<path fill="none" stroke="black" d="M52.06,-14.76C49.37,-32.71 41.63,-84.29 38.94,-102.25"/>
</g>
<!-- J&#45;&gt;H -->
<g id="edge15" class="edge">
<title>J&#45;&gt;H</title>
<path fill="none" stroke="black" d="M50.14,-11.42C42.23,-19.49 19.97,-42.22 9.97,-52.42"/>
</g>
<!-- X -->
<g id="node11" class="node">
<title>X</title>
<text text-anchor="middle" x="79" y="-3.8" font-family="Times,serif" font-size="14.00">X</text>
</g>
<!-- Y -->
<g id="node12" class="node">
<title>Y</title>
<text text-anchor="middle" x="107" y="-3.8" font-family="Times,serif" font-size="14.00">Y</text>
</g>
<!-- Z -->
<g id="node13" class="node">
<title>Z</title>
<text text-anchor="middle" x="135" y="-3.8" font-family="Times,serif" font-size="14.00">Z</text>
</g>
</g>
</svg>
