<?xml version="1.0" encoding="UTF-8" standalone="no"?>
<!DOCTYPE svg PUBLIC "-//W3C//DTD SVG 1.1//EN"
 "http://www.w3.org/Graphics/SVG/1.1/DTD/svg11.dtd">
<!-- Generated by graphviz version 7.0.6 (20230106.0513)
 -->
<!-- Title: BundleClosure__Taxonomy Pages: 1 -->
<svg width="158pt" height="278pt"
 viewBox="0.00 0.00 157.50 278.00" xmlns="http://www.w3.org/2000/svg" xmlns:xlink="http://www.w3.org/1999/xlink">
<g id="graph0" class="graph" transform="scale(1 1) rotate(0) translate(4 274)">
<title>BundleClosure__Taxonomy</title>
<polygon fill="white" stroke="none" points="-4,4 -4,-274 153.5,-274 153.5,4 -4,4"/>
<!-- A -->
<g id="node1" class="node">
<title>A</title>
<text text-anchor="middle" x="65" y="-258.8" font-family="Times,serif" font-style="italic" font-size="14.00">A</text>
</g>
<!-- B -->
<g id="node2" class="node">
<title>B</title>
<text text-anchor="middle" x="65" y="-207.8" font-family="Times,serif" font-style="italic" font-size="14.00">B</text>
</g>
<!-- B&#45;&gt;A -->
<g id="edge1" class="edge">
<title>B&#45;&gt;A</title>
<path fill="none" stroke="black" d="M65,-218.91C65,-228.35 65,-245.89 65,-255.25"/>
</g>
<!-- C -->
<g id="node3" class="node">
<title>C</title>
<text text-anchor="middle" x="20" y="-156.8" font-family="Times,serif" font-style="italic" font-size="14.00">C</text>
</g>
<!-- C&#45;&gt;A -->
<g id="edge2" class="edge">
<title>C&#45;&gt;A</title>
<path fill="none" stroke="black" d="M22.81,-167.76C30.9,-185.71 54.11,-237.29 62.19,-255.25"/>
</g>
<!-- C&#45;&gt;B -->
<g id="edge3" class="edge">
<title>C&#45;&gt;B</title>
<path fill="none" stroke="black" d="M24.82,-166.74C33.61,-176.32 52.15,-196.51 60.62,-205.73"/>
</g>
<!-- I -->
<g id="node4" class="node">
<title>I</title>
<text text-anchor="middle" x="70" y="-54.8" font-family="Times,serif" font-style="italic" font-size="14.00">I</text>
</g>
<!-- I&#45;&gt;A -->
<g id="edge4" class="edge">
<title>I&#45;&gt;A</title>
<path fill="none" stroke="black" d="M72.47,-65.81C78.68,-82.42 94.18,-128.76 90,-168 86.4,-201.75 72.92,-240.45 67.39,-255.28"/>
</g>
<!-- F -->
<g id="node7" class="node">
<title>F</title>
<text text-anchor="middle" x="48" y="-156.8" font-family="Times,serif" font-style="italic" font-size="14.00">F</text>
</g>
<!-- I&#45;&gt;F -->
<g id="edge5" class="edge">
<title>I&#45;&gt;F</title>
<path fill="none" stroke="black" d="M68.62,-65.76C64.67,-83.71 53.33,-135.29 49.38,-153.25"/>
</g>
<!-- G -->
<g id="node8" class="node">
<title>G</title>
<text text-anchor="middle" x="38" y="-105.8" font-family="Times,serif" font-style="italic" font-size="14.00">G</text>
</g>
<!-- I&#45;&gt;G -->
<g id="edge6" class="edge">
<title>I&#45;&gt;G</title>
<path fill="none" stroke="black" d="M67.7,-63.02C62.31,-71.27 48.82,-91.93 42.03,-102.33"/>
</g>
<!-- D -->
<g id="node5" class="node">
<title>D</title>
<text text-anchor="middle" x="76" y="-156.8" font-family="Times,serif" font-style="italic" font-size="14.00">D</text>
</g>
<!-- D&#45;&gt;B -->
<g id="edge7" class="edge">
<title>D&#45;&gt;B</title>
<path fill="none" stroke="black" d="M74.56,-167.91C72.44,-177.35 68.5,-194.89 66.4,-204.25"/>
</g>
<!-- E -->
<g id="node6" class="node">
<title>E</title>
<text text-anchor="middle" x="145" y="-105.8" font-family="Times,serif" font-style="italic" font-size="14.00">E</text>
</g>
<!-- E&#45;&gt;B -->
<g id="edge8" class="edge">
<title>E&#45;&gt;B</title>
<path fill="none" stroke="black" d="M140.7,-115.88C126.81,-133.24 83.24,-187.7 69.32,-205.1"/>
</g>
<!-- F&#45;&gt;B -->
<g id="edge9" class="edge">
<title>F&#45;&gt;B</title>
<path fill="none" stroke="black" d="M50.22,-167.91C53.5,-177.35 59.59,-194.89 62.83,-204.25"/>
</g>
<!-- G&#45;&gt;C -->
<g id="edge10" class="edge">
<title>G&#45;&gt;C</title>
<path fill="none" stroke="black" d="M35.65,-116.91C32.18,-126.35 25.73,-143.89 22.3,-153.25"/>
</g>
<!-- H -->
<g id="node9" class="node">
<title>H</title>
<text text-anchor="middle" x="5" y="-54.8" font-family="Times,serif" font-style="italic" font-size="14.00">H</text>
</g>
<!-- H&#45;&gt;C -->
<g id="edge11" class="edge">
<title>H&#45;&gt;C</title>
<path fill="none" stroke="black" d="M5.94,-65.76C8.63,-83.71 16.37,-135.29 19.06,-153.25"/>
</g>
<!-- J -->
<g id="node10" class="node">
<title>J</title>
<text text-anchor="middle" x="53" y="-3.8" font-family="Times,serif" font-style="italic" font-size="14.00">J</text>
</g>
<!-- J&#45;&gt;I -->
<g id="edge12" class="edge">
<title>J&#45;&gt;I</title>
<path fill="none" stroke="black" d="M55.22,-14.91C58.5,-24.35 64.59,-41.89 67.83,-51.25"/>
</g>
<!-- J&#45;&gt;E -->
<g id="edge13" class="edge">
<title>J&#45;&gt;E</title>
<path fill="none" stroke="black" d="M56.49,-12.3C70.8,-27.85 124.92,-86.68 140.67,-103.8"/>
</g>
<!-- J&#45;&gt;G -->
<g id="edge14" class="edge">
<title>J&#45;&gt;G</title>
<path fill="none" stroke="black" d="M52.06,-14.76C49.37,-32.71 41.63,-84.29 38.94,-102.25"/>
</g>
<!-- J&#45;&gt;H -->
<g id="edge15" class="edge">
<title>J&#45;&gt;H</title>
<path fill="none" stroke="black" d="M49.55,-12.02C41.12,-20.63 19.48,-42.71 9.81,-52.59"/>
</g>
<!-- X -->
<g id="node11" class="node">
<title>X</title>
<text text-anchor="middle" x="79" y="-3.8" font-family="Times,serif" font-style="italic" font-size="14.00">X</text>
</g>
<!-- Y -->
<g id="node12" class="node">
<title>Y</title>
<text text-anchor="middle" x="106" y="-3.8" font-family="Times,serif" font-style="italic" font-size="14.00">Y</text>
</g>
<!-- Z -->
<g id="node13" class="node">
<title>Z</title>
<text text-anchor="middle" x="132" y="-3.8" font-family="Times,serif" font-style="italic" font-size="14.00">Z</text>
</g>
</g>
</svg>
