<?xml version="1.0" encoding="UTF-8" standalone="no"?>
<!DOCTYPE svg PUBLIC "-//W3C//DTD SVG 1.1//EN"
 "http://www.w3.org/Graphics/SVG/1.1/DTD/svg11.dtd">
<!-- Generated by graphviz version 7.0.6 (20230106.0513)
 -->
<!-- Title: BundleClosure__Taxonomy Pages: 1 -->
<svg width="185pt" height="329pt"
 viewBox="0.00 0.00 184.50 329.00" xmlns="http://www.w3.org/2000/svg" xmlns:xlink="http://www.w3.org/1999/xlink">
<g id="graph0" class="graph" transform="scale(1 1) rotate(0) translate(4 325)">
<title>BundleClosure__Taxonomy</title>
<polygon fill="white" stroke="none" points="-4,4 -4,-325 180.5,-325 180.5,4 -4,4"/>
<!-- J -->
<g id="node1" class="node">
<title>J</title>
<text text-anchor="middle" x="58" y="-3.8" font-family="Times,serif" font-size="14.00">J</text>
</g>
<!-- I -->
<g id="node2" class="node">
<title>I</title>
<text text-anchor="middle" x="58" y="-54.8" font-family="Times,serif" font-size="14.00">I</text>
</g>
<!-- J&#45;&gt;I -->
<g id="edge1" class="edge">
<title>J&#45;&gt;I</title>
<path fill="none" stroke="black" d="M58,-14.91C58,-24.35 58,-41.89 58,-51.25"/>
</g>
<!-- H -->
<g id="node4" class="node">
<title>H</title>
<text text-anchor="middle" x="5" y="-105.8" font-family="Times,serif" font-size="14.00">H</text>
</g>
<!-- J&#45;&gt;H -->
<g id="edge2" class="edge">
<title>J&#45;&gt;H</title>
<path fill="none" stroke="black" d="M55.15,-13.88C46.12,-30.92 18.16,-83.67 8.4,-102.08"/>
</g>
<!-- E -->
<g id="node7" class="node">
<title>E</title>
<text text-anchor="middle" x="93" y="-54.8" font-family="Times,serif" font-size="14.00">E</text>
</g>
<!-- J&#45;&gt;E -->
<g id="edge3" class="edge">
<title>J&#45;&gt;E</title>
<path fill="none" stroke="black" d="M60.98,-12.68C67.13,-21.29 81.25,-41.05 88.51,-51.21"/>
</g>
<!-- G -->
<g id="node3" class="node">
<title>G</title>
<text text-anchor="middle" x="33" y="-105.8" font-family="Times,serif" font-size="14.00">G</text>
</g>
<!-- I&#45;&gt;G -->
<g id="edge4" class="edge">
<title>I&#45;&gt;G</title>
<path fill="none" stroke="black" d="M55.51,-64.38C50.97,-73.29 41.33,-92.18 36.26,-102.11"/>
</g>
<!-- F -->
<g id="node8" class="node">
<title>F</title>
<text text-anchor="middle" x="69" y="-156.8" font-family="Times,serif" font-size="14.00">F</text>
</g>
<!-- I&#45;&gt;F -->
<g id="edge5" class="edge">
<title>I&#45;&gt;F</title>
<path fill="none" stroke="black" d="M58.69,-65.76C60.66,-83.71 66.34,-135.29 68.31,-153.25"/>
</g>
<!-- C -->
<g id="node5" class="node">
<title>C</title>
<text text-anchor="middle" x="33" y="-156.8" font-family="Times,serif" font-size="14.00">C</text>
</g>
<!-- G&#45;&gt;C -->
<g id="edge6" class="edge">
<title>G&#45;&gt;C</title>
<path fill="none" stroke="black" d="M33,-116.91C33,-126.35 33,-143.89 33,-153.25"/>
</g>
<!-- H&#45;&gt;C -->
<g id="edge7" class="edge">
<title>H&#45;&gt;C</title>
<path fill="none" stroke="black" d="M8.66,-116.91C14.06,-126.35 24.08,-143.89 29.43,-153.25"/>
</g>
<!-- B -->
<g id="node9" class="node">
<title>B</title>
<text text-anchor="middle" x="88" y="-207.8" font-family="Times,serif" font-size="14.00">B</text>
</g>
<!-- C&#45;&gt;B -->
<g id="edge8" class="edge">
<title>C&#45;&gt;B</title>
<path fill="none" stroke="black" d="M37.69,-165.68C47.98,-174.84 72.45,-196.64 83.01,-206.05"/>
</g>
<!-- D -->
<g id="node6" class="node">
<title>D</title>
<text text-anchor="middle" x="137" y="-156.8" font-family="Times,serif" font-size="14.00">D</text>
</g>
<!-- D&#45;&gt;B -->
<g id="edge9" class="edge">
<title>D&#45;&gt;B</title>
<path fill="none" stroke="black" d="M132.12,-166.38C122.73,-175.77 102.23,-196.27 92.86,-205.64"/>
</g>
<!-- E&#45;&gt;B -->
<g id="edge10" class="edge">
<title>E&#45;&gt;B</title>
<path fill="none" stroke="black" d="M92.79,-65.99C91.96,-90.83 89.02,-179.7 88.21,-204.2"/>
</g>
<!-- F&#45;&gt;B -->
<g id="edge11" class="edge">
<title>F&#45;&gt;B</title>
<path fill="none" stroke="black" d="M71.48,-167.91C75.15,-177.35 81.95,-194.89 85.58,-204.25"/>
</g>
<!-- A -->
<g id="node10" class="node">
<title>A</title>
<text text-anchor="middle" x="88" y="-258.8" font-family="Times,serif" font-size="14.00">A</text>
</g>
<!-- B&#45;&gt;A -->
<g id="edge12" class="edge">
<title>B&#45;&gt;A</title>
<path fill="none" stroke="black" d="M88,-218.91C88,-228.35 88,-245.89 88,-255.25"/>
</g>
<!-- U -->
<g id="node14" class="node">
<title>U</title>
<text text-anchor="middle" x="130" y="-309.8" font-family="Times,serif" font-size="14.00">U</text>
</g>
<!-- A&#45;&gt;U -->
<g id="edge13" class="edge">
<title>A&#45;&gt;U</title>
<path fill="none" stroke="black" d="M92.82,-269.12C100.92,-278.57 117.17,-297.54 125.24,-306.94"/>
</g>
<!-- X -->
<g id="node11" class="node">
<title>X</title>
<text text-anchor="middle" x="116" y="-258.8" font-family="Times,serif" font-size="14.00">X</text>
</g>
<!-- X&#45;&gt;U -->
<g id="edge14" class="edge">
<title>X&#45;&gt;U</title>
<path fill="none" stroke="black" d="M117.83,-269.91C120.53,-279.35 125.54,-296.89 128.21,-306.25"/>
</g>
<!-- Y -->
<g id="node12" class="node">
<title>Y</title>
<text text-anchor="middle" x="144" y="-258.8" font-family="Times,serif" font-size="14.00">Y</text>
</g>
<!-- Y&#45;&gt;U -->
<g id="edge15" class="edge">
<title>Y&#45;&gt;U</title>
<path fill="none" stroke="black" d="M142.17,-269.91C139.47,-279.35 134.46,-296.89 131.79,-306.25"/>
</g>
<!-- Z -->
<g id="node13" class="node">
<title>Z</title>
<text text-anchor="middle" x="172" y="-258.8" font-family="Times,serif" font-size="14.00">Z</text>
</g>
<!-- Z&#45;&gt;U -->
<g id="edge16" class="edge">
<title>Z&#45;&gt;U</title>
<path fill="none" stroke="black" d="M167.51,-268.74C159.55,-278.03 143.05,-297.27 134.85,-306.84"/>
</g>
</g>
</svg>
