<?xml version="1.0" encoding="UTF-8" standalone="no"?>
<!DOCTYPE svg PUBLIC "-//W3C//DTD SVG 1.1//EN"
 "http://www.w3.org/Graphics/SVG/1.1/DTD/svg11.dtd">
<!-- Generated by graphviz version 7.0.6 (20230106.0513)
 -->
<!-- Title: bidetail Pages: 1 -->
<svg width="278pt" height="125pt"
 viewBox="0.00 0.00 277.50 125.00" xmlns="http://www.w3.org/2000/svg" xmlns:xlink="http://www.w3.org/1999/xlink">
<g id="graph0" class="graph" transform="scale(1 1) rotate(0) translate(4 121)">
<title>bidetail</title>
<polygon fill="white" stroke="none" points="-4,4 -4,-121 273.5,-121 273.5,4 -4,4"/>
<!-- ai1 -->
<g id="node1" class="node">
<title>ai1</title>
<text text-anchor="start" x="75.5" y="-106.8" font-family="Times,serif" font-size="14.00">A</text>
<text text-anchor="start" x="85.5" y="-106.8" font-family="Times,serif" font-style="italic" baseline-shift="sub" font-size="14.00">i</text>
<text text-anchor="start" x="89.5" y="-106.8" font-family="Times,serif" baseline-shift="sub" font-size="14.00">,1</text>
</g>
<!-- ai2 -->
<g id="node2" class="node">
<title>ai2</title>
<text text-anchor="start" x="117.5" y="-106.8" font-family="Times,serif" font-size="14.00">A</text>
<text text-anchor="start" x="127.5" y="-106.8" font-family="Times,serif" font-style="italic" baseline-shift="sub" font-size="14.00">i</text>
<text text-anchor="start" x="131.5" y="-106.8" font-family="Times,serif" baseline-shift="sub" font-size="14.00">,2</text>
</g>
<!-- ai1&#45;&gt;ai2 -->
<!-- aidots -->
<g id="node3" class="node">
<title>aidots</title>
<text text-anchor="middle" x="165.5" y="-105.8" font-family="Times,serif" font-size="14.00">...</text>
</g>
<!-- ai2&#45;&gt;aidots -->
<!-- aij -->
<g id="node4" class="node">
<title>aij</title>
<text text-anchor="start" x="189.5" y="-106.8" font-family="Times,serif" font-size="14.00">A</text>
<text text-anchor="start" x="199.5" y="-106.8" font-family="Times,serif" font-style="italic" baseline-shift="sub" font-size="14.00">i,j</text>
</g>
<!-- aidots&#45;&gt;aij -->
<!-- bimc -->
<g id="node5" class="node">
<title>bimc</title>
<text text-anchor="start" x="89" y="-55.8" font-family="Times,serif" font-size="14.00">B</text>
<text text-anchor="start" x="99" y="-55.8" font-family="Times,serif" font-style="italic" baseline-shift="sub" font-size="14.00">i</text>
<text text-anchor="start" x="103" y="-55.8" font-family="Times,serif" font-size="14.00">\C</text>
</g>
<!-- bimc&#45;&gt;ai1 -->
<g id="edge1" class="edge">
<title>bimc&#45;&gt;ai1</title>
<path fill="none" stroke="black" d="M100.54,-65.91C97.65,-75.35 92.28,-92.89 89.41,-102.25"/>
</g>
<!-- bimc&#45;&gt;ai2 -->
<g id="edge2" class="edge">
<title>bimc&#45;&gt;ai2</title>
<path fill="none" stroke="black" d="M106.03,-65.91C111.23,-75.35 120.9,-92.89 126.05,-102.25"/>
</g>
<!-- bimc&#45;&gt;aidots -->
<g id="edge3" class="edge">
<title>bimc&#45;&gt;aidots</title>
<path fill="none" stroke="black" d="M110.74,-65.91C123.68,-75.97 148.45,-95.24 159.7,-103.99"/>
</g>
<!-- bimc&#45;&gt;aij -->
<g id="edge4" class="edge">
<title>bimc&#45;&gt;aij</title>
<path fill="none" stroke="black" d="M115.18,-65.91C134.8,-75.82 172.08,-94.65 189.75,-103.57"/>
</g>
<!-- invis -->
<!-- bimc&#45;&gt;invis -->
<!-- c -->
<g id="node6" class="node">
<title>c</title>
<text text-anchor="middle" x="184.5" y="-54.8" font-family="Times,serif" font-size="14.00">C</text>
</g>
<!-- c&#45;&gt;ai1 -->
<g id="edge5" class="edge">
<title>c&#45;&gt;ai1</title>
<path fill="none" stroke="black" d="M179.56,-62C164.81,-69.45 120.82,-91.67 99.44,-102.47"/>
</g>
<!-- c&#45;&gt;ai2 -->
<g id="edge6" class="edge">
<title>c&#45;&gt;ai2</title>
<path fill="none" stroke="black" d="M179.81,-63.68C170.15,-72.29 147.97,-92.05 136.56,-102.21"/>
</g>
<!-- c&#45;&gt;aidots -->
<g id="edge7" class="edge">
<title>c&#45;&gt;aidots</title>
<path fill="none" stroke="black" d="M182.02,-65.91C178.35,-75.35 171.55,-92.89 167.92,-102.25"/>
</g>
<!-- c&#45;&gt;aij -->
<g id="edge8" class="edge">
<title>c&#45;&gt;aij</title>
<path fill="none" stroke="black" d="M186.46,-65.91C189.35,-75.35 194.72,-92.89 197.59,-102.25"/>
</g>
<!-- d1 -->
<g id="node7" class="node">
<title>d1</title>
<text text-anchor="start" x="155" y="-4.8" font-family="Times,serif" font-size="14.00">D</text>
<text text-anchor="start" x="165" y="-4.8" font-family="Times,serif" baseline-shift="sub" font-size="14.00">1</text>
</g>
<!-- d1&#45;&gt;c -->
<g id="edge9" class="edge">
<title>d1&#45;&gt;c</title>
<path fill="none" stroke="black" d="M166.25,-14.91C170.29,-24.35 177.81,-41.89 181.82,-51.25"/>
</g>
<!-- d2 -->
<g id="node8" class="node">
<title>d2</title>
<text text-anchor="start" x="190" y="-4.8" font-family="Times,serif" font-size="14.00">D</text>
<text text-anchor="start" x="200" y="-4.8" font-family="Times,serif" baseline-shift="sub" font-size="14.00">2</text>
</g>
<!-- d1&#45;&gt;d2 -->
<!-- d2&#45;&gt;c -->
<g id="edge10" class="edge">
<title>d2&#45;&gt;c</title>
<path fill="none" stroke="black" d="M196.67,-14.91C193.97,-24.35 188.96,-41.89 186.29,-51.25"/>
</g>
<!-- ddots -->
<g id="node9" class="node">
<title>ddots</title>
<text text-anchor="middle" x="231.5" y="-3.8" font-family="Times,serif" font-size="14.00">...</text>
</g>
<!-- d2&#45;&gt;ddots -->
<!-- ddots&#45;&gt;c -->
<g id="edge11" class="edge">
<title>ddots&#45;&gt;c</title>
<path fill="none" stroke="black" d="M225.74,-14.51C216.42,-24.22 198.22,-43.2 189.45,-52.34"/>
</g>
<!-- dl -->
<g id="node10" class="node">
<title>dl</title>
<text text-anchor="start" x="255.5" y="-4.8" font-family="Times,serif" font-size="14.00">D</text>
<text text-anchor="start" x="265.5" y="-4.8" font-family="Times,serif" font-style="italic" baseline-shift="sub" font-size="14.00">l</text>
</g>
<!-- ddots&#45;&gt;dl -->
<!-- dl&#45;&gt;c -->
<g id="edge12" class="edge">
<title>dl&#45;&gt;c</title>
<path fill="none" stroke="black" d="M255.58,-12.85C240.07,-22.59 202.84,-45.98 189.42,-54.41"/>
</g>
<!-- ei1 -->
<g id="node11" class="node">
<title>ei1</title>
<text text-anchor="start" x="0" y="-4.8" font-family="Times,serif" font-size="14.00">E</text>
<text text-anchor="start" x="9" y="-4.8" font-family="Times,serif" font-style="italic" baseline-shift="sub" font-size="14.00">i</text>
<text text-anchor="start" x="13" y="-4.8" font-family="Times,serif" baseline-shift="sub" font-size="14.00">,1</text>
</g>
<!-- ei1&#45;&gt;bimc -->
<g id="edge13" class="edge">
<title>ei1&#45;&gt;bimc</title>
<path fill="none" stroke="black" d="M22.66,-14.51C39.93,-23.81 73,-41.62 90.67,-51.13"/>
</g>
<!-- ei2 -->
<g id="node12" class="node">
<title>ei2</title>
<text text-anchor="start" x="41" y="-4.8" font-family="Times,serif" font-size="14.00">E</text>
<text text-anchor="start" x="50" y="-4.8" font-family="Times,serif" font-style="italic" baseline-shift="sub" font-size="14.00">i</text>
<text text-anchor="start" x="54" y="-4.8" font-family="Times,serif" baseline-shift="sub" font-size="14.00">,2</text>
</g>
<!-- ei1&#45;&gt;ei2 -->
<!-- ei2&#45;&gt;bimc -->
<g id="edge14" class="edge">
<title>ei2&#45;&gt;bimc</title>
<path fill="none" stroke="black" d="M59.04,-14.91C68.67,-24.35 86.57,-41.89 96.12,-51.25"/>
</g>
<!-- eidots -->
<g id="node13" class="node">
<title>eidots</title>
<text text-anchor="middle" x="88.5" y="-3.8" font-family="Times,serif" font-size="14.00">...</text>
</g>
<!-- ei2&#45;&gt;eidots -->
<!-- eidots&#45;&gt;bimc -->
<g id="edge15" class="edge">
<title>eidots&#45;&gt;bimc</title>
<path fill="none" stroke="black" d="M90.33,-14.91C93.03,-24.35 98.04,-41.89 100.71,-51.25"/>
</g>
<!-- eim -->
<g id="node14" class="node">
<title>eim</title>
<text text-anchor="start" x="112.5" y="-4.8" font-family="Times,serif" font-size="14.00">E</text>
<text text-anchor="start" x="121.5" y="-4.8" font-family="Times,serif" font-style="italic" baseline-shift="sub" font-size="14.00">i,m</text>
</g>
<!-- eidots&#45;&gt;eim -->
<!-- eim&#45;&gt;bimc -->
<g id="edge16" class="edge">
<title>eim&#45;&gt;bimc</title>
<path fill="none" stroke="black" d="M121.62,-14.91C117.38,-24.35 109.51,-41.89 105.31,-51.25"/>
</g>
<!-- invis&#45;&gt;c -->
</g>
</svg>
