<?xml version="1.0" encoding="UTF-8" standalone="no"?>
<!DOCTYPE svg PUBLIC "-//W3C//DTD SVG 1.1//EN"
 "http://www.w3.org/Graphics/SVG/1.1/DTD/svg11.dtd">
<!-- Generated by graphviz version 7.0.6 (20230106.0513)
 -->
<!-- Title: BundleClosure__Taxonomy Pages: 1 -->
<svg width="169pt" height="278pt"
 viewBox="0.00 0.00 168.50 278.00" xmlns="http://www.w3.org/2000/svg" xmlns:xlink="http://www.w3.org/1999/xlink">
<g id="graph0" class="graph" transform="scale(1 1) rotate(0) translate(4 274)">
<title>BundleClosure__Taxonomy</title>
<polygon fill="white" stroke="none" points="-4,4 -4,-274 164.5,-274 164.5,4 -4,4"/>
<!-- J -->
<g id="node1" class="node">
<title>J</title>
<text text-anchor="middle" x="3" y="-54.8" font-family="Times,serif" font-size="14.00">J</text>
</g>
<!-- C -->
<g id="node2" class="node">
<title>C</title>
<text text-anchor="middle" x="28" y="-105.8" font-family="Times,serif" font-size="14.00">C</text>
</g>
<!-- J&#45;&gt;C -->
<g id="edge1" class="edge">
<title>J&#45;&gt;C</title>
<path fill="none" stroke="black" d="M5.87,-65.12C10.54,-74.27 19.75,-92.34 24.69,-102.02"/>
</g>
<!-- B -->
<g id="node4" class="node">
<title>B</title>
<text text-anchor="middle" x="72" y="-156.8" font-family="Times,serif" font-size="14.00">B</text>
</g>
<!-- C&#45;&gt;B -->
<g id="edge2" class="edge">
<title>C&#45;&gt;B</title>
<path fill="none" stroke="black" d="M32.71,-115.74C41.13,-125.13 58.7,-144.68 67.19,-154.15"/>
</g>
<!-- D -->
<g id="node3" class="node">
<title>D</title>
<text text-anchor="middle" x="56" y="-105.8" font-family="Times,serif" font-size="14.00">D</text>
</g>
<!-- D&#45;&gt;B -->
<g id="edge3" class="edge">
<title>D&#45;&gt;B</title>
<path fill="none" stroke="black" d="M58.09,-116.91C61.18,-126.35 66.9,-143.89 69.96,-153.25"/>
</g>
<!-- A -->
<g id="node5" class="node">
<title>A</title>
<text text-anchor="middle" x="72" y="-207.8" font-family="Times,serif" font-size="14.00">A</text>
</g>
<!-- B&#45;&gt;A -->
<g id="edge4" class="edge">
<title>B&#45;&gt;A</title>
<path fill="none" stroke="black" d="M72,-167.91C72,-177.35 72,-194.89 72,-204.25"/>
</g>
<!-- U -->
<g id="node9" class="node">
<title>U</title>
<text text-anchor="middle" x="114" y="-258.8" font-family="Times,serif" font-size="14.00">U</text>
</g>
<!-- A&#45;&gt;U -->
<g id="edge5" class="edge">
<title>A&#45;&gt;U</title>
<path fill="none" stroke="black" d="M76.82,-218.12C84.92,-227.57 101.17,-246.54 109.24,-255.94"/>
</g>
<!-- X -->
<g id="node6" class="node">
<title>X</title>
<text text-anchor="middle" x="100" y="-207.8" font-family="Times,serif" font-size="14.00">X</text>
</g>
<!-- X&#45;&gt;U -->
<g id="edge6" class="edge">
<title>X&#45;&gt;U</title>
<path fill="none" stroke="black" d="M101.83,-218.91C104.53,-228.35 109.54,-245.89 112.21,-255.25"/>
</g>
<!-- Y -->
<g id="node7" class="node">
<title>Y</title>
<text text-anchor="middle" x="128" y="-207.8" font-family="Times,serif" font-size="14.00">Y</text>
</g>
<!-- Y&#45;&gt;U -->
<g id="edge7" class="edge">
<title>Y&#45;&gt;U</title>
<path fill="none" stroke="black" d="M126.17,-218.91C123.47,-228.35 118.46,-245.89 115.79,-255.25"/>
</g>
<!-- Z -->
<g id="node8" class="node">
<title>Z</title>
<text text-anchor="middle" x="156" y="-207.8" font-family="Times,serif" font-size="14.00">Z</text>
</g>
<!-- Z&#45;&gt;U -->
<g id="edge8" class="edge">
<title>Z&#45;&gt;U</title>
<path fill="none" stroke="black" d="M151.51,-217.74C143.55,-227.03 127.05,-246.27 118.85,-255.84"/>
</g>
<!-- I\\J -->
<g id="node10" class="node">
<title>I\\J</title>
<text text-anchor="middle" x="76" y="-3.8" font-family="Times,serif" font-size="14.00">I\J</text>
</g>
<!-- G\\J -->
<g id="node13" class="node">
<title>G\\J</title>
<text text-anchor="middle" x="34" y="-54.8" font-family="Times,serif" font-size="14.00">G\J</text>
</g>
<!-- I\\J&#45;&gt;G\\J -->
<g id="edge9" class="edge">
<title>I\\J&#45;&gt;G\\J</title>
<path fill="none" stroke="black" d="M70.51,-14.91C62.42,-24.35 47.38,-41.89 39.36,-51.25"/>
</g>
<!-- F\\J -->
<g id="node14" class="node">
<title>F\\J</title>
<text text-anchor="middle" x="124" y="-105.8" font-family="Times,serif" font-size="14.00">F\J</text>
</g>
<!-- I\\J&#45;&gt;F\\J -->
<g id="edge10" class="edge">
<title>I\\J&#45;&gt;F\\J</title>
<path fill="none" stroke="black" d="M79,-14.76C87.62,-32.71 112.38,-84.29 121,-102.25"/>
</g>
<!-- H\\J -->
<g id="node11" class="node">
<title>H\\J</title>
<text text-anchor="middle" x="71" y="-54.8" font-family="Times,serif" font-size="14.00">H\J</text>
</g>
<!-- H\\J&#45;&gt;C -->
<g id="edge11" class="edge">
<title>H\\J&#45;&gt;C</title>
<path fill="none" stroke="black" d="M65.38,-65.91C56.91,-75.56 41.02,-93.67 32.96,-102.85"/>
</g>
<!-- E\\J -->
<g id="node12" class="node">
<title>E\\J</title>
<text text-anchor="middle" x="88" y="-105.8" font-family="Times,serif" font-size="14.00">E\J</text>
</g>
<!-- E\\J&#45;&gt;B -->
<g id="edge12" class="edge">
<title>E\\J&#45;&gt;B</title>
<path fill="none" stroke="black" d="M85.91,-116.91C82.82,-126.35 77.1,-143.89 74.04,-153.25"/>
</g>
<!-- G\\J&#45;&gt;C -->
<g id="edge13" class="edge">
<title>G\\J&#45;&gt;C</title>
<path fill="none" stroke="black" d="M33.22,-65.91C32.06,-75.35 29.91,-92.89 28.77,-102.25"/>
</g>
<!-- F\\J&#45;&gt;B -->
<g id="edge14" class="edge">
<title>F\\J&#45;&gt;B</title>
<path fill="none" stroke="black" d="M117.2,-116.91C106.52,-126.97 86.07,-146.24 76.79,-154.99"/>
</g>
</g>
</svg>
