<?xml version="1.0" encoding="UTF-8" standalone="no"?>
<!DOCTYPE svg PUBLIC "-//W3C//DTD SVG 1.1//EN"
 "http://www.w3.org/Graphics/SVG/1.1/DTD/svg11.dtd">
<!-- Generated by graphviz version 2.44.0 (20200408.0750)
 -->
<!-- Title: g Pages: 1 -->
<svg width="276pt" height="125pt"
 viewBox="0.00 0.00 276.00 125.00" xmlns="http://www.w3.org/2000/svg" xmlns:xlink="http://www.w3.org/1999/xlink">
<g id="graph0" class="graph" transform="scale(1 1) rotate(0) translate(4 121)">
<title>g</title>
<polygon fill="white" stroke="transparent" points="-4,4 -4,-121 272,-121 272,4 -4,4"/>
<!-- c -->
<g id="node1" class="node">
<title>c</title>
<text text-anchor="middle" x="89.5" y="-54.8" font-family="Times,serif" font-size="14.00">C</text>
</g>
<!-- ai1 -->
<g id="node3" class="node">
<title>ai1</title>
<text text-anchor="start" x="139.5" y="-106.8" font-family="Times,serif" font-size="14.00">A</text>
<text text-anchor="start" x="149.5" y="-106.8" font-family="Times,serif" font-style="italic" baseline-shift="sub" font-size="14.00">i</text>
<text text-anchor="start" x="153.5" y="-106.8" font-family="Times,serif" baseline-shift="sub" font-size="14.00">,1</text>
</g>
<!-- c&#45;&gt;ai1 -->
<g id="edge5" class="edge">
<title>c&#45;&gt;ai1</title>
<path fill="none" stroke="black" d="M94.79,-63.68C105.56,-72.19 130.15,-91.62 143.12,-101.88"/>
</g>
<!-- ai2 -->
<g id="node4" class="node">
<title>ai2</title>
<text text-anchor="start" x="181.5" y="-106.8" font-family="Times,serif" font-size="14.00">A</text>
<text text-anchor="start" x="191.5" y="-106.8" font-family="Times,serif" font-style="italic" baseline-shift="sub" font-size="14.00">i</text>
<text text-anchor="start" x="195.5" y="-106.8" font-family="Times,serif" baseline-shift="sub" font-size="14.00">,2</text>
</g>
<!-- c&#45;&gt;ai2 -->
<g id="edge6" class="edge">
<title>c&#45;&gt;ai2</title>
<path fill="none" stroke="black" d="M94.52,-61.86C110.18,-69.24 158.48,-92 181.31,-102.76"/>
</g>
<!-- aidots -->
<g id="node5" class="node">
<title>aidots</title>
<text text-anchor="middle" x="75.5" y="-105.8" font-family="Times,serif" font-size="14.00">...</text>
</g>
<!-- c&#45;&gt;aidots -->
<g id="edge7" class="edge">
<title>c&#45;&gt;aidots</title>
<path fill="none" stroke="black" d="M87.55,-66.31C84.88,-75.67 80.1,-92.41 77.43,-101.74"/>
</g>
<!-- aij -->
<g id="node6" class="node">
<title>aij</title>
<text text-anchor="start" x="99.5" y="-106.8" font-family="Times,serif" font-size="14.00">A</text>
<text text-anchor="start" x="109.5" y="-106.8" font-family="Times,serif" font-style="italic" baseline-shift="sub" font-size="14.00">i</text>
<text text-anchor="start" x="113.5" y="-106.8" font-family="Times,serif" baseline-shift="sub" font-size="14.00">,</text>
<text text-anchor="start" x="117.5" y="-106.8" font-family="Times,serif" font-style="italic" baseline-shift="sub" font-size="14.00">j</text>
</g>
<!-- c&#45;&gt;aij -->
<g id="edge8" class="edge">
<title>c&#45;&gt;aij</title>
<path fill="none" stroke="black" d="M92.42,-66.31C96.43,-75.67 103.61,-92.41 107.6,-101.74"/>
</g>
<!-- bimc -->
<g id="node2" class="node">
<title>bimc</title>
<text text-anchor="start" x="144" y="-55.8" font-family="Times,serif" font-size="14.00">B</text>
<text text-anchor="start" x="154" y="-55.8" font-family="Times,serif" font-style="italic" baseline-shift="sub" font-size="14.00">i</text>
<text text-anchor="start" x="158" y="-55.8" font-family="Times,serif" font-size="14.00">\C</text>
</g>
<!-- bimc&#45;&gt;ai1 -->
<g id="edge9" class="edge">
<title>bimc&#45;&gt;ai1</title>
<path fill="none" stroke="black" d="M156.67,-66.31C155.52,-75.67 153.47,-92.41 152.33,-101.74"/>
</g>
<!-- bimc&#45;&gt;ai2 -->
<g id="edge10" class="edge">
<title>bimc&#45;&gt;ai2</title>
<path fill="none" stroke="black" d="M162.51,-66.31C169.38,-75.67 181.68,-92.41 188.54,-101.74"/>
</g>
<!-- bimc&#45;&gt;aidots -->
<g id="edge11" class="edge">
<title>bimc&#45;&gt;aidots</title>
<path fill="none" stroke="black" d="M146.44,-66.11C128.95,-76.56 95.49,-96.55 81.69,-104.8"/>
</g>
<!-- bimc&#45;&gt;aij -->
<g id="edge12" class="edge">
<title>bimc&#45;&gt;aij</title>
<path fill="none" stroke="black" d="M150.96,-66.31C141.99,-75.67 125.93,-92.41 116.98,-101.74"/>
</g>
<!-- d1 -->
<g id="node7" class="node">
<title>d1</title>
<text text-anchor="start" x="0" y="-4.8" font-family="Times,serif" font-size="14.00">D</text>
<text text-anchor="start" x="10" y="-4.8" font-family="Times,serif" baseline-shift="sub" font-size="14.00">1</text>
</g>
<!-- d1&#45;&gt;c -->
<g id="edge1" class="edge">
<title>d1&#45;&gt;c</title>
<path fill="none" stroke="black" d="M17.17,-13.74C33.98,-23.92 70.57,-46.05 84.22,-54.31"/>
</g>
<!-- d2 -->
<g id="node8" class="node">
<title>d2</title>
<text text-anchor="start" x="35" y="-4.8" font-family="Times,serif" font-size="14.00">D</text>
<text text-anchor="start" x="45" y="-4.8" font-family="Times,serif" baseline-shift="sub" font-size="14.00">2</text>
</g>
<!-- d2&#45;&gt;c -->
<g id="edge2" class="edge">
<title>d2&#45;&gt;c</title>
<path fill="none" stroke="black" d="M49.9,-15.31C59.08,-25.1 75.82,-42.93 84.3,-51.96"/>
</g>
<!-- ddots -->
<g id="node9" class="node">
<title>ddots</title>
<text text-anchor="middle" x="76.5" y="-3.8" font-family="Times,serif" font-size="14.00">...</text>
</g>
<!-- ddots&#45;&gt;c -->
<g id="edge3" class="edge">
<title>ddots&#45;&gt;c</title>
<path fill="none" stroke="black" d="M78.31,-15.31C80.79,-24.67 85.23,-41.41 87.71,-50.74"/>
</g>
<!-- dl -->
<g id="node10" class="node">
<title>dl</title>
<text text-anchor="start" x="100.5" y="-4.8" font-family="Times,serif" font-size="14.00">D</text>
<text text-anchor="start" x="110.5" y="-4.8" font-family="Times,serif" font-style="italic" baseline-shift="sub" font-size="14.00">l</text>
</g>
<!-- dl&#45;&gt;c -->
<g id="edge4" class="edge">
<title>dl&#45;&gt;c</title>
<path fill="none" stroke="black" d="M105,-15.31C101.56,-24.67 95.41,-41.41 91.98,-50.74"/>
</g>
<!-- ei1 -->
<g id="node11" class="node">
<title>ei1</title>
<text text-anchor="start" x="132.5" y="-4.8" font-family="Times,serif" font-size="14.00">E</text>
<text text-anchor="start" x="141.5" y="-4.8" font-family="Times,serif" baseline-shift="sub" font-size="14.00">i,1</text>
</g>
<!-- ei1&#45;&gt;bimc -->
<g id="edge13" class="edge">
<title>ei1&#45;&gt;bimc</title>
<path fill="none" stroke="black" d="M145.45,-15.31C148.12,-24.67 152.9,-41.41 155.57,-50.74"/>
</g>
<!-- ei2 -->
<g id="node12" class="node">
<title>ei2</title>
<text text-anchor="start" x="172.5" y="-4.8" font-family="Times,serif" font-size="14.00">E</text>
<text text-anchor="start" x="181.5" y="-4.8" font-family="Times,serif" baseline-shift="sub" font-size="14.00">i,2</text>
</g>
<!-- ei2&#45;&gt;bimc -->
<g id="edge14" class="edge">
<title>ei2&#45;&gt;bimc</title>
<path fill="none" stroke="black" d="M179.88,-15.31C174.92,-24.67 166.04,-41.41 161.08,-50.74"/>
</g>
<!-- eidots -->
<g id="node13" class="node">
<title>eidots</title>
<text text-anchor="middle" x="218.5" y="-3.8" font-family="Times,serif" font-size="14.00">...</text>
</g>
<!-- eidots&#45;&gt;bimc -->
<g id="edge15" class="edge">
<title>eidots&#45;&gt;bimc</title>
<path fill="none" stroke="black" d="M212.43,-13.38C201.46,-22.19 178.32,-40.77 165.87,-50.78"/>
</g>
<!-- eim -->
<g id="node14" class="node">
<title>eim</title>
<text text-anchor="start" x="243" y="-4.8" font-family="Times,serif" font-size="14.00">E</text>
<text text-anchor="start" x="252" y="-4.8" font-family="Times,serif" baseline-shift="sub" font-size="14.00">i,</text>
<text text-anchor="start" x="259" y="-4.8" font-family="Times,serif" font-style="italic" baseline-shift="sub" font-size="14.00">m</text>
</g>
<!-- eim&#45;&gt;bimc -->
<g id="edge16" class="edge">
<title>eim&#45;&gt;bimc</title>
<path fill="none" stroke="black" d="M242.69,-14.91C224.01,-24.24 189.48,-41.51 170.63,-50.94"/>
</g>
</g>
</svg>
