<?xml version="1.0" encoding="UTF-8" standalone="no"?>
<!DOCTYPE svg PUBLIC "-//W3C//DTD SVG 1.1//EN"
 "http://www.w3.org/Graphics/SVG/1.1/DTD/svg11.dtd">
<!-- Generated by graphviz version 7.0.6 (20230106.0513)
 -->
<!-- Title: BundleClosure__Taxonomy Pages: 1 -->
<svg width="145pt" height="176pt"
 viewBox="0.00 0.00 144.72 176.00" xmlns="http://www.w3.org/2000/svg" xmlns:xlink="http://www.w3.org/1999/xlink">
<g id="graph0" class="graph" transform="scale(1 1) rotate(0) translate(4 172)">
<title>BundleClosure__Taxonomy</title>
<polygon fill="white" stroke="none" points="-4,4 -4,-172 140.72,-172 140.72,4 -4,4"/>
<!-- G -->
<g id="node1" class="node">
<title>G</title>
<text text-anchor="middle" x="90.72" y="-54.8" font-family="Times,serif" font-size="14.00">G</text>
</g>
<!-- C -->
<g id="node4" class="node">
<title>C</title>
<text text-anchor="middle" x="57.72" y="-105.8" font-family="Times,serif" font-size="14.00">C</text>
</g>
<!-- G&#45;&gt;C -->
<g id="edge1" class="edge">
<title>G&#45;&gt;C</title>
<path fill="none" stroke="black" d="M86.4,-65.91C80.05,-75.35 68.23,-92.89 61.93,-102.25"/>
</g>
<!-- J -->
<g id="node2" class="node">
<title>J</title>
<text text-anchor="middle" x="73.72" y="-3.8" font-family="Times,serif" font-size="14.00">J</text>
</g>
<!-- J&#45;&gt;G -->
<g id="edge2" class="edge">
<title>J&#45;&gt;G</title>
<path fill="none" stroke="black" d="M75.94,-14.91C79.22,-24.35 85.3,-41.89 88.55,-51.25"/>
</g>
<!-- J&#45;&gt;C -->
<g id="edge3" class="edge">
<title>J&#45;&gt;C</title>
<path fill="none" stroke="black" d="M72.72,-14.76C69.84,-32.71 61.59,-84.29 58.72,-102.25"/>
</g>
<!-- F -->
<g id="node6" class="node">
<title>F</title>
<text text-anchor="middle" x="117.72" y="-54.8" font-family="Times,serif" font-size="14.00">F</text>
</g>
<!-- J&#45;&gt;F -->
<g id="edge4" class="edge">
<title>J&#45;&gt;F</title>
<path fill="none" stroke="black" d="M76.61,-11.72C84.25,-20.23 105.05,-43.39 113.78,-53.11"/>
</g>
<!-- B -->
<g id="node7" class="node">
<title>B</title>
<text text-anchor="middle" x="73.72" y="-156.8" font-family="Times,serif" font-size="14.00">B</text>
</g>
<!-- J&#45;&gt;B -->
<g id="edge5" class="edge">
<title>J&#45;&gt;B</title>
<path fill="none" stroke="black" d="M70.9,-9.17C56.26,-12.84 -10.03,-31.47 1.72,-66 15.58,-106.73 55.15,-143.55 68.92,-155.47"/>
</g>
<!-- I\\J -->
<g id="node3" class="node">
<title>I\\J</title>
<text text-anchor="middle" x="103.72" y="-3.8" font-family="Times,serif" font-size="14.00">I\J</text>
</g>
<!-- I\\J&#45;&gt;G -->
<g id="edge6" class="edge">
<title>I\\J&#45;&gt;G</title>
<path fill="none" stroke="black" d="M102.02,-14.91C99.51,-24.35 94.86,-41.89 92.38,-51.25"/>
</g>
<!-- I\\J&#45;&gt;F -->
<g id="edge7" class="edge">
<title>I\\J&#45;&gt;F</title>
<path fill="none" stroke="black" d="M105.55,-14.91C108.25,-24.35 113.26,-41.89 115.93,-51.25"/>
</g>
<!-- C&#45;&gt;B -->
<g id="edge8" class="edge">
<title>C&#45;&gt;B</title>
<path fill="none" stroke="black" d="M59.81,-116.91C62.89,-126.35 68.62,-143.89 71.68,-153.25"/>
</g>
<!-- H\\J -->
<g id="node5" class="node">
<title>H\\J</title>
<text text-anchor="middle" x="19.72" y="-54.8" font-family="Times,serif" font-size="14.00">H\J</text>
</g>
<!-- H\\J&#45;&gt;C -->
<g id="edge9" class="edge">
<title>H\\J&#45;&gt;C</title>
<path fill="none" stroke="black" d="M24.69,-65.91C32.01,-75.35 45.62,-92.89 52.87,-102.25"/>
</g>
<!-- F&#45;&gt;B -->
<g id="edge10" class="edge">
<title>F&#45;&gt;B</title>
<path fill="none" stroke="black" d="M114.97,-65.76C107.06,-83.71 84.37,-135.29 76.47,-153.25"/>
</g>
<!-- E\\J -->
<g id="node8" class="node">
<title>E\\J</title>
<text text-anchor="middle" x="127.72" y="-105.8" font-family="Times,serif" font-size="14.00">E\J</text>
</g>
<!-- E\\J&#45;&gt;B -->
<g id="edge11" class="edge">
<title>E\\J&#45;&gt;B</title>
<path fill="none" stroke="black" d="M120.66,-116.91C109.57,-126.97 88.33,-146.24 78.69,-154.99"/>
</g>
</g>
</svg>
