<?xml version="1.0" encoding="UTF-8" standalone="no"?>
<!DOCTYPE svg PUBLIC "-//W3C//DTD SVG 1.1//EN"
 "http://www.w3.org/Graphics/SVG/1.1/DTD/svg11.dtd">
<!-- Generated by graphviz version 7.0.6 (20230106.0513)
 -->
<!-- Title: BundleClosure__Taxonomy Pages: 1 -->
<svg width="88pt" height="176pt"
 viewBox="0.00 0.00 88.00 176.00" xmlns="http://www.w3.org/2000/svg" xmlns:xlink="http://www.w3.org/1999/xlink">
<g id="graph0" class="graph" transform="scale(1 1) rotate(0) translate(4 172)">
<title>BundleClosure__Taxonomy</title>
<polygon fill="white" stroke="none" points="-4,4 -4,-172 84,-172 84,4 -4,4"/>
<!-- G -->
<g id="node1" class="node">
<title>G</title>
<text text-anchor="middle" x="32.5" y="-54.8" font-family="Times,serif" font-style="italic" font-size="14.00">G</text>
</g>
<!-- C -->
<g id="node4" class="node">
<title>C</title>
<text text-anchor="middle" x="37.5" y="-105.8" font-family="Times,serif" font-style="italic" font-size="14.00">C</text>
</g>
<!-- G&#45;&gt;C -->
<g id="edge1" class="edge">
<title>G&#45;&gt;C</title>
<path fill="none" stroke="black" d="M33.15,-65.91C34.12,-75.35 35.91,-92.89 36.86,-102.25"/>
</g>
<!-- J -->
<g id="node2" class="node">
<title>J</title>
<text text-anchor="middle" x="4.5" y="-3.8" font-family="Times,serif" font-style="italic" font-size="14.00">J</text>
</g>
<!-- J&#45;&gt;G -->
<g id="edge2" class="edge">
<title>J&#45;&gt;G</title>
<path fill="none" stroke="black" d="M7.93,-14.51C13.25,-23.81 23.42,-41.62 28.86,-51.13"/>
</g>
<!-- F -->
<g id="node6" class="node">
<title>F</title>
<text text-anchor="middle" x="4.5" y="-54.8" font-family="Times,serif" font-style="italic" font-size="14.00">F</text>
</g>
<!-- J&#45;&gt;F -->
<g id="edge3" class="edge">
<title>J&#45;&gt;F</title>
<path fill="none" stroke="black" d="M4.5,-14.91C4.5,-24.35 4.5,-41.89 4.5,-51.25"/>
</g>
<!-- I\\J -->
<g id="node3" class="node">
<title>I\\J</title>
<text text-anchor="middle" x="33.5" y="-3.8" font-family="Times,serif" font-style="italic" font-size="14.00">I\J</text>
</g>
<!-- I\\J&#45;&gt;G -->
<g id="edge4" class="edge">
<title>I\\J&#45;&gt;G</title>
<path fill="none" stroke="black" d="M33.37,-14.91C33.18,-24.35 32.82,-41.89 32.63,-51.25"/>
</g>
<!-- I\\J&#45;&gt;F -->
<g id="edge5" class="edge">
<title>I\\J&#45;&gt;F</title>
<path fill="none" stroke="black" d="M29.71,-14.91C24.12,-24.35 13.74,-41.89 8.2,-51.25"/>
</g>
<!-- B -->
<g id="node7" class="node">
<title>B</title>
<text text-anchor="middle" x="37.5" y="-156.8" font-family="Times,serif" font-style="italic" font-size="14.00">B</text>
</g>
<!-- C&#45;&gt;B -->
<g id="edge6" class="edge">
<title>C&#45;&gt;B</title>
<path fill="none" stroke="black" d="M37.5,-116.91C37.5,-126.35 37.5,-143.89 37.5,-153.25"/>
</g>
<!-- H\\J -->
<g id="node5" class="node">
<title>H\\J</title>
<text text-anchor="middle" x="65.5" y="-54.8" font-family="Times,serif" font-style="italic" font-size="14.00">H\J</text>
</g>
<!-- H\\J&#45;&gt;C -->
<g id="edge7" class="edge">
<title>H\\J&#45;&gt;C</title>
<path fill="none" stroke="black" d="M61.84,-65.91C56.44,-75.35 46.42,-92.89 41.07,-102.25"/>
</g>
<!-- F&#45;&gt;B -->
<g id="edge8" class="edge">
<title>F&#45;&gt;B</title>
<path fill="none" stroke="black" d="M6.56,-65.76C12.49,-83.71 29.51,-135.29 35.44,-153.25"/>
</g>
<!-- E\\J -->
<g id="node8" class="node">
<title>E\\J</title>
<text text-anchor="middle" x="70.5" y="-105.8" font-family="Times,serif" font-style="italic" font-size="14.00">E\J</text>
</g>
<!-- E\\J&#45;&gt;B -->
<g id="edge9" class="edge">
<title>E\\J&#45;&gt;B</title>
<path fill="none" stroke="black" d="M66.19,-116.91C59.83,-126.35 48.01,-143.89 41.71,-153.25"/>
</g>
</g>
</svg>
