<?xml version="1.0" encoding="UTF-8" standalone="no"?>
<!DOCTYPE svg PUBLIC "-//W3C//DTD SVG 1.1//EN"
 "http://www.w3.org/Graphics/SVG/1.1/DTD/svg11.dtd">
<!-- Generated by graphviz version 7.0.6 (20230106.0513)
 -->
<!-- Title: BundleClosure__Taxonomy Pages: 1 -->
<svg width="166pt" height="278pt"
 viewBox="0.00 0.00 165.50 278.00" xmlns="http://www.w3.org/2000/svg" xmlns:xlink="http://www.w3.org/1999/xlink">
<g id="graph0" class="graph" transform="scale(1 1) rotate(0) translate(4 274)">
<title>BundleClosure__Taxonomy</title>
<polygon fill="white" stroke="none" points="-4,4 -4,-274 161.5,-274 161.5,4 -4,4"/>
<!-- J -->
<g id="node1" class="node">
<title>J</title>
<text text-anchor="middle" x="3.5" y="-54.8" font-family="Times,serif" font-style="italic" font-size="14.00">J</text>
</g>
<!-- C -->
<g id="node2" class="node">
<title>C</title>
<text text-anchor="middle" x="29.5" y="-105.8" font-family="Times,serif" font-style="italic" font-size="14.00">C</text>
</g>
<!-- J&#45;&gt;C -->
<g id="edge1" class="edge">
<title>J&#45;&gt;C</title>
<path fill="none" stroke="black" d="M6.9,-65.91C11.91,-75.35 21.22,-92.89 26.18,-102.25"/>
</g>
<!-- B -->
<g id="node4" class="node">
<title>B</title>
<text text-anchor="middle" x="73.5" y="-156.8" font-family="Times,serif" font-style="italic" font-size="14.00">B</text>
</g>
<!-- C&#45;&gt;B -->
<g id="edge2" class="edge">
<title>C&#45;&gt;B</title>
<path fill="none" stroke="black" d="M34.21,-115.74C42.81,-125.32 60.94,-145.51 69.22,-154.73"/>
</g>
<!-- D -->
<g id="node3" class="node">
<title>D</title>
<text text-anchor="middle" x="57.5" y="-105.8" font-family="Times,serif" font-style="italic" font-size="14.00">D</text>
</g>
<!-- D&#45;&gt;B -->
<g id="edge3" class="edge">
<title>D&#45;&gt;B</title>
<path fill="none" stroke="black" d="M59.59,-116.91C62.68,-126.35 68.4,-143.89 71.46,-153.25"/>
</g>
<!-- A -->
<g id="node5" class="node">
<title>A</title>
<text text-anchor="middle" x="73.5" y="-207.8" font-family="Times,serif" font-style="italic" font-size="14.00">A</text>
</g>
<!-- B&#45;&gt;A -->
<g id="edge4" class="edge">
<title>B&#45;&gt;A</title>
<path fill="none" stroke="black" d="M73.5,-167.91C73.5,-177.35 73.5,-194.89 73.5,-204.25"/>
</g>
<!-- U -->
<g id="node9" class="node">
<title>U</title>
<text text-anchor="middle" x="113.5" y="-258.8" font-family="Times,serif" font-style="italic" font-size="14.00">U</text>
</g>
<!-- A&#45;&gt;U -->
<g id="edge5" class="edge">
<title>A&#45;&gt;U</title>
<path fill="none" stroke="black" d="M77.78,-217.74C85.28,-226.93 100.74,-245.87 108.63,-255.53"/>
</g>
<!-- X -->
<g id="node6" class="node">
<title>X</title>
<text text-anchor="middle" x="100.5" y="-207.8" font-family="Times,serif" font-style="italic" font-size="14.00">X</text>
</g>
<!-- X&#45;&gt;U -->
<g id="edge6" class="edge">
<title>X&#45;&gt;U</title>
<path fill="none" stroke="black" d="M102.2,-218.91C104.7,-228.35 109.36,-245.89 111.84,-255.25"/>
</g>
<!-- Y -->
<g id="node7" class="node">
<title>Y</title>
<text text-anchor="middle" x="127.5" y="-207.8" font-family="Times,serif" font-style="italic" font-size="14.00">Y</text>
</g>
<!-- Y&#45;&gt;U -->
<g id="edge7" class="edge">
<title>Y&#45;&gt;U</title>
<path fill="none" stroke="black" d="M125.67,-218.91C122.97,-228.35 117.96,-245.89 115.29,-255.25"/>
</g>
<!-- Z -->
<g id="node8" class="node">
<title>Z</title>
<text text-anchor="middle" x="153.5" y="-207.8" font-family="Times,serif" font-style="italic" font-size="14.00">Z</text>
</g>
<!-- Z&#45;&gt;U -->
<g id="edge8" class="edge">
<title>Z&#45;&gt;U</title>
<path fill="none" stroke="black" d="M149.52,-217.38C142.17,-226.38 126.48,-245.59 118.46,-255.43"/>
</g>
<!-- I\\J -->
<g id="node10" class="node">
<title>I\\J</title>
<text text-anchor="middle" x="78.5" y="-3.8" font-family="Times,serif" font-style="italic" font-size="14.00">I\J</text>
</g>
<!-- G\\J -->
<g id="node13" class="node">
<title>G\\J</title>
<text text-anchor="middle" x="35.5" y="-54.8" font-family="Times,serif" font-style="italic" font-size="14.00">G\J</text>
</g>
<!-- I\\J&#45;&gt;G\\J -->
<g id="edge9" class="edge">
<title>I\\J&#45;&gt;G\\J</title>
<path fill="none" stroke="black" d="M72.88,-14.91C64.59,-24.35 49.2,-41.89 40.99,-51.25"/>
</g>
<!-- F\\J -->
<g id="node14" class="node">
<title>F\\J</title>
<text text-anchor="middle" x="127.5" y="-105.8" font-family="Times,serif" font-style="italic" font-size="14.00">F\J</text>
</g>
<!-- I\\J&#45;&gt;F\\J -->
<g id="edge10" class="edge">
<title>I\\J&#45;&gt;F\\J</title>
<path fill="none" stroke="black" d="M81.57,-14.76C90.36,-32.71 115.64,-84.29 124.44,-102.25"/>
</g>
<!-- H\\J -->
<g id="node11" class="node">
<title>H\\J</title>
<text text-anchor="middle" x="73.5" y="-54.8" font-family="Times,serif" font-style="italic" font-size="14.00">H\J</text>
</g>
<!-- H\\J&#45;&gt;C -->
<g id="edge11" class="edge">
<title>H\\J&#45;&gt;C</title>
<path fill="none" stroke="black" d="M67.75,-65.91C58.99,-75.66 42.47,-94.06 34.31,-103.15"/>
</g>
<!-- E\\J -->
<g id="node12" class="node">
<title>E\\J</title>
<text text-anchor="middle" x="90.5" y="-105.8" font-family="Times,serif" font-style="italic" font-size="14.00">E\J</text>
</g>
<!-- E\\J&#45;&gt;B -->
<g id="edge12" class="edge">
<title>E\\J&#45;&gt;B</title>
<path fill="none" stroke="black" d="M88.28,-116.91C85,-126.35 78.91,-143.89 75.67,-153.25"/>
</g>
<!-- G\\J&#45;&gt;C -->
<g id="edge13" class="edge">
<title>G\\J&#45;&gt;C</title>
<path fill="none" stroke="black" d="M34.72,-65.91C33.56,-75.35 31.41,-92.89 30.27,-102.25"/>
</g>
<!-- F\\J&#45;&gt;B -->
<g id="edge14" class="edge">
<title>F\\J&#45;&gt;B</title>
<path fill="none" stroke="black" d="M120.44,-116.91C109.12,-127.18 87.23,-147.04 77.89,-155.51"/>
</g>
</g>
</svg>
