<?xml version="1.0" encoding="UTF-8" standalone="no"?>
<!DOCTYPE svg PUBLIC "-//W3C//DTD SVG 1.1//EN"
 "http://www.w3.org/Graphics/SVG/1.1/DTD/svg11.dtd">
<!-- Generated by graphviz version 7.0.6 (20230106.0513)
 -->
<!-- Title: BundleClosure__Taxonomy Pages: 1 -->
<svg width="146pt" height="125pt"
 viewBox="0.00 0.00 146.00 125.00" xmlns="http://www.w3.org/2000/svg" xmlns:xlink="http://www.w3.org/1999/xlink">
<g id="graph0" class="graph" transform="scale(1 1) rotate(0) translate(4 121)">
<title>BundleClosure__Taxonomy</title>
<polygon fill="white" stroke="none" points="-4,4 -4,-121 142,-121 142,4 -4,4"/>
<!-- C -->
<g id="node1" class="node">
<title>C</title>
<text text-anchor="middle" x="35.5" y="-54.8" font-family="Times,serif" font-size="14.00">C</text>
</g>
<!-- B -->
<g id="node4" class="node">
<title>B</title>
<text text-anchor="middle" x="68.5" y="-105.8" font-family="Times,serif" font-size="14.00">B</text>
</g>
<!-- C&#45;&gt;B -->
<g id="edge1" class="edge">
<title>C&#45;&gt;B</title>
<path fill="none" stroke="black" d="M39.81,-65.91C46.17,-75.35 57.99,-92.89 64.29,-102.25"/>
</g>
<!-- I\\J -->
<g id="node2" class="node">
<title>I\\J</title>
<text text-anchor="middle" x="68.5" y="-3.8" font-family="Times,serif" font-size="14.00">I\J</text>
</g>
<!-- I\\J&#45;&gt;C -->
<g id="edge2" class="edge">
<title>I\\J&#45;&gt;C</title>
<path fill="none" stroke="black" d="M64.19,-14.91C57.83,-24.35 46.01,-41.89 39.71,-51.25"/>
</g>
<!-- I\\J&#45;&gt;B -->
<g id="edge3" class="edge">
<title>I\\J&#45;&gt;B</title>
<path fill="none" stroke="black" d="M68.5,-14.76C68.5,-32.71 68.5,-84.29 68.5,-102.25"/>
</g>
<!-- G\\(J∪I) -->
<g id="node3" class="node">
<title>G\\(J∪I)</title>
<text text-anchor="middle" x="21.5" y="-3.8" font-family="Times,serif" font-size="14.00">G\(J∪I)</text>
</g>
<!-- G\\(J∪I)&#45;&gt;C -->
<g id="edge4" class="edge">
<title>G\\(J∪I)&#45;&gt;C</title>
<path fill="none" stroke="black" d="M23.33,-14.91C26.03,-24.35 31.04,-41.89 33.71,-51.25"/>
</g>
<!-- F\\(J∪I) -->
<g id="node5" class="node">
<title>F\\(J∪I)</title>
<text text-anchor="middle" x="117.5" y="-54.8" font-family="Times,serif" font-size="14.00">F\(J∪I)</text>
</g>
<!-- F\\(J∪I)&#45;&gt;B -->
<g id="edge5" class="edge">
<title>F\\(J∪I)&#45;&gt;B</title>
<path fill="none" stroke="black" d="M111.09,-65.91C101.13,-75.87 82.15,-94.85 73.29,-103.71"/>
</g>
</g>
</svg>
