<?xml version="1.0" encoding="UTF-8" standalone="no"?>
<!DOCTYPE svg PUBLIC "-//W3C//DTD SVG 1.1//EN"
 "http://www.w3.org/Graphics/SVG/1.1/DTD/svg11.dtd">
<!-- Generated by graphviz version 7.0.6 (20230106.0513)
 -->
<!-- Title: BundleClosure__Taxonomy Pages: 1 -->
<svg width="106pt" height="227pt"
 viewBox="0.00 0.00 105.50 227.00" xmlns="http://www.w3.org/2000/svg" xmlns:xlink="http://www.w3.org/1999/xlink">
<g id="graph0" class="graph" transform="scale(1 1) rotate(0) translate(4 223)">
<title>BundleClosure__Taxonomy</title>
<polygon fill="white" stroke="none" points="-4,4 -4,-223 101.5,-223 101.5,4 -4,4"/>
<!-- I -->
<g id="node1" class="node">
<title>I</title>
<text text-anchor="middle" x="31" y="-54.8" font-family="Times,serif" font-size="14.00">I</text>
</g>
<!-- G -->
<g id="node3" class="node">
<title>G</title>
<text text-anchor="middle" x="31" y="-105.8" font-family="Times,serif" font-size="14.00">G</text>
</g>
<!-- I&#45;&gt;G -->
<g id="edge1" class="edge">
<title>I&#45;&gt;G</title>
<path fill="none" stroke="black" d="M31,-65.91C31,-75.35 31,-92.89 31,-102.25"/>
</g>
<!-- F -->
<g id="node7" class="node">
<title>F</title>
<text text-anchor="middle" x="4" y="-105.8" font-family="Times,serif" font-size="14.00">F</text>
</g>
<!-- I&#45;&gt;F -->
<g id="edge2" class="edge">
<title>I&#45;&gt;F</title>
<path fill="none" stroke="black" d="M28.51,-64.02C23.65,-72.84 12.91,-92.32 7.41,-102.32"/>
</g>
<!-- J -->
<g id="node2" class="node">
<title>J</title>
<text text-anchor="middle" x="64" y="-3.8" font-family="Times,serif" font-size="14.00">J</text>
</g>
<!-- J&#45;&gt;I -->
<g id="edge3" class="edge">
<title>J&#45;&gt;I</title>
<path fill="none" stroke="black" d="M61.19,-12.68C54.83,-22.12 39.43,-44.98 33.44,-53.87"/>
</g>
<!-- H -->
<g id="node4" class="node">
<title>H</title>
<text text-anchor="middle" x="64" y="-54.8" font-family="Times,serif" font-size="14.00">H</text>
</g>
<!-- J&#45;&gt;H -->
<g id="edge4" class="edge">
<title>J&#45;&gt;H</title>
<path fill="none" stroke="black" d="M64,-14.91C64,-24.35 64,-41.89 64,-51.25"/>
</g>
<!-- E -->
<g id="node6" class="node">
<title>E</title>
<text text-anchor="middle" x="93" y="-156.8" font-family="Times,serif" font-size="14.00">E</text>
</g>
<!-- J&#45;&gt;E -->
<g id="edge5" class="edge">
<title>J&#45;&gt;E</title>
<path fill="none" stroke="black" d="M66.45,-14.73C69.58,-22.93 74.95,-37.83 78,-51 86.85,-89.16 91.17,-136.16 92.52,-153.07"/>
</g>
<!-- C -->
<g id="node5" class="node">
<title>C</title>
<text text-anchor="middle" x="57" y="-156.8" font-family="Times,serif" font-size="14.00">C</text>
</g>
<!-- G&#45;&gt;C -->
<g id="edge6" class="edge">
<title>G&#45;&gt;C</title>
<path fill="none" stroke="black" d="M34.4,-116.91C39.41,-126.35 48.72,-143.89 53.68,-153.25"/>
</g>
<!-- H&#45;&gt;C -->
<g id="edge7" class="edge">
<title>H&#45;&gt;C</title>
<path fill="none" stroke="black" d="M63.56,-65.76C62.31,-83.71 58.69,-135.29 57.44,-153.25"/>
</g>
<!-- B -->
<g id="node8" class="node">
<title>B</title>
<text text-anchor="middle" x="57" y="-207.8" font-family="Times,serif" font-size="14.00">B</text>
</g>
<!-- C&#45;&gt;B -->
<g id="edge8" class="edge">
<title>C&#45;&gt;B</title>
<path fill="none" stroke="black" d="M57,-167.91C57,-177.35 57,-194.89 57,-204.25"/>
</g>
<!-- E&#45;&gt;B -->
<g id="edge9" class="edge">
<title>E&#45;&gt;B</title>
<path fill="none" stroke="black" d="M88.59,-167.51C81.75,-176.81 68.67,-194.62 61.68,-204.13"/>
</g>
<!-- F&#45;&gt;B -->
<g id="edge10" class="edge">
<title>F&#45;&gt;B</title>
<path fill="none" stroke="black" d="M7.32,-116.76C16.83,-134.71 44.17,-186.29 53.69,-204.25"/>
</g>
</g>
</svg>
