<?xml version="1.0" encoding="UTF-8" standalone="no"?>
<!DOCTYPE svg PUBLIC "-//W3C//DTD SVG 1.1//EN"
 "http://www.w3.org/Graphics/SVG/1.1/DTD/svg11.dtd">
<!-- Generated by graphviz version 7.0.6 (20230106.0513)
 -->
<!-- Title: BundleClosure__Taxonomy Pages: 1 -->
<svg width="86pt" height="176pt"
 viewBox="0.00 0.00 86.00 176.00" xmlns="http://www.w3.org/2000/svg" xmlns:xlink="http://www.w3.org/1999/xlink">
<g id="graph0" class="graph" transform="scale(1 1) rotate(0) translate(4 172)">
<title>BundleClosure__Taxonomy</title>
<polygon fill="white" stroke="none" points="-4,4 -4,-172 82,-172 82,4 -4,4"/>
<!-- G -->
<g id="node1" class="node">
<title>G</title>
<text text-anchor="middle" x="31" y="-54.8" font-family="Times,serif" font-size="14.00">G</text>
</g>
<!-- C -->
<g id="node4" class="node">
<title>C</title>
<text text-anchor="middle" x="37" y="-105.8" font-family="Times,serif" font-size="14.00">C</text>
</g>
<!-- G&#45;&gt;C -->
<g id="edge1" class="edge">
<title>G&#45;&gt;C</title>
<path fill="none" stroke="black" d="M31.78,-65.91C32.94,-75.35 35.09,-92.89 36.23,-102.25"/>
</g>
<!-- J -->
<g id="node2" class="node">
<title>J</title>
<text text-anchor="middle" x="4" y="-3.8" font-family="Times,serif" font-size="14.00">J</text>
</g>
<!-- J&#45;&gt;G -->
<g id="edge2" class="edge">
<title>J&#45;&gt;G</title>
<path fill="none" stroke="black" d="M6.89,-13.74C11.9,-22.83 22.16,-41.46 27.54,-51.22"/>
</g>
<!-- F -->
<g id="node6" class="node">
<title>F</title>
<text text-anchor="middle" x="4" y="-54.8" font-family="Times,serif" font-size="14.00">F</text>
</g>
<!-- J&#45;&gt;F -->
<g id="edge3" class="edge">
<title>J&#45;&gt;F</title>
<path fill="none" stroke="black" d="M4,-14.91C4,-24.35 4,-41.89 4,-51.25"/>
</g>
<!-- I\\J -->
<g id="node3" class="node">
<title>I\\J</title>
<text text-anchor="middle" x="32" y="-3.8" font-family="Times,serif" font-size="14.00">I\J</text>
</g>
<!-- I\\J&#45;&gt;G -->
<g id="edge4" class="edge">
<title>I\\J&#45;&gt;G</title>
<path fill="none" stroke="black" d="M31.87,-14.91C31.68,-24.35 31.32,-41.89 31.13,-51.25"/>
</g>
<!-- I\\J&#45;&gt;F -->
<g id="edge5" class="edge">
<title>I\\J&#45;&gt;F</title>
<path fill="none" stroke="black" d="M28.34,-14.91C22.94,-24.35 12.92,-41.89 7.57,-51.25"/>
</g>
<!-- B -->
<g id="node7" class="node">
<title>B</title>
<text text-anchor="middle" x="37" y="-156.8" font-family="Times,serif" font-size="14.00">B</text>
</g>
<!-- C&#45;&gt;B -->
<g id="edge6" class="edge">
<title>C&#45;&gt;B</title>
<path fill="none" stroke="black" d="M37,-116.91C37,-126.35 37,-143.89 37,-153.25"/>
</g>
<!-- H\\J -->
<g id="node5" class="node">
<title>H\\J</title>
<text text-anchor="middle" x="64" y="-54.8" font-family="Times,serif" font-size="14.00">H\J</text>
</g>
<!-- H\\J&#45;&gt;C -->
<g id="edge7" class="edge">
<title>H\\J&#45;&gt;C</title>
<path fill="none" stroke="black" d="M60.47,-65.91C55.27,-75.35 45.6,-92.89 40.45,-102.25"/>
</g>
<!-- F&#45;&gt;B -->
<g id="edge8" class="edge">
<title>F&#45;&gt;B</title>
<path fill="none" stroke="black" d="M6.06,-65.76C11.99,-83.71 29.01,-135.29 34.94,-153.25"/>
</g>
<!-- E\\J -->
<g id="node8" class="node">
<title>E\\J</title>
<text text-anchor="middle" x="69" y="-105.8" font-family="Times,serif" font-size="14.00">E\J</text>
</g>
<!-- E\\J&#45;&gt;B -->
<g id="edge9" class="edge">
<title>E\\J&#45;&gt;B</title>
<path fill="none" stroke="black" d="M64.82,-116.91C58.65,-126.35 47.19,-143.89 41.08,-153.25"/>
</g>
</g>
</svg>
