<?xml version="1.0" encoding="UTF-8" standalone="no"?>
<!DOCTYPE svg PUBLIC "-//W3C//DTD SVG 1.1//EN"
 "http://www.w3.org/Graphics/SVG/1.1/DTD/svg11.dtd">
<!-- Generated by graphviz version 7.0.6 (20230106.0513)
 -->
<!-- Title: BundleClosure__Taxonomy Pages: 1 -->
<svg width="150pt" height="278pt"
 viewBox="0.00 0.00 150.00 278.00" xmlns="http://www.w3.org/2000/svg" xmlns:xlink="http://www.w3.org/1999/xlink">
<g id="graph0" class="graph" transform="scale(1 1) rotate(0) translate(4 274)">
<title>BundleClosure__Taxonomy</title>
<polygon fill="white" stroke="none" points="-4,4 -4,-274 146,-274 146,4 -4,4"/>
<!-- J -->
<g id="node1" class="node">
<title>J</title>
<text text-anchor="middle" x="42.5" y="-3.8" font-family="Times,serif" font-size="14.00">J</text>
</g>
<!-- G -->
<g id="node2" class="node">
<title>G</title>
<text text-anchor="middle" x="42.5" y="-54.8" font-family="Times,serif" font-size="14.00">G</text>
</g>
<!-- J&#45;&gt;G -->
<g id="edge1" class="edge">
<title>J&#45;&gt;G</title>
<path fill="none" stroke="black" d="M42.5,-14.91C42.5,-24.35 42.5,-41.89 42.5,-51.25"/>
</g>
<!-- F -->
<g id="node5" class="node">
<title>F</title>
<text text-anchor="middle" x="70.5" y="-54.8" font-family="Times,serif" font-size="14.00">F</text>
</g>
<!-- J&#45;&gt;F -->
<g id="edge2" class="edge">
<title>J&#45;&gt;F</title>
<path fill="none" stroke="black" d="M45.5,-13.74C50.69,-22.83 61.33,-41.46 66.91,-51.22"/>
</g>
<!-- C -->
<g id="node3" class="node">
<title>C</title>
<text text-anchor="middle" x="9.5" y="-105.8" font-family="Times,serif" font-size="14.00">C</text>
</g>
<!-- G&#45;&gt;C -->
<g id="edge3" class="edge">
<title>G&#45;&gt;C</title>
<path fill="none" stroke="black" d="M38.19,-65.91C31.83,-75.35 20.01,-92.89 13.71,-102.25"/>
</g>
<!-- B -->
<g id="node6" class="node">
<title>B</title>
<text text-anchor="middle" x="53.5" y="-156.8" font-family="Times,serif" font-size="14.00">B</text>
</g>
<!-- C&#45;&gt;B -->
<g id="edge4" class="edge">
<title>C&#45;&gt;B</title>
<path fill="none" stroke="black" d="M14.21,-115.74C22.63,-125.13 40.2,-144.68 48.69,-154.15"/>
</g>
<!-- D -->
<g id="node4" class="node">
<title>D</title>
<text text-anchor="middle" x="37.5" y="-105.8" font-family="Times,serif" font-size="14.00">D</text>
</g>
<!-- D&#45;&gt;B -->
<g id="edge5" class="edge">
<title>D&#45;&gt;B</title>
<path fill="none" stroke="black" d="M39.59,-116.91C42.68,-126.35 48.4,-143.89 51.46,-153.25"/>
</g>
<!-- F&#45;&gt;B -->
<g id="edge6" class="edge">
<title>F&#45;&gt;B</title>
<path fill="none" stroke="black" d="M69.44,-65.76C66.38,-83.71 57.62,-135.29 54.56,-153.25"/>
</g>
<!-- A -->
<g id="node7" class="node">
<title>A</title>
<text text-anchor="middle" x="53.5" y="-207.8" font-family="Times,serif" font-size="14.00">A</text>
</g>
<!-- B&#45;&gt;A -->
<g id="edge7" class="edge">
<title>B&#45;&gt;A</title>
<path fill="none" stroke="black" d="M53.5,-167.91C53.5,-177.35 53.5,-194.89 53.5,-204.25"/>
</g>
<!-- U -->
<g id="node11" class="node">
<title>U</title>
<text text-anchor="middle" x="95.5" y="-258.8" font-family="Times,serif" font-size="14.00">U</text>
</g>
<!-- A&#45;&gt;U -->
<g id="edge8" class="edge">
<title>A&#45;&gt;U</title>
<path fill="none" stroke="black" d="M58.32,-218.12C66.42,-227.57 82.67,-246.54 90.74,-255.94"/>
</g>
<!-- X -->
<g id="node8" class="node">
<title>X</title>
<text text-anchor="middle" x="81.5" y="-207.8" font-family="Times,serif" font-size="14.00">X</text>
</g>
<!-- X&#45;&gt;U -->
<g id="edge9" class="edge">
<title>X&#45;&gt;U</title>
<path fill="none" stroke="black" d="M83.33,-218.91C86.03,-228.35 91.04,-245.89 93.71,-255.25"/>
</g>
<!-- Y -->
<g id="node9" class="node">
<title>Y</title>
<text text-anchor="middle" x="109.5" y="-207.8" font-family="Times,serif" font-size="14.00">Y</text>
</g>
<!-- Y&#45;&gt;U -->
<g id="edge10" class="edge">
<title>Y&#45;&gt;U</title>
<path fill="none" stroke="black" d="M107.67,-218.91C104.97,-228.35 99.96,-245.89 97.29,-255.25"/>
</g>
<!-- Z -->
<g id="node10" class="node">
<title>Z</title>
<text text-anchor="middle" x="137.5" y="-207.8" font-family="Times,serif" font-size="14.00">Z</text>
</g>
<!-- Z&#45;&gt;U -->
<g id="edge11" class="edge">
<title>Z&#45;&gt;U</title>
<path fill="none" stroke="black" d="M133.01,-217.74C125.05,-227.03 108.55,-246.27 100.35,-255.84"/>
</g>
<!-- I\\J -->
<g id="node12" class="node">
<title>I\\J</title>
<text text-anchor="middle" x="70.5" y="-3.8" font-family="Times,serif" font-size="14.00">I\J</text>
</g>
<!-- I\\J&#45;&gt;G -->
<g id="edge12" class="edge">
<title>I\\J&#45;&gt;G</title>
<path fill="none" stroke="black" d="M66.84,-14.91C61.44,-24.35 51.42,-41.89 46.07,-51.25"/>
</g>
<!-- I\\J&#45;&gt;F -->
<g id="edge13" class="edge">
<title>I\\J&#45;&gt;F</title>
<path fill="none" stroke="black" d="M70.5,-14.91C70.5,-24.35 70.5,-41.89 70.5,-51.25"/>
</g>
<!-- H\\J -->
<g id="node13" class="node">
<title>H\\J</title>
<text text-anchor="middle" x="9.5" y="-54.8" font-family="Times,serif" font-size="14.00">H\J</text>
</g>
<!-- H\\J&#45;&gt;C -->
<g id="edge14" class="edge">
<title>H\\J&#45;&gt;C</title>
<path fill="none" stroke="black" d="M9.5,-65.91C9.5,-75.35 9.5,-92.89 9.5,-102.25"/>
</g>
<!-- E\\J -->
<g id="node14" class="node">
<title>E\\J</title>
<text text-anchor="middle" x="107.5" y="-105.8" font-family="Times,serif" font-size="14.00">E\J</text>
</g>
<!-- E\\J&#45;&gt;B -->
<g id="edge15" class="edge">
<title>E\\J&#45;&gt;B</title>
<path fill="none" stroke="black" d="M100.44,-116.91C89.35,-126.97 68.11,-146.24 58.47,-154.99"/>
</g>
</g>
</svg>
