<?xml version="1.0" encoding="UTF-8" standalone="no"?>
<!DOCTYPE svg PUBLIC "-//W3C//DTD SVG 1.1//EN"
 "http://www.w3.org/Graphics/SVG/1.1/DTD/svg11.dtd">
<!-- Generated by graphviz version 7.0.6 (20230106.0513)
 -->
<!-- Title: BundleClosure__Taxonomy Pages: 1 -->
<svg width="147pt" height="176pt"
 viewBox="0.00 0.00 147.25 176.00" xmlns="http://www.w3.org/2000/svg" xmlns:xlink="http://www.w3.org/1999/xlink">
<g id="graph0" class="graph" transform="scale(1 1) rotate(0) translate(4 172)">
<title>BundleClosure__Taxonomy</title>
<polygon fill="white" stroke="none" points="-4,4 -4,-172 143.25,-172 143.25,4 -4,4"/>
<!-- G -->
<g id="node1" class="node">
<title>G</title>
<text text-anchor="middle" x="91.75" y="-54.8" font-family="Times,serif" font-style="italic" font-size="14.00">G</text>
</g>
<!-- C -->
<g id="node4" class="node">
<title>C</title>
<text text-anchor="middle" x="58.75" y="-105.8" font-family="Times,serif" font-style="italic" font-size="14.00">C</text>
</g>
<!-- G&#45;&gt;C -->
<g id="edge1" class="edge">
<title>G&#45;&gt;C</title>
<path fill="none" stroke="black" d="M87.44,-65.91C81.08,-75.35 69.26,-92.89 62.96,-102.25"/>
</g>
<!-- J -->
<g id="node2" class="node">
<title>J</title>
<text text-anchor="middle" x="74.75" y="-3.8" font-family="Times,serif" font-style="italic" font-size="14.00">J</text>
</g>
<!-- J&#45;&gt;G -->
<g id="edge2" class="edge">
<title>J&#45;&gt;G</title>
<path fill="none" stroke="black" d="M76.97,-14.91C80.25,-24.35 86.34,-41.89 89.58,-51.25"/>
</g>
<!-- J&#45;&gt;C -->
<g id="edge3" class="edge">
<title>J&#45;&gt;C</title>
<path fill="none" stroke="black" d="M73.75,-14.76C70.88,-32.71 62.62,-84.29 59.75,-102.25"/>
</g>
<!-- F -->
<g id="node6" class="node">
<title>F</title>
<text text-anchor="middle" x="119.75" y="-54.8" font-family="Times,serif" font-style="italic" font-size="14.00">F</text>
</g>
<!-- J&#45;&gt;F -->
<g id="edge4" class="edge">
<title>J&#45;&gt;F</title>
<path fill="none" stroke="black" d="M77.99,-12.02C85.97,-20.71 106.59,-43.17 115.52,-52.89"/>
</g>
<!-- B -->
<g id="node7" class="node">
<title>B</title>
<text text-anchor="middle" x="74.75" y="-156.8" font-family="Times,serif" font-style="italic" font-size="14.00">B</text>
</g>
<!-- J&#45;&gt;B -->
<g id="edge5" class="edge">
<title>J&#45;&gt;B</title>
<path fill="none" stroke="black" d="M71.49,-9.26C55.86,-13.11 -10.11,-31.52 1.75,-66 15.96,-107.28 56.7,-144.31 70.28,-155.82"/>
</g>
<!-- I\\J -->
<g id="node3" class="node">
<title>I\\J</title>
<text text-anchor="middle" x="105.75" y="-3.8" font-family="Times,serif" font-style="italic" font-size="14.00">I\J</text>
</g>
<!-- I\\J&#45;&gt;G -->
<g id="edge6" class="edge">
<title>I\\J&#45;&gt;G</title>
<path fill="none" stroke="black" d="M103.92,-14.91C101.22,-24.35 96.21,-41.89 93.54,-51.25"/>
</g>
<!-- I\\J&#45;&gt;F -->
<g id="edge7" class="edge">
<title>I\\J&#45;&gt;F</title>
<path fill="none" stroke="black" d="M107.58,-14.91C110.28,-24.35 115.29,-41.89 117.96,-51.25"/>
</g>
<!-- C&#45;&gt;B -->
<g id="edge8" class="edge">
<title>C&#45;&gt;B</title>
<path fill="none" stroke="black" d="M60.84,-116.91C63.92,-126.35 69.65,-143.89 72.71,-153.25"/>
</g>
<!-- H\\J -->
<g id="node5" class="node">
<title>H\\J</title>
<text text-anchor="middle" x="20.75" y="-54.8" font-family="Times,serif" font-style="italic" font-size="14.00">H\J</text>
</g>
<!-- H\\J&#45;&gt;C -->
<g id="edge9" class="edge">
<title>H\\J&#45;&gt;C</title>
<path fill="none" stroke="black" d="M25.72,-65.91C33.04,-75.35 46.65,-92.89 53.9,-102.25"/>
</g>
<!-- F&#45;&gt;B -->
<g id="edge10" class="edge">
<title>F&#45;&gt;B</title>
<path fill="none" stroke="black" d="M116.93,-65.76C108.85,-83.71 85.64,-135.29 77.56,-153.25"/>
</g>
<!-- E\\J -->
<g id="node8" class="node">
<title>E\\J</title>
<text text-anchor="middle" x="129.75" y="-105.8" font-family="Times,serif" font-style="italic" font-size="14.00">E\J</text>
</g>
<!-- E\\J&#45;&gt;B -->
<g id="edge11" class="edge">
<title>E\\J&#45;&gt;B</title>
<path fill="none" stroke="black" d="M122.56,-116.91C111.03,-127.18 88.73,-147.04 79.22,-155.51"/>
</g>
</g>
</svg>
