<?xml version="1.0" encoding="UTF-8" standalone="no"?>
<!DOCTYPE svg PUBLIC "-//W3C//DTD SVG 1.1//EN"
 "http://www.w3.org/Graphics/SVG/1.1/DTD/svg11.dtd">
<!-- Generated by graphviz version 7.0.6 (20230106.0513)
 -->
<!-- Title: BundleClosure__Taxonomy Pages: 1 -->
<svg width="146pt" height="278pt"
 viewBox="0.00 0.00 146.00 278.00" xmlns="http://www.w3.org/2000/svg" xmlns:xlink="http://www.w3.org/1999/xlink">
<g id="graph0" class="graph" transform="scale(1 1) rotate(0) translate(4 274)">
<title>BundleClosure__Taxonomy</title>
<polygon fill="white" stroke="none" points="-4,4 -4,-274 142,-274 142,4 -4,4"/>
<!-- J -->
<g id="node1" class="node">
<title>J</title>
<text text-anchor="middle" x="43" y="-3.8" font-family="Times,serif" font-style="italic" font-size="14.00">J</text>
</g>
<!-- G -->
<g id="node2" class="node">
<title>G</title>
<text text-anchor="middle" x="43" y="-54.8" font-family="Times,serif" font-style="italic" font-size="14.00">G</text>
</g>
<!-- J&#45;&gt;G -->
<g id="edge1" class="edge">
<title>J&#45;&gt;G</title>
<path fill="none" stroke="black" d="M43,-14.91C43,-24.35 43,-41.89 43,-51.25"/>
</g>
<!-- F -->
<g id="node5" class="node">
<title>F</title>
<text text-anchor="middle" x="71" y="-54.8" font-family="Times,serif" font-style="italic" font-size="14.00">F</text>
</g>
<!-- J&#45;&gt;F -->
<g id="edge2" class="edge">
<title>J&#45;&gt;F</title>
<path fill="none" stroke="black" d="M46.43,-14.51C51.75,-23.81 61.92,-41.62 67.36,-51.13"/>
</g>
<!-- C -->
<g id="node3" class="node">
<title>C</title>
<text text-anchor="middle" x="10" y="-105.8" font-family="Times,serif" font-style="italic" font-size="14.00">C</text>
</g>
<!-- G&#45;&gt;C -->
<g id="edge3" class="edge">
<title>G&#45;&gt;C</title>
<path fill="none" stroke="black" d="M38.69,-65.91C32.33,-75.35 20.51,-92.89 14.21,-102.25"/>
</g>
<!-- B -->
<g id="node6" class="node">
<title>B</title>
<text text-anchor="middle" x="54" y="-156.8" font-family="Times,serif" font-style="italic" font-size="14.00">B</text>
</g>
<!-- C&#45;&gt;B -->
<g id="edge4" class="edge">
<title>C&#45;&gt;B</title>
<path fill="none" stroke="black" d="M14.71,-115.74C23.31,-125.32 41.44,-145.51 49.72,-154.73"/>
</g>
<!-- D -->
<g id="node4" class="node">
<title>D</title>
<text text-anchor="middle" x="38" y="-105.8" font-family="Times,serif" font-style="italic" font-size="14.00">D</text>
</g>
<!-- D&#45;&gt;B -->
<g id="edge5" class="edge">
<title>D&#45;&gt;B</title>
<path fill="none" stroke="black" d="M40.09,-116.91C43.18,-126.35 48.9,-143.89 51.96,-153.25"/>
</g>
<!-- F&#45;&gt;B -->
<g id="edge6" class="edge">
<title>F&#45;&gt;B</title>
<path fill="none" stroke="black" d="M69.94,-65.76C66.88,-83.71 58.12,-135.29 55.06,-153.25"/>
</g>
<!-- A -->
<g id="node7" class="node">
<title>A</title>
<text text-anchor="middle" x="54" y="-207.8" font-family="Times,serif" font-style="italic" font-size="14.00">A</text>
</g>
<!-- B&#45;&gt;A -->
<g id="edge7" class="edge">
<title>B&#45;&gt;A</title>
<path fill="none" stroke="black" d="M54,-167.91C54,-177.35 54,-194.89 54,-204.25"/>
</g>
<!-- U -->
<g id="node11" class="node">
<title>U</title>
<text text-anchor="middle" x="94" y="-258.8" font-family="Times,serif" font-style="italic" font-size="14.00">U</text>
</g>
<!-- A&#45;&gt;U -->
<g id="edge8" class="edge">
<title>A&#45;&gt;U</title>
<path fill="none" stroke="black" d="M58.28,-217.74C65.78,-226.93 81.24,-245.87 89.13,-255.53"/>
</g>
<!-- X -->
<g id="node8" class="node">
<title>X</title>
<text text-anchor="middle" x="81" y="-207.8" font-family="Times,serif" font-style="italic" font-size="14.00">X</text>
</g>
<!-- X&#45;&gt;U -->
<g id="edge9" class="edge">
<title>X&#45;&gt;U</title>
<path fill="none" stroke="black" d="M82.7,-218.91C85.2,-228.35 89.86,-245.89 92.34,-255.25"/>
</g>
<!-- Y -->
<g id="node9" class="node">
<title>Y</title>
<text text-anchor="middle" x="108" y="-207.8" font-family="Times,serif" font-style="italic" font-size="14.00">Y</text>
</g>
<!-- Y&#45;&gt;U -->
<g id="edge10" class="edge">
<title>Y&#45;&gt;U</title>
<path fill="none" stroke="black" d="M106.17,-218.91C103.47,-228.35 98.46,-245.89 95.79,-255.25"/>
</g>
<!-- Z -->
<g id="node10" class="node">
<title>Z</title>
<text text-anchor="middle" x="134" y="-207.8" font-family="Times,serif" font-style="italic" font-size="14.00">Z</text>
</g>
<!-- Z&#45;&gt;U -->
<g id="edge11" class="edge">
<title>Z&#45;&gt;U</title>
<path fill="none" stroke="black" d="M130.02,-217.38C122.67,-226.38 106.98,-245.59 98.96,-255.43"/>
</g>
<!-- I\\J -->
<g id="node12" class="node">
<title>I\\J</title>
<text text-anchor="middle" x="72" y="-3.8" font-family="Times,serif" font-style="italic" font-size="14.00">I\J</text>
</g>
<!-- I\\J&#45;&gt;G -->
<g id="edge12" class="edge">
<title>I\\J&#45;&gt;G</title>
<path fill="none" stroke="black" d="M68.21,-14.91C62.62,-24.35 52.24,-41.89 46.7,-51.25"/>
</g>
<!-- I\\J&#45;&gt;F -->
<g id="edge13" class="edge">
<title>I\\J&#45;&gt;F</title>
<path fill="none" stroke="black" d="M71.87,-14.91C71.68,-24.35 71.32,-41.89 71.13,-51.25"/>
</g>
<!-- H\\J -->
<g id="node13" class="node">
<title>H\\J</title>
<text text-anchor="middle" x="10" y="-54.8" font-family="Times,serif" font-style="italic" font-size="14.00">H\J</text>
</g>
<!-- H\\J&#45;&gt;C -->
<g id="edge14" class="edge">
<title>H\\J&#45;&gt;C</title>
<path fill="none" stroke="black" d="M10,-65.91C10,-75.35 10,-92.89 10,-102.25"/>
</g>
<!-- E\\J -->
<g id="node14" class="node">
<title>E\\J</title>
<text text-anchor="middle" x="109" y="-105.8" font-family="Times,serif" font-style="italic" font-size="14.00">E\J</text>
</g>
<!-- E\\J&#45;&gt;B -->
<g id="edge15" class="edge">
<title>E\\J&#45;&gt;B</title>
<path fill="none" stroke="black" d="M101.81,-116.91C90.28,-127.18 67.98,-147.04 58.47,-155.51"/>
</g>
</g>
</svg>
