<?xml version="1.0" encoding="UTF-8" standalone="no"?>
<!DOCTYPE svg PUBLIC "-//W3C//DTD SVG 1.1//EN"
 "http://www.w3.org/Graphics/SVG/1.1/DTD/svg11.dtd">
<!-- Generated by graphviz version 7.0.6 (20230106.0513)
 -->
<!-- Title: BundleClosure__Taxonomy Pages: 1 -->
<svg width="150pt" height="125pt"
 viewBox="0.00 0.00 149.50 125.00" xmlns="http://www.w3.org/2000/svg" xmlns:xlink="http://www.w3.org/1999/xlink">
<g id="graph0" class="graph" transform="scale(1 1) rotate(0) translate(4 121)">
<title>BundleClosure__Taxonomy</title>
<polygon fill="white" stroke="none" points="-4,4 -4,-121 145.5,-121 145.5,4 -4,4"/>
<!-- C -->
<g id="node1" class="node">
<title>C</title>
<text text-anchor="middle" x="37" y="-54.8" font-family="Times,serif" font-style="italic" font-size="14.00">C</text>
</g>
<!-- B -->
<g id="node4" class="node">
<title>B</title>
<text text-anchor="middle" x="70" y="-105.8" font-family="Times,serif" font-style="italic" font-size="14.00">B</text>
</g>
<!-- C&#45;&gt;B -->
<g id="edge1" class="edge">
<title>C&#45;&gt;B</title>
<path fill="none" stroke="black" d="M41.31,-65.91C47.67,-75.35 59.49,-92.89 65.79,-102.25"/>
</g>
<!-- I\\J -->
<g id="node2" class="node">
<title>I\\J</title>
<text text-anchor="middle" x="70" y="-3.8" font-family="Times,serif" font-style="italic" font-size="14.00">I\J</text>
</g>
<!-- I\\J&#45;&gt;C -->
<g id="edge2" class="edge">
<title>I\\J&#45;&gt;C</title>
<path fill="none" stroke="black" d="M65.69,-14.91C59.33,-24.35 47.51,-41.89 41.21,-51.25"/>
</g>
<!-- I\\J&#45;&gt;B -->
<g id="edge3" class="edge">
<title>I\\J&#45;&gt;B</title>
<path fill="none" stroke="black" d="M70,-14.76C70,-32.71 70,-84.29 70,-102.25"/>
</g>
<!-- G\\(J∪I) -->
<g id="node3" class="node">
<title>G\\(J∪I)</title>
<text text-anchor="middle" x="22" y="-3.8" font-family="Times,serif" font-style="italic" font-size="14.00">G\(J∪I)</text>
</g>
<!-- G\\(J∪I)&#45;&gt;C -->
<g id="edge4" class="edge">
<title>G\\(J∪I)&#45;&gt;C</title>
<path fill="none" stroke="black" d="M23.96,-14.91C26.85,-24.35 32.22,-41.89 35.09,-51.25"/>
</g>
<!-- F\\(J∪I) -->
<g id="node5" class="node">
<title>F\\(J∪I)</title>
<text text-anchor="middle" x="120" y="-54.8" font-family="Times,serif" font-style="italic" font-size="14.00">F\(J∪I)</text>
</g>
<!-- F\\(J∪I)&#45;&gt;B -->
<g id="edge5" class="edge">
<title>F\\(J∪I)&#45;&gt;B</title>
<path fill="none" stroke="black" d="M113.46,-65.91C103.09,-76.07 83.12,-95.64 74.33,-104.25"/>
</g>
</g>
</svg>
