<?xml version="1.0" encoding="UTF-8" standalone="no"?>
<!DOCTYPE svg PUBLIC "-//W3C//DTD SVG 1.1//EN"
 "http://www.w3.org/Graphics/SVG/1.1/DTD/svg11.dtd">
<!-- Generated by graphviz version 7.0.6 (20230106.0513)
 -->
<!-- Title: BundleClosure__Taxonomy Pages: 1 -->
<svg width="189pt" height="227pt"
 viewBox="0.00 0.00 188.50 227.00" xmlns="http://www.w3.org/2000/svg" xmlns:xlink="http://www.w3.org/1999/xlink">
<g id="graph0" class="graph" transform="scale(1 1) rotate(0) translate(4 223)">
<title>BundleClosure__Taxonomy</title>
<polygon fill="white" stroke="none" points="-4,4 -4,-223 184.5,-223 184.5,4 -4,4"/>
<!-- J -->
<g id="node1" class="node">
<title>J</title>
<text text-anchor="middle" x="3" y="-3.8" font-family="Times,serif" font-size="14.00">J</text>
</g>
<!-- C -->
<g id="node2" class="node">
<title>C</title>
<text text-anchor="middle" x="48" y="-54.8" font-family="Times,serif" font-size="14.00">C</text>
</g>
<!-- J&#45;&gt;C -->
<g id="edge1" class="edge">
<title>J&#45;&gt;C</title>
<path fill="none" stroke="black" d="M5.95,-11.72C13.54,-19.98 33.77,-42.01 43.13,-52.2"/>
</g>
<!-- B -->
<g id="node4" class="node">
<title>B</title>
<text text-anchor="middle" x="92" y="-105.8" font-family="Times,serif" font-size="14.00">B</text>
</g>
<!-- C&#45;&gt;B -->
<g id="edge2" class="edge">
<title>C&#45;&gt;B</title>
<path fill="none" stroke="black" d="M52.71,-64.74C61.13,-74.13 78.7,-93.68 87.19,-103.15"/>
</g>
<!-- D -->
<g id="node3" class="node">
<title>D</title>
<text text-anchor="middle" x="76" y="-54.8" font-family="Times,serif" font-size="14.00">D</text>
</g>
<!-- D&#45;&gt;B -->
<g id="edge3" class="edge">
<title>D&#45;&gt;B</title>
<path fill="none" stroke="black" d="M78.09,-65.91C81.18,-75.35 86.9,-92.89 89.96,-102.25"/>
</g>
<!-- A -->
<g id="node5" class="node">
<title>A</title>
<text text-anchor="middle" x="92" y="-156.8" font-family="Times,serif" font-size="14.00">A</text>
</g>
<!-- B&#45;&gt;A -->
<g id="edge4" class="edge">
<title>B&#45;&gt;A</title>
<path fill="none" stroke="black" d="M92,-116.91C92,-126.35 92,-143.89 92,-153.25"/>
</g>
<!-- U -->
<g id="node9" class="node">
<title>U</title>
<text text-anchor="middle" x="134" y="-207.8" font-family="Times,serif" font-size="14.00">U</text>
</g>
<!-- A&#45;&gt;U -->
<g id="edge5" class="edge">
<title>A&#45;&gt;U</title>
<path fill="none" stroke="black" d="M96.82,-167.12C104.92,-176.57 121.17,-195.54 129.24,-204.94"/>
</g>
<!-- X -->
<g id="node6" class="node">
<title>X</title>
<text text-anchor="middle" x="120" y="-156.8" font-family="Times,serif" font-size="14.00">X</text>
</g>
<!-- X&#45;&gt;U -->
<g id="edge6" class="edge">
<title>X&#45;&gt;U</title>
<path fill="none" stroke="black" d="M121.83,-167.91C124.53,-177.35 129.54,-194.89 132.21,-204.25"/>
</g>
<!-- Y -->
<g id="node7" class="node">
<title>Y</title>
<text text-anchor="middle" x="148" y="-156.8" font-family="Times,serif" font-size="14.00">Y</text>
</g>
<!-- Y&#45;&gt;U -->
<g id="edge7" class="edge">
<title>Y&#45;&gt;U</title>
<path fill="none" stroke="black" d="M146.17,-167.91C143.47,-177.35 138.46,-194.89 135.79,-204.25"/>
</g>
<!-- Z -->
<g id="node8" class="node">
<title>Z</title>
<text text-anchor="middle" x="176" y="-156.8" font-family="Times,serif" font-size="14.00">Z</text>
</g>
<!-- Z&#45;&gt;U -->
<g id="edge8" class="edge">
<title>Z&#45;&gt;U</title>
<path fill="none" stroke="black" d="M171.51,-166.74C163.55,-176.03 147.05,-195.27 138.85,-204.84"/>
</g>
<!-- I\\J -->
<g id="node10" class="node">
<title>I\\J</title>
<text text-anchor="middle" x="31" y="-3.8" font-family="Times,serif" font-size="14.00">I\J</text>
</g>
<!-- I\\J&#45;&gt;C -->
<g id="edge9" class="edge">
<title>I\\J&#45;&gt;C</title>
<path fill="none" stroke="black" d="M33.22,-14.91C36.5,-24.35 42.59,-41.89 45.83,-51.25"/>
</g>
<!-- H\\J -->
<g id="node11" class="node">
<title>H\\J</title>
<text text-anchor="middle" x="66" y="-3.8" font-family="Times,serif" font-size="14.00">H\J</text>
</g>
<!-- H\\J&#45;&gt;C -->
<g id="edge10" class="edge">
<title>H\\J&#45;&gt;C</title>
<path fill="none" stroke="black" d="M63.65,-14.91C60.18,-24.35 53.73,-41.89 50.3,-51.25"/>
</g>
<!-- E\\J -->
<g id="node12" class="node">
<title>E\\J</title>
<text text-anchor="middle" x="108" y="-54.8" font-family="Times,serif" font-size="14.00">E\J</text>
</g>
<!-- E\\J&#45;&gt;B -->
<g id="edge11" class="edge">
<title>E\\J&#45;&gt;B</title>
<path fill="none" stroke="black" d="M105.91,-65.91C102.82,-75.35 97.1,-92.89 94.04,-102.25"/>
</g>
<!-- G\\(J∪I) -->
<g id="node13" class="node">
<title>G\\(J∪I)</title>
<text text-anchor="middle" x="115" y="-3.8" font-family="Times,serif" font-size="14.00">G\(J∪I)</text>
</g>
<!-- G\\(J∪I)&#45;&gt;C -->
<g id="edge12" class="edge">
<title>G\\(J∪I)&#45;&gt;C</title>
<path fill="none" stroke="black" d="M106.24,-14.91C91.91,-25.39 63.93,-45.85 52.77,-54.01"/>
</g>
<!-- F\\(J∪I) -->
<g id="node14" class="node">
<title>F\\(J∪I)</title>
<text text-anchor="middle" x="156" y="-54.8" font-family="Times,serif" font-size="14.00">F\(J∪I)</text>
</g>
<!-- F\\(J∪I)&#45;&gt;B -->
<g id="edge13" class="edge">
<title>F\\(J∪I)&#45;&gt;B</title>
<path fill="none" stroke="black" d="M147.63,-65.91C134.08,-76.28 107.75,-96.44 96.88,-104.77"/>
</g>
</g>
</svg>
