<?xml version="1.0" encoding="UTF-8" standalone="no"?>
<!DOCTYPE svg PUBLIC "-//W3C//DTD SVG 1.1//EN"
 "http://www.w3.org/Graphics/SVG/1.1/DTD/svg11.dtd">
<!-- Generated by graphviz version 7.0.6 (20230106.0513)
 -->
<!-- Title: BundleClosure__Taxonomy Pages: 1 -->
<svg width="107pt" height="227pt"
 viewBox="0.00 0.00 107.00 227.00" xmlns="http://www.w3.org/2000/svg" xmlns:xlink="http://www.w3.org/1999/xlink">
<g id="graph0" class="graph" transform="scale(1 1) rotate(0) translate(4 223)">
<title>BundleClosure__Taxonomy</title>
<polygon fill="white" stroke="none" points="-4,4 -4,-223 103,-223 103,4 -4,4"/>
<!-- I -->
<g id="node1" class="node">
<title>I</title>
<text text-anchor="middle" x="32.5" y="-54.8" font-family="Times,serif" font-style="italic" font-size="14.00">I</text>
</g>
<!-- G -->
<g id="node3" class="node">
<title>G</title>
<text text-anchor="middle" x="32.5" y="-105.8" font-family="Times,serif" font-style="italic" font-size="14.00">G</text>
</g>
<!-- I&#45;&gt;G -->
<g id="edge1" class="edge">
<title>I&#45;&gt;G</title>
<path fill="none" stroke="black" d="M32.5,-65.91C32.5,-75.35 32.5,-92.89 32.5,-102.25"/>
</g>
<!-- F -->
<g id="node7" class="node">
<title>F</title>
<text text-anchor="middle" x="4.5" y="-105.8" font-family="Times,serif" font-style="italic" font-size="14.00">F</text>
</g>
<!-- I&#45;&gt;F -->
<g id="edge2" class="edge">
<title>I&#45;&gt;F</title>
<path fill="none" stroke="black" d="M30.11,-63.68C25.19,-72.29 13.9,-92.05 8.09,-102.21"/>
</g>
<!-- J -->
<g id="node2" class="node">
<title>J</title>
<text text-anchor="middle" x="65.5" y="-3.8" font-family="Times,serif" font-style="italic" font-size="14.00">J</text>
</g>
<!-- J&#45;&gt;I -->
<g id="edge3" class="edge">
<title>J&#45;&gt;I</title>
<path fill="none" stroke="black" d="M62.22,-13.38C55.56,-23.25 40.64,-45.41 34.86,-54"/>
</g>
<!-- H -->
<g id="node4" class="node">
<title>H</title>
<text text-anchor="middle" x="65.5" y="-54.8" font-family="Times,serif" font-style="italic" font-size="14.00">H</text>
</g>
<!-- J&#45;&gt;H -->
<g id="edge4" class="edge">
<title>J&#45;&gt;H</title>
<path fill="none" stroke="black" d="M65.5,-14.91C65.5,-24.35 65.5,-41.89 65.5,-51.25"/>
</g>
<!-- E -->
<g id="node6" class="node">
<title>E</title>
<text text-anchor="middle" x="94.5" y="-156.8" font-family="Times,serif" font-style="italic" font-size="14.00">E</text>
</g>
<!-- J&#45;&gt;E -->
<g id="edge5" class="edge">
<title>J&#45;&gt;E</title>
<path fill="none" stroke="black" d="M67.95,-14.73C71.08,-22.93 76.45,-37.83 79.5,-51 88.35,-89.16 92.67,-136.16 94.02,-153.07"/>
</g>
<!-- C -->
<g id="node5" class="node">
<title>C</title>
<text text-anchor="middle" x="58.5" y="-156.8" font-family="Times,serif" font-style="italic" font-size="14.00">C</text>
</g>
<!-- G&#45;&gt;C -->
<g id="edge6" class="edge">
<title>G&#45;&gt;C</title>
<path fill="none" stroke="black" d="M35.9,-116.91C40.91,-126.35 50.22,-143.89 55.18,-153.25"/>
</g>
<!-- H&#45;&gt;C -->
<g id="edge7" class="edge">
<title>H&#45;&gt;C</title>
<path fill="none" stroke="black" d="M65.06,-65.76C63.81,-83.71 60.19,-135.29 58.94,-153.25"/>
</g>
<!-- B -->
<g id="node8" class="node">
<title>B</title>
<text text-anchor="middle" x="58.5" y="-207.8" font-family="Times,serif" font-style="italic" font-size="14.00">B</text>
</g>
<!-- C&#45;&gt;B -->
<g id="edge8" class="edge">
<title>C&#45;&gt;B</title>
<path fill="none" stroke="black" d="M58.5,-167.91C58.5,-177.35 58.5,-194.89 58.5,-204.25"/>
</g>
<!-- E&#45;&gt;B -->
<g id="edge9" class="edge">
<title>E&#45;&gt;B</title>
<path fill="none" stroke="black" d="M90.09,-167.51C83.18,-176.91 69.88,-195.01 62.95,-204.44"/>
</g>
<!-- F&#45;&gt;B -->
<g id="edge10" class="edge">
<title>F&#45;&gt;B</title>
<path fill="none" stroke="black" d="M7.88,-116.76C17.58,-134.71 45.43,-186.29 55.12,-204.25"/>
</g>
</g>
</svg>
