<?xml version="1.0" encoding="UTF-8" standalone="no"?>
<!DOCTYPE svg PUBLIC "-//W3C//DTD SVG 1.1//EN"
 "http://www.w3.org/Graphics/SVG/1.1/DTD/svg11.dtd">
<!-- Generated by graphviz version 7.0.6 (20230106.0513)
 -->
<!-- Title: BundleClosure__Taxonomy Pages: 1 -->
<svg width="62pt" height="176pt"
 viewBox="0.00 0.00 62.00 176.00" xmlns="http://www.w3.org/2000/svg" xmlns:xlink="http://www.w3.org/1999/xlink">
<g id="graph0" class="graph" transform="scale(1 1) rotate(0) translate(4 172)">
<title>BundleClosure__Taxonomy</title>
<polygon fill="white" stroke="none" points="-4,4 -4,-172 58,-172 58,4 -4,4"/>
<!-- C -->
<g id="node1" class="node">
<title>C</title>
<text text-anchor="middle" x="12.5" y="-105.8" font-family="Times,serif" font-size="14.00">C</text>
</g>
<!-- B -->
<g id="node3" class="node">
<title>B</title>
<text text-anchor="middle" x="28.5" y="-156.8" font-family="Times,serif" font-size="14.00">B</text>
</g>
<!-- C&#45;&gt;B -->
<g id="edge1" class="edge">
<title>C&#45;&gt;B</title>
<path fill="none" stroke="black" d="M14.59,-116.91C17.68,-126.35 23.4,-143.89 26.46,-153.25"/>
</g>
<!-- G\\J -->
<g id="node2" class="node">
<title>G\\J</title>
<text text-anchor="middle" x="9.5" y="-54.8" font-family="Times,serif" font-size="14.00">G\J</text>
</g>
<!-- G\\J&#45;&gt;C -->
<g id="edge2" class="edge">
<title>G\\J&#45;&gt;C</title>
<path fill="none" stroke="black" d="M9.89,-65.91C10.47,-75.35 11.54,-92.89 12.12,-102.25"/>
</g>
<!-- F\\J -->
<g id="node4" class="node">
<title>F\\J</title>
<text text-anchor="middle" x="45.5" y="-105.8" font-family="Times,serif" font-size="14.00">F\J</text>
</g>
<!-- F\\J&#45;&gt;B -->
<g id="edge3" class="edge">
<title>F\\J&#45;&gt;B</title>
<path fill="none" stroke="black" d="M43.28,-116.91C40,-126.35 33.91,-143.89 30.67,-153.25"/>
</g>
<!-- I\\J -->
<g id="node5" class="node">
<title>I\\J</title>
<text text-anchor="middle" x="28.5" y="-3.8" font-family="Times,serif" font-size="14.00">I\J</text>
</g>
<!-- I\\J&#45;&gt;G\\J -->
<g id="edge4" class="edge">
<title>I\\J&#45;&gt;G\\J</title>
<path fill="none" stroke="black" d="M26.02,-14.91C22.35,-24.35 15.55,-41.89 11.92,-51.25"/>
</g>
<!-- I\\J&#45;&gt;F\\J -->
<g id="edge5" class="edge">
<title>I\\J&#45;&gt;F\\J</title>
<path fill="none" stroke="black" d="M29.56,-14.76C32.62,-32.71 41.38,-84.29 44.44,-102.25"/>
</g>
</g>
</svg>
