<?xml version="1.0" encoding="UTF-8" standalone="no"?>
<!DOCTYPE svg PUBLIC "-//W3C//DTD SVG 1.1//EN"
 "http://www.w3.org/Graphics/SVG/1.1/DTD/svg11.dtd">
<!-- Generated by graphviz version 7.0.6 (20230106.0513)
 -->
<!-- Title: BundleClosure__Taxonomy Pages: 1 -->
<svg width="99pt" height="125pt"
 viewBox="0.00 0.00 98.50 125.00" xmlns="http://www.w3.org/2000/svg" xmlns:xlink="http://www.w3.org/1999/xlink">
<g id="graph0" class="graph" transform="scale(1 1) rotate(0) translate(4 121)">
<title>BundleClosure__Taxonomy</title>
<polygon fill="white" stroke="none" points="-4,4 -4,-121 94.5,-121 94.5,4 -4,4"/>
<!-- C -->
<g id="node1" class="node">
<title>C</title>
<text text-anchor="middle" x="10" y="-54.8" font-family="Times,serif" font-style="italic" font-size="14.00">C</text>
</g>
<!-- B -->
<g id="node4" class="node">
<title>B</title>
<text text-anchor="middle" x="43" y="-105.8" font-family="Times,serif" font-style="italic" font-size="14.00">B</text>
</g>
<!-- C&#45;&gt;B -->
<g id="edge1" class="edge">
<title>C&#45;&gt;B</title>
<path fill="none" stroke="black" d="M14.31,-65.91C20.67,-75.35 32.49,-92.89 38.79,-102.25"/>
</g>
<!-- J -->
<g id="node2" class="node">
<title>J</title>
<text text-anchor="middle" x="42" y="-3.8" font-family="Times,serif" font-style="italic" font-size="14.00">J</text>
</g>
<!-- J&#45;&gt;C -->
<g id="edge2" class="edge">
<title>J&#45;&gt;C</title>
<path fill="none" stroke="black" d="M38.58,-13.74C32.64,-22.83 20.48,-41.46 14.1,-51.22"/>
</g>
<!-- J&#45;&gt;B -->
<g id="edge3" class="edge">
<title>J&#45;&gt;B</title>
<path fill="none" stroke="black" d="M42.06,-14.76C42.24,-32.71 42.76,-84.29 42.94,-102.25"/>
</g>
<!-- G\\J -->
<g id="node3" class="node">
<title>G\\J</title>
<text text-anchor="middle" x="10" y="-3.8" font-family="Times,serif" font-style="italic" font-size="14.00">G\J</text>
</g>
<!-- G\\J&#45;&gt;C -->
<g id="edge4" class="edge">
<title>G\\J&#45;&gt;C</title>
<path fill="none" stroke="black" d="M10,-14.91C10,-24.35 10,-41.89 10,-51.25"/>
</g>
<!-- F\\J -->
<g id="node5" class="node">
<title>F\\J</title>
<text text-anchor="middle" x="81" y="-54.8" font-family="Times,serif" font-style="italic" font-size="14.00">F\J</text>
</g>
<!-- F\\J&#45;&gt;B -->
<g id="edge5" class="edge">
<title>F\\J&#45;&gt;B</title>
<path fill="none" stroke="black" d="M76.03,-65.91C68.55,-75.56 54.5,-93.67 47.38,-102.85"/>
</g>
</g>
</svg>
