<?xml version="1.0" encoding="UTF-8" standalone="no"?>
<!DOCTYPE svg PUBLIC "-//W3C//DTD SVG 1.1//EN"
 "http://www.w3.org/Graphics/SVG/1.1/DTD/svg11.dtd">
<!-- Generated by graphviz version 7.0.6 (20230106.0513)
 -->
<!-- Title: BundleClosure__Taxonomy Pages: 1 -->
<svg width="49pt" height="176pt"
 viewBox="0.00 0.00 48.50 176.00" xmlns="http://www.w3.org/2000/svg" xmlns:xlink="http://www.w3.org/1999/xlink">
<g id="graph0" class="graph" transform="scale(1 1) rotate(0) translate(4 172)">
<title>BundleClosure__Taxonomy</title>
<polygon fill="white" stroke="none" points="-4,4 -4,-172 44.5,-172 44.5,4 -4,4"/>
<!-- G -->
<g id="node1" class="node">
<title>G</title>
<text text-anchor="middle" x="5" y="-54.8" font-family="Times,serif" font-style="italic" font-size="14.00">G</text>
</g>
<!-- C -->
<g id="node3" class="node">
<title>C</title>
<text text-anchor="middle" x="7" y="-105.8" font-family="Times,serif" font-style="italic" font-size="14.00">C</text>
</g>
<!-- G&#45;&gt;C -->
<g id="edge1" class="edge">
<title>G&#45;&gt;C</title>
<path fill="none" stroke="black" d="M5.26,-65.91C5.65,-75.35 6.36,-92.89 6.74,-102.25"/>
</g>
<!-- J -->
<g id="node2" class="node">
<title>J</title>
<text text-anchor="middle" x="21" y="-3.8" font-family="Times,serif" font-style="italic" font-size="14.00">J</text>
</g>
<!-- J&#45;&gt;G -->
<g id="edge2" class="edge">
<title>J&#45;&gt;G</title>
<path fill="none" stroke="black" d="M18.91,-14.91C15.82,-24.35 10.1,-41.89 7.04,-51.25"/>
</g>
<!-- F -->
<g id="node4" class="node">
<title>F</title>
<text text-anchor="middle" x="36" y="-105.8" font-family="Times,serif" font-style="italic" font-size="14.00">F</text>
</g>
<!-- J&#45;&gt;F -->
<g id="edge3" class="edge">
<title>J&#45;&gt;F</title>
<path fill="none" stroke="black" d="M21.94,-14.76C24.63,-32.71 32.37,-84.29 35.06,-102.25"/>
</g>
<!-- B -->
<g id="node5" class="node">
<title>B</title>
<text text-anchor="middle" x="21" y="-156.8" font-family="Times,serif" font-style="italic" font-size="14.00">B</text>
</g>
<!-- C&#45;&gt;B -->
<g id="edge4" class="edge">
<title>C&#45;&gt;B</title>
<path fill="none" stroke="black" d="M8.83,-116.91C11.53,-126.35 16.54,-143.89 19.21,-153.25"/>
</g>
<!-- F&#45;&gt;B -->
<g id="edge5" class="edge">
<title>F&#45;&gt;B</title>
<path fill="none" stroke="black" d="M34.04,-116.91C31.15,-126.35 25.78,-143.89 22.91,-153.25"/>
</g>
</g>
</svg>
