<?xml version="1.0" encoding="UTF-8" standalone="no"?>
<!DOCTYPE svg PUBLIC "-//W3C//DTD SVG 1.1//EN"
 "http://www.w3.org/Graphics/SVG/1.1/DTD/svg11.dtd">
<!-- Generated by graphviz version 7.0.6 (20230106.0513)
 -->
<!-- Title: BundleClosure__Taxonomy Pages: 1 -->
<svg width="190pt" height="227pt"
 viewBox="0.00 0.00 190.00 227.00" xmlns="http://www.w3.org/2000/svg" xmlns:xlink="http://www.w3.org/1999/xlink">
<g id="graph0" class="graph" transform="scale(1 1) rotate(0) translate(4 223)">
<title>BundleClosure__Taxonomy</title>
<polygon fill="white" stroke="none" points="-4,4 -4,-223 186,-223 186,4 -4,4"/>
<!-- J -->
<g id="node1" class="node">
<title>J</title>
<text text-anchor="middle" x="3.5" y="-3.8" font-family="Times,serif" font-style="italic" font-size="14.00">J</text>
</g>
<!-- C -->
<g id="node2" class="node">
<title>C</title>
<text text-anchor="middle" x="50.5" y="-54.8" font-family="Times,serif" font-style="italic" font-size="14.00">C</text>
</g>
<!-- J&#45;&gt;C -->
<g id="edge1" class="edge">
<title>J&#45;&gt;C</title>
<path fill="none" stroke="black" d="M6.88,-12.02C15.05,-20.54 35.89,-42.26 45.5,-52.29"/>
</g>
<!-- B -->
<g id="node4" class="node">
<title>B</title>
<text text-anchor="middle" x="94.5" y="-105.8" font-family="Times,serif" font-style="italic" font-size="14.00">B</text>
</g>
<!-- C&#45;&gt;B -->
<g id="edge2" class="edge">
<title>C&#45;&gt;B</title>
<path fill="none" stroke="black" d="M55.21,-64.74C63.81,-74.32 81.94,-94.51 90.22,-103.73"/>
</g>
<!-- D -->
<g id="node3" class="node">
<title>D</title>
<text text-anchor="middle" x="78.5" y="-54.8" font-family="Times,serif" font-style="italic" font-size="14.00">D</text>
</g>
<!-- D&#45;&gt;B -->
<g id="edge3" class="edge">
<title>D&#45;&gt;B</title>
<path fill="none" stroke="black" d="M80.59,-65.91C83.68,-75.35 89.4,-92.89 92.46,-102.25"/>
</g>
<!-- A -->
<g id="node5" class="node">
<title>A</title>
<text text-anchor="middle" x="94.5" y="-156.8" font-family="Times,serif" font-style="italic" font-size="14.00">A</text>
</g>
<!-- B&#45;&gt;A -->
<g id="edge4" class="edge">
<title>B&#45;&gt;A</title>
<path fill="none" stroke="black" d="M94.5,-116.91C94.5,-126.35 94.5,-143.89 94.5,-153.25"/>
</g>
<!-- U -->
<g id="node9" class="node">
<title>U</title>
<text text-anchor="middle" x="134.5" y="-207.8" font-family="Times,serif" font-style="italic" font-size="14.00">U</text>
</g>
<!-- A&#45;&gt;U -->
<g id="edge5" class="edge">
<title>A&#45;&gt;U</title>
<path fill="none" stroke="black" d="M98.78,-166.74C106.28,-175.93 121.74,-194.87 129.63,-204.53"/>
</g>
<!-- X -->
<g id="node6" class="node">
<title>X</title>
<text text-anchor="middle" x="121.5" y="-156.8" font-family="Times,serif" font-style="italic" font-size="14.00">X</text>
</g>
<!-- X&#45;&gt;U -->
<g id="edge6" class="edge">
<title>X&#45;&gt;U</title>
<path fill="none" stroke="black" d="M123.2,-167.91C125.7,-177.35 130.36,-194.89 132.84,-204.25"/>
</g>
<!-- Y -->
<g id="node7" class="node">
<title>Y</title>
<text text-anchor="middle" x="148.5" y="-156.8" font-family="Times,serif" font-style="italic" font-size="14.00">Y</text>
</g>
<!-- Y&#45;&gt;U -->
<g id="edge7" class="edge">
<title>Y&#45;&gt;U</title>
<path fill="none" stroke="black" d="M146.67,-167.91C143.97,-177.35 138.96,-194.89 136.29,-204.25"/>
</g>
<!-- Z -->
<g id="node8" class="node">
<title>Z</title>
<text text-anchor="middle" x="174.5" y="-156.8" font-family="Times,serif" font-style="italic" font-size="14.00">Z</text>
</g>
<!-- Z&#45;&gt;U -->
<g id="edge8" class="edge">
<title>Z&#45;&gt;U</title>
<path fill="none" stroke="black" d="M170.52,-166.38C163.17,-175.38 147.48,-194.59 139.46,-204.43"/>
</g>
<!-- I\\J -->
<g id="node10" class="node">
<title>I\\J</title>
<text text-anchor="middle" x="32.5" y="-3.8" font-family="Times,serif" font-style="italic" font-size="14.00">I\J</text>
</g>
<!-- I\\J&#45;&gt;C -->
<g id="edge9" class="edge">
<title>I\\J&#45;&gt;C</title>
<path fill="none" stroke="black" d="M34.85,-14.91C38.32,-24.35 44.77,-41.89 48.2,-51.25"/>
</g>
<!-- H\\J -->
<g id="node11" class="node">
<title>H\\J</title>
<text text-anchor="middle" x="68.5" y="-3.8" font-family="Times,serif" font-style="italic" font-size="14.00">H\J</text>
</g>
<!-- H\\J&#45;&gt;C -->
<g id="edge10" class="edge">
<title>H\\J&#45;&gt;C</title>
<path fill="none" stroke="black" d="M66.15,-14.91C62.68,-24.35 56.23,-41.89 52.8,-51.25"/>
</g>
<!-- E\\J -->
<g id="node12" class="node">
<title>E\\J</title>
<text text-anchor="middle" x="111.5" y="-54.8" font-family="Times,serif" font-style="italic" font-size="14.00">E\J</text>
</g>
<!-- E\\J&#45;&gt;B -->
<g id="edge11" class="edge">
<title>E\\J&#45;&gt;B</title>
<path fill="none" stroke="black" d="M109.28,-65.91C106,-75.35 99.91,-92.89 96.67,-102.25"/>
</g>
<!-- G\\(J∪I) -->
<g id="node13" class="node">
<title>G\\(J∪I)</title>
<text text-anchor="middle" x="118.5" y="-3.8" font-family="Times,serif" font-style="italic" font-size="14.00">G\(J∪I)</text>
</g>
<!-- G\\(J∪I)&#45;&gt;C -->
<g id="edge12" class="edge">
<title>G\\(J∪I)&#45;&gt;C</title>
<path fill="none" stroke="black" d="M109.61,-14.91C95.07,-25.39 66.67,-45.85 55.34,-54.01"/>
</g>
<!-- F\\(J∪I) -->
<g id="node14" class="node">
<title>F\\(J∪I)</title>
<text text-anchor="middle" x="160.5" y="-54.8" font-family="Times,serif" font-style="italic" font-size="14.00">F\(J∪I)</text>
</g>
<!-- F\\(J∪I)&#45;&gt;B -->
<g id="edge13" class="edge">
<title>F\\(J∪I)&#45;&gt;B</title>
<path fill="none" stroke="black" d="M151.87,-65.91C137.62,-76.49 109.65,-97.25 98.88,-105.25"/>
</g>
</g>
</svg>
