<?xml version="1.0" encoding="UTF-8" standalone="no"?>
<!DOCTYPE svg PUBLIC "-//W3C//DTD SVG 1.1//EN"
 "http://www.w3.org/Graphics/SVG/1.1/DTD/svg11.dtd">
<!-- Generated by graphviz version 10.0.1 (20240210.2158)
 -->
<!-- Title: g Pages: 1 -->
<svg width="458pt" height="260pt"
 viewBox="0.00 0.00 458.00 260.00" xmlns="http://www.w3.org/2000/svg" xmlns:xlink="http://www.w3.org/1999/xlink">
<g id="graph0" class="graph" transform="scale(1 1) rotate(0) translate(4 256)">
<title>g</title>
<polygon fill="white" stroke="none" points="-4,4 -4,-256 454,-256 454,4 -4,4"/>
<!-- a1 -->
<g id="node1" class="node">
<title>a1</title>
<polygon fill="none" stroke="gray" points="90,-252 36,-252 36,-216 90,-216 90,-252"/>
<text text-anchor="start" x="55.88" y="-229.95" font-family="Times,serif" font-style="italic" font-size="14.00">A</text>
<text text-anchor="start" x="64.12" y="-229.95" font-family="Times,serif" baseline-shift="sub" font-size="14.00">1</text>
</g>
<!-- a2 -->
<g id="node2" class="node">
<title>a2</title>
<polygon fill="none" stroke="gray" points="162,-252 108,-252 108,-216 162,-216 162,-252"/>
<text text-anchor="start" x="127.88" y="-229.95" font-family="Times,serif" font-style="italic" font-size="14.00">A</text>
<text text-anchor="start" x="136.12" y="-229.95" font-family="Times,serif" baseline-shift="sub" font-size="14.00">2</text>
</g>
<!-- a1&#45;&gt;a2 -->
<!-- b -->
<g id="node5" class="node">
<title>b</title>
<polygon fill="none" stroke="gray" points="198,-180 144,-180 144,-144 198,-144 198,-180"/>
<text text-anchor="start" x="166.88" y="-157.95" font-family="Times,serif" font-style="italic" font-size="14.00">B</text>
</g>
<!-- a1&#45;&gt;b -->
<g id="edge11" class="edge">
<title>a1&#45;&gt;b</title>
<path fill="none" stroke="gray" d="M99.33,-209.46C114.07,-199.9 130.79,-189.06 144.37,-180.26"/>
<polygon fill="none" stroke="gray" points="97.73,-206.32 91.24,-214.69 101.54,-212.19 97.73,-206.32"/>
</g>
<!-- adots -->
<g id="node3" class="node">
<title>adots</title>
<polygon fill="none" stroke="gray" points="234,-252 180,-252 180,-216 234,-216 234,-252"/>
<text text-anchor="start" x="196.88" y="-229.95" font-family="Times,serif" font-style="italic" font-size="14.00">A</text>
<text text-anchor="start" x="205.12" y="-229.95" font-family="Times,serif" baseline-shift="sub" font-size="14.00">…</text>
</g>
<!-- a2&#45;&gt;adots -->
<!-- a2&#45;&gt;b -->
<g id="edge12" class="edge">
<title>a2&#45;&gt;b</title>
<path fill="none" stroke="gray" d="M149.06,-205.67C153.49,-197.05 158.25,-187.79 162.2,-180.1"/>
<polygon fill="none" stroke="gray" points="146.05,-203.86 144.59,-214.35 152.28,-207.06 146.05,-203.86"/>
</g>
<!-- aj -->
<g id="node4" class="node">
<title>aj</title>
<polygon fill="none" stroke="gray" points="306,-252 252,-252 252,-216 306,-216 306,-252"/>
<text text-anchor="start" x="273.38" y="-229.95" font-family="Times,serif" font-style="italic" font-size="14.00">A</text>
<text text-anchor="start" x="281.62" y="-229.95" font-family="Times,serif" font-style="italic" baseline-shift="sub" font-size="14.00">j</text>
</g>
<!-- adots&#45;&gt;aj -->
<!-- adots&#45;&gt;b -->
<g id="edge13" class="edge">
<title>adots&#45;&gt;b</title>
<path fill="none" stroke="gray" d="M192.94,-205.67C188.51,-197.05 183.75,-187.79 179.8,-180.1"/>
<polygon fill="none" stroke="gray" points="189.72,-207.06 197.41,-214.35 195.95,-203.86 189.72,-207.06"/>
</g>
<!-- aj&#45;&gt;b -->
<g id="edge14" class="edge">
<title>aj&#45;&gt;b</title>
<path fill="none" stroke="gray" d="M242.67,-209.46C227.93,-199.9 211.21,-189.06 197.63,-180.26"/>
<polygon fill="none" stroke="gray" points="240.46,-212.19 250.76,-214.69 244.27,-206.32 240.46,-212.19"/>
</g>
<!-- e1 -->
<g id="node10" class="node">
<title>e1</title>
<polygon fill="none" stroke="gray" points="54,-108 0,-108 0,-72 54,-72 54,-108"/>
<text text-anchor="start" x="19.88" y="-85.95" font-family="Times,serif" font-style="italic" font-size="14.00">E</text>
<text text-anchor="start" x="28.12" y="-85.95" font-family="Times,serif" baseline-shift="sub" font-size="14.00">1</text>
</g>
<!-- b&#45;&gt;e1 -->
<g id="edge16" class="edge">
<title>b&#45;&gt;e1</title>
<path fill="none" stroke="gray" d="M133.43,-142.74C108.64,-130.68 76.71,-115.17 54.32,-104.28"/>
<polygon fill="none" stroke="gray" points="131.69,-145.78 142.21,-147.01 134.75,-139.49 131.69,-145.78"/>
</g>
<!-- e2 -->
<g id="node11" class="node">
<title>e2</title>
<polygon fill="none" stroke="gray" points="126,-108 72,-108 72,-72 126,-72 126,-108"/>
<text text-anchor="start" x="91.88" y="-85.95" font-family="Times,serif" font-style="italic" font-size="14.00">E</text>
<text text-anchor="start" x="100.12" y="-85.95" font-family="Times,serif" baseline-shift="sub" font-size="14.00">2</text>
</g>
<!-- b&#45;&gt;e2 -->
<g id="edge17" class="edge">
<title>b&#45;&gt;e2</title>
<path fill="none" stroke="gray" d="M144.98,-135.7C135.64,-126.62 125.33,-116.6 116.84,-108.35"/>
<polygon fill="none" stroke="gray" points="142.51,-138.18 152.12,-142.64 147.39,-133.16 142.51,-138.18"/>
</g>
<!-- edots -->
<g id="node12" class="node">
<title>edots</title>
<polygon fill="none" stroke="gray" points="198,-108 144,-108 144,-72 198,-72 198,-108"/>
<text text-anchor="start" x="160.88" y="-85.95" font-family="Times,serif" font-style="italic" font-size="14.00">E</text>
<text text-anchor="start" x="169.12" y="-85.95" font-family="Times,serif" baseline-shift="sub" font-size="14.00">…</text>
</g>
<!-- b&#45;&gt;edots -->
<g id="edge18" class="edge">
<title>b&#45;&gt;edots</title>
<path fill="none" stroke="gray" d="M171,-132.24C171,-124.04 171,-115.37 171,-108.1"/>
<polygon fill="none" stroke="gray" points="167.5,-132.18 171,-142.18 174.5,-132.18 167.5,-132.18"/>
</g>
<!-- em -->
<g id="node13" class="node">
<title>em</title>
<polygon fill="none" stroke="gray" points="270,-108 216,-108 216,-72 270,-72 270,-108"/>
<text text-anchor="start" x="234.75" y="-85.95" font-family="Times,serif" font-style="italic" font-size="14.00">E</text>
<text text-anchor="start" x="243" y="-85.95" font-family="Times,serif" font-style="italic" baseline-shift="sub" font-size="14.00">m</text>
</g>
<!-- b&#45;&gt;em -->
<g id="edge19" class="edge">
<title>b&#45;&gt;em</title>
<path fill="none" stroke="gray" d="M197.02,-135.7C206.36,-126.62 216.67,-116.6 225.16,-108.35"/>
<polygon fill="none" stroke="gray" points="194.61,-133.16 189.88,-142.64 199.49,-138.18 194.61,-133.16"/>
</g>
<!-- c -->
<g id="node14" class="node">
<title>c</title>
<polygon fill="none" stroke="gray" points="342,-108 288,-108 288,-72 342,-72 342,-108"/>
<text text-anchor="start" x="310.5" y="-85.95" font-family="Times,serif" font-style="italic" font-size="14.00">C</text>
</g>
<!-- b&#45;&gt;c -->
<g id="edge15" class="edge">
<title>b&#45;&gt;c</title>
<path fill="none" stroke="gray" d="M208.57,-142.74C233.36,-130.68 265.29,-115.17 287.68,-104.28"/>
<polygon fill="none" stroke="gray" points="207.25,-139.49 199.79,-147.01 210.31,-145.78 207.25,-139.49"/>
</g>
<!-- d1 -->
<g id="node6" class="node">
<title>d1</title>
<polygon fill="none" stroke="gray" points="234,-36 180,-36 180,0 234,0 234,-36"/>
<text text-anchor="start" x="199.12" y="-13.95" font-family="Times,serif" font-style="italic" font-size="14.00">D</text>
<text text-anchor="start" x="208.88" y="-13.95" font-family="Times,serif" baseline-shift="sub" font-size="14.00">1</text>
</g>
<!-- d2 -->
<g id="node7" class="node">
<title>d2</title>
<polygon fill="none" stroke="gray" points="306,-36 252,-36 252,0 306,0 306,-36"/>
<text text-anchor="start" x="271.12" y="-13.95" font-family="Times,serif" font-style="italic" font-size="14.00">D</text>
<text text-anchor="start" x="280.88" y="-13.95" font-family="Times,serif" baseline-shift="sub" font-size="14.00">2</text>
</g>
<!-- d1&#45;&gt;d2 -->
<!-- ddots -->
<g id="node8" class="node">
<title>ddots</title>
<polygon fill="none" stroke="gray" points="378,-36 324,-36 324,0 378,0 378,-36"/>
<text text-anchor="start" x="340.12" y="-13.95" font-family="Times,serif" font-style="italic" font-size="14.00">D</text>
<text text-anchor="start" x="349.88" y="-13.95" font-family="Times,serif" baseline-shift="sub" font-size="14.00">…</text>
</g>
<!-- d2&#45;&gt;ddots -->
<!-- dl -->
<g id="node9" class="node">
<title>dl</title>
<polygon fill="none" stroke="gray" points="450,-36 396,-36 396,0 450,0 450,-36"/>
<text text-anchor="start" x="416.62" y="-13.95" font-family="Times,serif" font-style="italic" font-size="14.00">D</text>
<text text-anchor="start" x="426.38" y="-13.95" font-family="Times,serif" font-style="italic" baseline-shift="sub" font-size="14.00">l</text>
</g>
<!-- ddots&#45;&gt;dl -->
<!-- e1&#45;&gt;e2 -->
<!-- e2&#45;&gt;edots -->
<!-- edots&#45;&gt;em -->
<!-- em&#45;&gt;c -->
<!-- c&#45;&gt;d1 -->
<g id="edge20" class="edge">
<title>c&#45;&gt;d1</title>
<path fill="none" stroke="gray" d="M278.67,-65.46C263.93,-55.9 247.21,-45.06 233.63,-36.26"/>
<polygon fill="none" stroke="gray" points="276.46,-68.19 286.76,-70.69 280.27,-62.32 276.46,-68.19"/>
</g>
<!-- c&#45;&gt;d2 -->
<g id="edge21" class="edge">
<title>c&#45;&gt;d2</title>
<path fill="none" stroke="gray" d="M300.94,-61.67C296.51,-53.05 291.75,-43.79 287.8,-36.1"/>
<polygon fill="none" stroke="gray" points="297.72,-63.06 305.41,-70.35 303.95,-59.86 297.72,-63.06"/>
</g>
<!-- c&#45;&gt;ddots -->
<g id="edge22" class="edge">
<title>c&#45;&gt;ddots</title>
<path fill="none" stroke="gray" d="M329.06,-61.67C333.49,-53.05 338.25,-43.79 342.2,-36.1"/>
<polygon fill="none" stroke="gray" points="326.05,-59.86 324.59,-70.35 332.28,-63.06 326.05,-59.86"/>
</g>
<!-- c&#45;&gt;dl -->
<g id="edge23" class="edge">
<title>c&#45;&gt;dl</title>
<path fill="none" stroke="gray" d="M351.33,-65.46C366.07,-55.9 382.79,-45.06 396.37,-36.26"/>
<polygon fill="none" stroke="gray" points="349.73,-62.32 343.24,-70.69 353.54,-68.19 349.73,-62.32"/>
</g>
</g>
</svg>
