<?xml version="1.0" encoding="UTF-8" standalone="no"?>
<!DOCTYPE svg PUBLIC "-//W3C//DTD SVG 1.1//EN"
 "http://www.w3.org/Graphics/SVG/1.1/DTD/svg11.dtd">
<!-- Generated by graphviz version 10.0.1 (20240210.2158)
 -->
<!-- Title: g Pages: 1 -->
<svg width="278pt" height="188pt"
 viewBox="0.00 0.00 278.00 188.00" xmlns="http://www.w3.org/2000/svg" xmlns:xlink="http://www.w3.org/1999/xlink">
<g id="graph0" class="graph" transform="scale(1 1) rotate(0) translate(4 184)">
<title>g</title>
<polygon fill="white" stroke="none" points="-4,4 -4,-184 274,-184 274,4 -4,4"/>
<!-- b1 -->
<g id="node1" class="node">
<title>b1</title>
<polygon fill="none" stroke="gray" points="54,-180 0,-180 0,-144 54,-144 54,-180"/>
<text text-anchor="start" x="19.88" y="-157.95" font-family="Times,serif" font-style="italic" font-size="14.00">B</text>
<text text-anchor="start" x="28.12" y="-157.95" font-family="Times,serif" baseline-shift="sub" font-size="14.00">1</text>
</g>
<!-- b2 -->
<g id="node2" class="node">
<title>b2</title>
<polygon fill="none" stroke="gray" points="126,-180 72,-180 72,-144 126,-144 126,-180"/>
<text text-anchor="start" x="91.88" y="-157.95" font-family="Times,serif" font-style="italic" font-size="14.00">B</text>
<text text-anchor="start" x="100.12" y="-157.95" font-family="Times,serif" baseline-shift="sub" font-size="14.00">2</text>
</g>
<!-- b1&#45;&gt;b2 -->
<!-- c -->
<g id="node5" class="node">
<title>c</title>
<polygon fill="none" stroke="gray" points="162,-108 108,-108 108,-72 162,-72 162,-108"/>
<text text-anchor="start" x="130.5" y="-85.95" font-family="Times,serif" font-style="italic" font-size="14.00">C</text>
</g>
<!-- b1&#45;&gt;c -->
<g id="edge4" class="edge">
<title>b1&#45;&gt;c</title>
<path fill="none" stroke="gray" d="M63.33,-137.46C78.07,-127.9 94.79,-117.06 108.37,-108.26"/>
<polygon fill="none" stroke="gray" points="61.73,-134.32 55.24,-142.69 65.54,-140.19 61.73,-134.32"/>
</g>
<!-- bdots -->
<g id="node3" class="node">
<title>bdots</title>
<polygon fill="none" stroke="gray" points="198,-180 144,-180 144,-144 198,-144 198,-180"/>
<text text-anchor="start" x="160.88" y="-157.95" font-family="Times,serif" font-style="italic" font-size="14.00">B</text>
<text text-anchor="start" x="169.12" y="-157.95" font-family="Times,serif" baseline-shift="sub" font-size="14.00">…</text>
</g>
<!-- b2&#45;&gt;bdots -->
<!-- b2&#45;&gt;c -->
<g id="edge5" class="edge">
<title>b2&#45;&gt;c</title>
<path fill="none" stroke="gray" d="M113.06,-133.67C117.49,-125.05 122.25,-115.79 126.2,-108.1"/>
<polygon fill="none" stroke="gray" points="110.05,-131.86 108.59,-142.35 116.28,-135.06 110.05,-131.86"/>
</g>
<!-- bk -->
<g id="node4" class="node">
<title>bk</title>
<polygon fill="none" stroke="gray" points="270,-180 216,-180 216,-144 270,-144 270,-180"/>
<text text-anchor="start" x="236.25" y="-157.95" font-family="Times,serif" font-style="italic" font-size="14.00">B</text>
<text text-anchor="start" x="244.5" y="-157.95" font-family="Times,serif" font-style="italic" baseline-shift="sub" font-size="14.00">k</text>
</g>
<!-- bdots&#45;&gt;bk -->
<!-- bdots&#45;&gt;c -->
<g id="edge6" class="edge">
<title>bdots&#45;&gt;c</title>
<path fill="none" stroke="gray" d="M156.94,-133.67C152.51,-125.05 147.75,-115.79 143.8,-108.1"/>
<polygon fill="none" stroke="gray" points="153.72,-135.06 161.41,-142.35 159.95,-131.86 153.72,-135.06"/>
</g>
<!-- bk&#45;&gt;c -->
<g id="edge7" class="edge">
<title>bk&#45;&gt;c</title>
<path fill="none" stroke="gray" d="M206.67,-137.46C191.93,-127.9 175.21,-117.06 161.63,-108.26"/>
<polygon fill="none" stroke="gray" points="204.46,-140.19 214.76,-142.69 208.27,-134.32 204.46,-140.19"/>
</g>
<!-- d1 -->
<g id="node6" class="node">
<title>d1</title>
<polygon fill="none" stroke="gray" points="54,-36 0,-36 0,0 54,0 54,-36"/>
<text text-anchor="start" x="19.12" y="-13.95" font-family="Times,serif" font-style="italic" font-size="14.00">D</text>
<text text-anchor="start" x="28.88" y="-13.95" font-family="Times,serif" baseline-shift="sub" font-size="14.00">1</text>
</g>
<!-- c&#45;&gt;d1 -->
<g id="edge11" class="edge">
<title>c&#45;&gt;d1</title>
<path fill="none" stroke="gray" d="M98.67,-65.46C83.93,-55.9 67.21,-45.06 53.63,-36.26"/>
<polygon fill="none" stroke="gray" points="96.46,-68.19 106.76,-70.69 100.27,-62.32 96.46,-68.19"/>
</g>
<!-- d2 -->
<g id="node7" class="node">
<title>d2</title>
<polygon fill="none" stroke="gray" points="126,-36 72,-36 72,0 126,0 126,-36"/>
<text text-anchor="start" x="91.12" y="-13.95" font-family="Times,serif" font-style="italic" font-size="14.00">D</text>
<text text-anchor="start" x="100.88" y="-13.95" font-family="Times,serif" baseline-shift="sub" font-size="14.00">2</text>
</g>
<!-- c&#45;&gt;d2 -->
<g id="edge12" class="edge">
<title>c&#45;&gt;d2</title>
<path fill="none" stroke="gray" d="M120.94,-61.67C116.51,-53.05 111.75,-43.79 107.8,-36.1"/>
<polygon fill="none" stroke="gray" points="117.72,-63.06 125.41,-70.35 123.95,-59.86 117.72,-63.06"/>
</g>
<!-- ddots -->
<g id="node8" class="node">
<title>ddots</title>
<polygon fill="none" stroke="gray" points="198,-36 144,-36 144,0 198,0 198,-36"/>
<text text-anchor="start" x="160.12" y="-13.95" font-family="Times,serif" font-style="italic" font-size="14.00">D</text>
<text text-anchor="start" x="169.88" y="-13.95" font-family="Times,serif" baseline-shift="sub" font-size="14.00">…</text>
</g>
<!-- c&#45;&gt;ddots -->
<g id="edge13" class="edge">
<title>c&#45;&gt;ddots</title>
<path fill="none" stroke="gray" d="M149.06,-61.67C153.49,-53.05 158.25,-43.79 162.2,-36.1"/>
<polygon fill="none" stroke="gray" points="146.05,-59.86 144.59,-70.35 152.28,-63.06 146.05,-59.86"/>
</g>
<!-- dl -->
<g id="node9" class="node">
<title>dl</title>
<polygon fill="none" stroke="gray" points="270,-36 216,-36 216,0 270,0 270,-36"/>
<text text-anchor="start" x="236.62" y="-13.95" font-family="Times,serif" font-style="italic" font-size="14.00">D</text>
<text text-anchor="start" x="246.38" y="-13.95" font-family="Times,serif" font-style="italic" baseline-shift="sub" font-size="14.00">l</text>
</g>
<!-- c&#45;&gt;dl -->
<g id="edge14" class="edge">
<title>c&#45;&gt;dl</title>
<path fill="none" stroke="gray" d="M171.33,-65.46C186.07,-55.9 202.79,-45.06 216.37,-36.26"/>
<polygon fill="none" stroke="gray" points="169.73,-62.32 163.24,-70.69 173.54,-68.19 169.73,-62.32"/>
</g>
<!-- d1&#45;&gt;d2 -->
<!-- d2&#45;&gt;ddots -->
<!-- ddots&#45;&gt;dl -->
</g>
</svg>
