<?xml version="1.0" encoding="UTF-8" standalone="no"?>
<!DOCTYPE svg PUBLIC "-//W3C//DTD SVG 1.1//EN"
 "http://www.w3.org/Graphics/SVG/1.1/DTD/svg11.dtd">
<!-- Generated by graphviz version 10.0.1 (20240210.2158)
 -->
<!-- Title: RGL__DirectedAdjacencyGraph Pages: 1 -->
<svg width="2420pt" height="530pt"
 viewBox="0.00 0.00 2419.75 530.00" xmlns="http://www.w3.org/2000/svg" xmlns:xlink="http://www.w3.org/1999/xlink">
<g id="graph0" class="graph" transform="scale(1 1) rotate(0) translate(4 526)">
<title>RGL__DirectedAdjacencyGraph</title>
<polygon fill="white" stroke="none" points="-4,4 -4,-526 2415.75,-526 2415.75,4 -4,4"/>
<!-- BinaryLinkObject -->
<g id="node1" class="node">
<title>BinaryLinkObject</title>
<polygon fill="none" stroke="black" points="1319.62,-414 1206.88,-414 1206.88,-378 1319.62,-378 1319.62,-414"/>
<text text-anchor="middle" x="1263.25" y="-390.95" font-family="Times,serif" font-style="italic" font-size="14.00">BinaryLinkObject</text>
</g>
<!-- Occurrence ∖ (FlowTransferBefore ∪ TransferBefore ∪ (Transfer ∖ (FlowTransferBefore ∪ TransferBefore))) -->
<g id="node20" class="node">
<title>Occurrence ∖ (FlowTransferBefore ∪ TransferBefore ∪ (Transfer ∖ (FlowTransferBefore ∪ TransferBefore)))</title>
<polygon fill="none" stroke="black" points="800.75,-306 190.75,-306 190.75,-270 800.75,-270 800.75,-306"/>
<text text-anchor="middle" x="495.75" y="-283.7" font-family="Times,serif" font-style="italic" font-size="14.00">Occurrence ∖ (FlowTransferBefore ∪ TransferBefore ∪ (Transfer ∖ (FlowTransferBefore ∪ TransferBefore)))</text>
</g>
<!-- BinaryLinkObject&#45;&gt;Occurrence ∖ (FlowTransferBefore ∪ TransferBefore ∪ (Transfer ∖ (FlowTransferBefore ∪ TransferBefore))) -->
<g id="edge1" class="edge">
<title>BinaryLinkObject&#45;&gt;Occurrence ∖ (FlowTransferBefore ∪ TransferBefore ∪ (Transfer ∖ (FlowTransferBefore ∪ TransferBefore)))</title>
<path fill="none" stroke="black" d="M1206.51,-395.48C1124.91,-394.05 968.33,-388.7 836.75,-369 743.95,-355.11 639.2,-328.44 570.8,-309.5"/>
<polygon fill="none" stroke="black" points="571.75,-306.14 561.18,-306.82 569.87,-312.88 571.75,-306.14"/>
</g>
<!-- FlowTransferBefore -->
<g id="node2" class="node">
<title>FlowTransferBefore</title>
<polygon fill="none" stroke="black" points="1326,-144 1200.5,-144 1200.5,-108 1326,-108 1326,-144"/>
<text text-anchor="middle" x="1263.25" y="-120.95" font-family="Times,serif" font-style="italic" font-size="14.00">FlowTransferBefore</text>
</g>
<!-- Link ∖ (BinaryLinkObject ∪ LinkObject ∪ (Transfer ∖ (FlowTransferBefore ∪ TransferBefore))) -->
<g id="node21" class="node">
<title>Link ∖ (BinaryLinkObject ∪ LinkObject ∪ (Transfer ∖ (FlowTransferBefore ∪ TransferBefore)))</title>
<polygon fill="none" stroke="black" points="763.62,-117 227.88,-117 227.88,-81 763.62,-81 763.62,-117"/>
<text text-anchor="middle" x="495.75" y="-94.7" font-family="Times,serif" font-style="italic" font-size="14.00">Link ∖ (BinaryLinkObject ∪ LinkObject ∪ (Transfer ∖ (FlowTransferBefore ∪ TransferBefore)))</text>
</g>
<!-- FlowTransferBefore&#45;&gt;Link ∖ (BinaryLinkObject ∪ LinkObject ∪ (Transfer ∖ (FlowTransferBefore ∪ TransferBefore))) -->
<g id="edge2" class="edge">
<title>FlowTransferBefore&#45;&gt;Link ∖ (BinaryLinkObject ∪ LinkObject ∪ (Transfer ∖ (FlowTransferBefore ∪ TransferBefore)))</title>
<path fill="none" stroke="black" d="M1200.25,-123.81C1108.14,-120.56 929.42,-114.26 775.17,-108.82"/>
<polygon fill="none" stroke="black" points="775.73,-105.34 765.62,-108.48 775.49,-112.33 775.73,-105.34"/>
</g>
<!-- MessageTransfer -->
<g id="node3" class="node">
<title>MessageTransfer</title>
<polygon fill="none" stroke="black" points="1318.12,-522 1208.38,-522 1208.38,-486 1318.12,-486 1318.12,-522"/>
<text text-anchor="middle" x="1263.25" y="-498.95" font-family="Times,serif" font-style="italic" font-size="14.00">MessageTransfer</text>
</g>
<!-- Transfer ∖ (FlowTransferBefore ∪ TransferBefore) -->
<g id="node14" class="node">
<title>Transfer ∖ (FlowTransferBefore ∪ TransferBefore)</title>
<polygon fill="none" stroke="black" points="642.12,-468 349.38,-468 349.38,-432 642.12,-432 642.12,-468"/>
<text text-anchor="middle" x="495.75" y="-445.7" font-family="Times,serif" font-style="italic" font-size="14.00">Transfer ∖ (FlowTransferBefore ∪ TransferBefore)</text>
</g>
<!-- MessageTransfer&#45;&gt;Transfer ∖ (FlowTransferBefore ∪ TransferBefore) -->
<g id="edge3" class="edge">
<title>MessageTransfer&#45;&gt;Transfer ∖ (FlowTransferBefore ∪ TransferBefore)</title>
<path fill="none" stroke="black" d="M1208.16,-500.84C1127.32,-496.06 970.2,-486.53 836.75,-477 776.95,-472.73 711.27,-467.61 653.71,-462.99"/>
<polygon fill="none" stroke="black" points="654.07,-459.51 643.82,-462.19 653.51,-466.48 654.07,-459.51"/>
</g>
<!-- UniversalClockLife -->
<g id="node4" class="node">
<title>UniversalClockLife</title>
<polygon fill="none" stroke="black" points="1946.12,-225 1824.38,-225 1824.38,-189 1946.12,-189 1946.12,-225"/>
<text text-anchor="middle" x="1885.25" y="-201.95" font-family="Times,serif" font-style="italic" font-size="14.00">UniversalClockLife</text>
</g>
<!-- Object ∖ (BinaryLinkObject ∪ LinkObject) -->
<g id="node19" class="node">
<title>Object ∖ (BinaryLinkObject ∪ LinkObject)</title>
<polygon fill="none" stroke="black" points="1387.5,-198 1139,-198 1139,-162 1387.5,-162 1387.5,-198"/>
<text text-anchor="middle" x="1263.25" y="-175.7" font-family="Times,serif" font-style="italic" font-size="14.00">Object ∖ (BinaryLinkObject ∪ LinkObject)</text>
</g>
<!-- UniversalClockLife&#45;&gt;Object ∖ (BinaryLinkObject ∪ LinkObject) -->
<g id="edge4" class="edge">
<title>UniversalClockLife&#45;&gt;Object ∖ (BinaryLinkObject ∪ LinkObject)</title>
<path fill="none" stroke="black" d="M1823.96,-204.37C1726.31,-200.12 1531.2,-191.63 1399.15,-185.87"/>
<polygon fill="none" stroke="black" points="1399.43,-182.38 1389.29,-185.45 1399.12,-189.38 1399.43,-182.38"/>
</g>
<!-- DefaultMonitorLife -->
<g id="node5" class="node">
<title>DefaultMonitorLife</title>
<polygon fill="none" stroke="black" points="1946.5,-171 1824,-171 1824,-135 1946.5,-135 1946.5,-171"/>
<text text-anchor="middle" x="1885.25" y="-147.95" font-family="Times,serif" font-style="italic" font-size="14.00">DefaultMonitorLife</text>
</g>
<!-- DefaultMonitorLife&#45;&gt;Object ∖ (BinaryLinkObject ∪ LinkObject) -->
<g id="edge5" class="edge">
<title>DefaultMonitorLife&#45;&gt;Object ∖ (BinaryLinkObject ∪ LinkObject)</title>
<path fill="none" stroke="black" d="M1823.67,-155.64C1725.97,-159.89 1531.23,-168.37 1399.31,-174.12"/>
<polygon fill="none" stroke="black" points="1399.29,-170.62 1389.45,-174.55 1399.6,-177.61 1399.29,-170.62"/>
</g>
<!-- Anything -->
<g id="node6" class="node">
<title>Anything</title>
<polygon fill="none" stroke="black" points="154.75,-306 90,-306 90,-270 154.75,-270 154.75,-306"/>
<text text-anchor="middle" x="122.38" y="-282.95" font-family="Times,serif" font-style="italic" font-size="14.00">Anything</text>
</g>
<!-- ℝ -->
<g id="node7" class="node">
<title>ℝ</title>
<polygon fill="none" stroke="black" points="54,-306 0,-306 0,-270 54,-270 54,-306"/>
<text text-anchor="middle" x="27" y="-283.32" font-family="Times,serif" font-style="italic" font-size="14.00">ℝ</text>
</g>
<!-- Anything&#45;&gt;ℝ -->
<g id="edge6" class="edge">
<title>Anything&#45;&gt;ℝ</title>
<path fill="none" stroke="black" d="M89.5,-288C81.92,-288 73.76,-288 65.94,-288"/>
<polygon fill="none" stroke="black" points="65.97,-284.5 55.97,-288 65.97,-291.5 65.97,-284.5"/>
</g>
<!-- LinkObject ∖ BinaryLinkObject -->
<g id="node8" class="node">
<title>LinkObject ∖ BinaryLinkObject</title>
<polygon fill="none" stroke="black" points="1358.25,-360 1168.25,-360 1168.25,-324 1358.25,-324 1358.25,-360"/>
<text text-anchor="middle" x="1263.25" y="-337.7" font-family="Times,serif" font-style="italic" font-size="14.00">LinkObject ∖ BinaryLinkObject</text>
</g>
<!-- LinkObject ∖ BinaryLinkObject&#45;&gt;Occurrence ∖ (FlowTransferBefore ∪ TransferBefore ∪ (Transfer ∖ (FlowTransferBefore ∪ TransferBefore))) -->
<g id="edge7" class="edge">
<title>LinkObject ∖ BinaryLinkObject&#45;&gt;Occurrence ∖ (FlowTransferBefore ∪ TransferBefore ∪ (Transfer ∖ (FlowTransferBefore ∪ TransferBefore)))</title>
<path fill="none" stroke="black" d="M1168,-336.45C1081.76,-331.27 950.64,-323.13 836.75,-315 803.57,-312.63 768.59,-310 734.18,-307.34"/>
<polygon fill="none" stroke="black" points="734.79,-303.88 724.54,-306.59 734.24,-310.85 734.79,-303.88"/>
</g>
<!-- TransferBefore ∖ FlowTransferBefore -->
<g id="node9" class="node">
<title>TransferBefore ∖ FlowTransferBefore</title>
<polygon fill="none" stroke="black" points="1375.5,-90 1151,-90 1151,-54 1375.5,-54 1375.5,-90"/>
<text text-anchor="middle" x="1263.25" y="-67.7" font-family="Times,serif" font-style="italic" font-size="14.00">TransferBefore ∖ FlowTransferBefore</text>
</g>
<!-- TransferBefore ∖ FlowTransferBefore&#45;&gt;Link ∖ (BinaryLinkObject ∪ LinkObject ∪ (Transfer ∖ (FlowTransferBefore ∪ TransferBefore))) -->
<g id="edge8" class="edge">
<title>TransferBefore ∖ FlowTransferBefore&#45;&gt;Link ∖ (BinaryLinkObject ∪ LinkObject ∪ (Transfer ∖ (FlowTransferBefore ∪ TransferBefore)))</title>
<path fill="none" stroke="black" d="M1150.53,-75.94C1052.24,-79.41 904.99,-84.6 775.1,-89.18"/>
<polygon fill="none" stroke="black" points="775.17,-85.68 765.3,-89.53 775.42,-92.67 775.17,-85.68"/>
</g>
<!-- FlowTransfer ∖ FlowTransferBefore -->
<g id="node10" class="node">
<title>FlowTransfer ∖ FlowTransferBefore</title>
<polygon fill="none" stroke="black" points="1371.38,-468 1155.12,-468 1155.12,-432 1371.38,-432 1371.38,-468"/>
<text text-anchor="middle" x="1263.25" y="-445.7" font-family="Times,serif" font-style="italic" font-size="14.00">FlowTransfer ∖ FlowTransferBefore</text>
</g>
<!-- FlowTransfer ∖ FlowTransferBefore&#45;&gt;Transfer ∖ (FlowTransferBefore ∪ TransferBefore) -->
<g id="edge9" class="edge">
<title>FlowTransfer ∖ FlowTransferBefore&#45;&gt;Transfer ∖ (FlowTransferBefore ∪ TransferBefore)</title>
<path fill="none" stroke="black" d="M1155,-450C1024.54,-450 803.22,-450 653.61,-450"/>
<polygon fill="none" stroke="black" points="654.03,-446.5 644.03,-450 654.03,-453.5 654.03,-446.5"/>
</g>
<!-- ChangeMonitor ∖ DefaultMonitorLife -->
<g id="node11" class="node">
<title>ChangeMonitor ∖ DefaultMonitorLife</title>
<polygon fill="none" stroke="black" points="1998.62,-117 1771.88,-117 1771.88,-81 1998.62,-81 1998.62,-117"/>
<text text-anchor="middle" x="1885.25" y="-94.7" font-family="Times,serif" font-style="italic" font-size="14.00">ChangeMonitor ∖ DefaultMonitorLife</text>
</g>
<!-- ChangeMonitor ∖ DefaultMonitorLife&#45;&gt;Object ∖ (BinaryLinkObject ∪ LinkObject) -->
<g id="edge10" class="edge">
<title>ChangeMonitor ∖ DefaultMonitorLife&#45;&gt;Object ∖ (BinaryLinkObject ∪ LinkObject)</title>
<path fill="none" stroke="black" d="M1771.48,-111.38C1755.77,-115.06 1740.11,-119.82 1725.75,-126 1707.38,-133.9 1708.51,-146.08 1689.75,-153 1596.87,-187.27 1484.9,-193.1 1399.14,-190.85"/>
<polygon fill="none" stroke="black" points="1399.37,-187.36 1389.26,-190.55 1399.15,-194.35 1399.37,-187.36"/>
</g>
<!-- Clock ∖ (UniversalClockLife ∪ DefaultMonitorLife) -->
<g id="node12" class="node">
<title>Clock ∖ (UniversalClockLife ∪ DefaultMonitorLife)</title>
<polygon fill="none" stroke="black" points="2035,-279 1735.5,-279 1735.5,-243 2035,-243 2035,-279"/>
<text text-anchor="middle" x="1885.25" y="-256.7" font-family="Times,serif" font-style="italic" font-size="14.00">Clock ∖ (UniversalClockLife ∪ DefaultMonitorLife)</text>
</g>
<!-- Clock ∖ (UniversalClockLife ∪ DefaultMonitorLife)&#45;&gt;Object ∖ (BinaryLinkObject ∪ LinkObject) -->
<g id="edge11" class="edge">
<title>Clock ∖ (UniversalClockLife ∪ DefaultMonitorLife)&#45;&gt;Object ∖ (BinaryLinkObject ∪ LinkObject)</title>
<path fill="none" stroke="black" d="M1748.93,-242.5C1740.97,-240.02 1733.19,-237.2 1725.75,-234 1707.38,-226.1 1708.51,-213.92 1689.75,-207 1596.87,-172.73 1484.9,-166.9 1399.14,-169.15"/>
<polygon fill="none" stroke="black" points="1399.15,-165.65 1389.26,-169.45 1399.37,-172.64 1399.15,-165.65"/>
</g>
<!-- Life ∖ (UniversalClockLife ∪ DefaultMonitorLife) -->
<g id="node13" class="node">
<title>Life ∖ (UniversalClockLife ∪ DefaultMonitorLife)</title>
<polygon fill="none" stroke="black" points="1407.75,-306 1118.75,-306 1118.75,-270 1407.75,-270 1407.75,-306"/>
<text text-anchor="middle" x="1263.25" y="-283.7" font-family="Times,serif" font-style="italic" font-size="14.00">Life ∖ (UniversalClockLife ∪ DefaultMonitorLife)</text>
</g>
<!-- Life ∖ (UniversalClockLife ∪ DefaultMonitorLife)&#45;&gt;Occurrence ∖ (FlowTransferBefore ∪ TransferBefore ∪ (Transfer ∖ (FlowTransferBefore ∪ TransferBefore))) -->
<g id="edge12" class="edge">
<title>Life ∖ (UniversalClockLife ∪ DefaultMonitorLife)&#45;&gt;Occurrence ∖ (FlowTransferBefore ∪ TransferBefore ∪ (Transfer ∖ (FlowTransferBefore ∪ TransferBefore)))</title>
<path fill="none" stroke="black" d="M1118.27,-288C1031.89,-288 918.5,-288 812.24,-288"/>
<polygon fill="none" stroke="black" points="812.51,-284.5 802.51,-288 812.51,-291.5 812.51,-284.5"/>
</g>
<!-- Transfer ∖ (FlowTransferBefore ∪ TransferBefore)&#45;&gt;Anything -->
<g id="edge13" class="edge">
<title>Transfer ∖ (FlowTransferBefore ∪ TransferBefore)&#45;&gt;Anything</title>
<path fill="none" stroke="black" d="M452.51,-431.57C380.99,-400.38 236.89,-337.52 165.47,-306.36"/>
<polygon fill="none" stroke="black" points="167.02,-303.22 156.45,-302.43 164.22,-309.63 167.02,-303.22"/>
</g>
<!-- HappensBefore ∖ (FlowTransferBefore ∪ TransferBefore) -->
<g id="node15" class="node">
<title>HappensBefore ∖ (FlowTransferBefore ∪ TransferBefore)</title>
<polygon fill="none" stroke="black" points="2411.75,-36 2080.75,-36 2080.75,0 2411.75,0 2411.75,-36"/>
<text text-anchor="middle" x="2246.25" y="-13.7" font-family="Times,serif" font-style="italic" font-size="14.00">HappensBefore ∖ (FlowTransferBefore ∪ TransferBefore)</text>
</g>
<!-- HappensLink ∖ (FlowTransferBefore ∪ TransferBefore) -->
<g id="node16" class="node">
<title>HappensLink ∖ (FlowTransferBefore ∪ TransferBefore)</title>
<polygon fill="none" stroke="black" points="2044.75,-36 1725.75,-36 1725.75,0 2044.75,0 2044.75,-36"/>
<text text-anchor="middle" x="1885.25" y="-13.7" font-family="Times,serif" font-style="italic" font-size="14.00">HappensLink ∖ (FlowTransferBefore ∪ TransferBefore)</text>
</g>
<!-- HappensBefore ∖ (FlowTransferBefore ∪ TransferBefore)&#45;&gt;HappensLink ∖ (FlowTransferBefore ∪ TransferBefore) -->
<g id="edge14" class="edge">
<title>HappensBefore ∖ (FlowTransferBefore ∪ TransferBefore)&#45;&gt;HappensLink ∖ (FlowTransferBefore ∪ TransferBefore)</title>
<path fill="none" stroke="black" d="M2080.46,-18C2072.44,-18 2064.38,-18 2056.35,-18"/>
<polygon fill="none" stroke="black" points="2056.53,-14.5 2046.53,-18 2056.53,-21.5 2056.53,-14.5"/>
</g>
<!-- BinaryLink ∖ (BinaryLinkObject ∪ FlowTransferBefore ∪ (Transfer ∖ (FlowTransferBefore ∪ TransferBefore)) ∪ (TransferBefore ∖ FlowTransferBefore)) -->
<g id="node18" class="node">
<title>BinaryLink ∖ (BinaryLinkObject ∪ FlowTransferBefore ∪ (Transfer ∖ (FlowTransferBefore ∪ TransferBefore)) ∪ (TransferBefore ∖ FlowTransferBefore))</title>
<polygon fill="none" stroke="black" points="1689.75,-36 836.75,-36 836.75,0 1689.75,0 1689.75,-36"/>
<text text-anchor="middle" x="1263.25" y="-13.7" font-family="Times,serif" font-style="italic" font-size="14.00">BinaryLink ∖ (BinaryLinkObject ∪ FlowTransferBefore ∪ (Transfer ∖ (FlowTransferBefore ∪ TransferBefore)) ∪ (TransferBefore ∖ FlowTransferBefore))</text>
</g>
<!-- HappensLink ∖ (FlowTransferBefore ∪ TransferBefore)&#45;&gt;BinaryLink ∖ (BinaryLinkObject ∪ FlowTransferBefore ∪ (Transfer ∖ (FlowTransferBefore ∪ TransferBefore)) ∪ (TransferBefore ∖ FlowTransferBefore)) -->
<g id="edge15" class="edge">
<title>HappensLink ∖ (FlowTransferBefore ∪ TransferBefore)&#45;&gt;BinaryLink ∖ (BinaryLinkObject ∪ FlowTransferBefore ∪ (Transfer ∖ (FlowTransferBefore ∪ TransferBefore)) ∪ (TransferBefore ∖ FlowTransferBefore))</title>
<path fill="none" stroke="black" d="M1725.39,-18C1717.65,-18 1709.74,-18 1701.69,-18"/>
<polygon fill="none" stroke="black" points="1701.74,-14.5 1691.74,-18 1701.74,-21.5 1701.74,-14.5"/>
</g>
<!-- Performance ∖ (FlowTransferBefore ∪ (Transfer ∖ (FlowTransferBefore ∪ TransferBefore)) ∪ (TransferBefore ∖ FlowTransferBefore)) -->
<g id="node17" class="node">
<title>Performance ∖ (FlowTransferBefore ∪ (Transfer ∖ (FlowTransferBefore ∪ TransferBefore)) ∪ (TransferBefore ∖ FlowTransferBefore))</title>
<polygon fill="none" stroke="black" points="1639.5,-252 887,-252 887,-216 1639.5,-216 1639.5,-252"/>
<text text-anchor="middle" x="1263.25" y="-229.7" font-family="Times,serif" font-style="italic" font-size="14.00">Performance ∖ (FlowTransferBefore ∪ (Transfer ∖ (FlowTransferBefore ∪ TransferBefore)) ∪ (TransferBefore ∖ FlowTransferBefore))</text>
</g>
<!-- Performance ∖ (FlowTransferBefore ∪ (Transfer ∖ (FlowTransferBefore ∪ TransferBefore)) ∪ (TransferBefore ∖ FlowTransferBefore))&#45;&gt;Occurrence ∖ (FlowTransferBefore ∪ TransferBefore ∪ (Transfer ∖ (FlowTransferBefore ∪ TransferBefore))) -->
<g id="edge16" class="edge">
<title>Performance ∖ (FlowTransferBefore ∪ (Transfer ∖ (FlowTransferBefore ∪ TransferBefore)) ∪ (TransferBefore ∖ FlowTransferBefore))&#45;&gt;Occurrence ∖ (FlowTransferBefore ∪ TransferBefore ∪ (Transfer ∖ (FlowTransferBefore ∪ TransferBefore)))</title>
<path fill="none" stroke="black" d="M961.47,-252.49C919.57,-255.24 877.08,-258.12 836.75,-261 803.57,-263.37 768.59,-266 734.18,-268.66"/>
<polygon fill="none" stroke="black" points="734.24,-265.15 724.54,-269.41 734.79,-272.12 734.24,-265.15"/>
</g>
<!-- BinaryLink ∖ (BinaryLinkObject ∪ FlowTransferBefore ∪ (Transfer ∖ (FlowTransferBefore ∪ TransferBefore)) ∪ (TransferBefore ∖ FlowTransferBefore))&#45;&gt;Link ∖ (BinaryLinkObject ∪ LinkObject ∪ (Transfer ∖ (FlowTransferBefore ∪ TransferBefore))) -->
<g id="edge17" class="edge">
<title>BinaryLink ∖ (BinaryLinkObject ∪ FlowTransferBefore ∪ (Transfer ∖ (FlowTransferBefore ∪ TransferBefore)) ∪ (TransferBefore ∖ FlowTransferBefore))&#45;&gt;Link ∖ (BinaryLinkObject ∪ LinkObject ∪ (Transfer ∖ (FlowTransferBefore ∪ TransferBefore)))</title>
<path fill="none" stroke="black" d="M924.93,-36.48C895.08,-39 865.35,-41.83 836.75,-45 760.1,-53.5 674.34,-67.15 608.13,-78.6"/>
<polygon fill="none" stroke="black" points="607.58,-75.14 598.33,-80.3 608.78,-82.04 607.58,-75.14"/>
</g>
<!-- Object ∖ (BinaryLinkObject ∪ LinkObject)&#45;&gt;Occurrence ∖ (FlowTransferBefore ∪ TransferBefore ∪ (Transfer ∖ (FlowTransferBefore ∪ TransferBefore))) -->
<g id="edge18" class="edge">
<title>Object ∖ (BinaryLinkObject ∪ LinkObject)&#45;&gt;Occurrence ∖ (FlowTransferBefore ∪ TransferBefore ∪ (Transfer ∖ (FlowTransferBefore ∪ TransferBefore)))</title>
<path fill="none" stroke="black" d="M1138.77,-182.28C1053.52,-185.21 937.77,-191.87 836.75,-207 743.95,-220.89 639.2,-247.56 570.8,-266.5"/>
<polygon fill="none" stroke="black" points="569.87,-263.12 561.18,-269.18 571.75,-269.86 569.87,-263.12"/>
</g>
<!-- Occurrence ∖ (FlowTransferBefore ∪ TransferBefore ∪ (Transfer ∖ (FlowTransferBefore ∪ TransferBefore)))&#45;&gt;Anything -->
<g id="edge19" class="edge">
<title>Occurrence ∖ (FlowTransferBefore ∪ TransferBefore ∪ (Transfer ∖ (FlowTransferBefore ∪ TransferBefore)))&#45;&gt;Anything</title>
<path fill="none" stroke="black" d="M190.63,-288C181.94,-288 173.85,-288 166.5,-288"/>
<polygon fill="none" stroke="black" points="166.75,-284.5 156.75,-288 166.75,-291.5 166.75,-284.5"/>
</g>
<!-- Link ∖ (BinaryLinkObject ∪ LinkObject ∪ (Transfer ∖ (FlowTransferBefore ∪ TransferBefore)))&#45;&gt;Anything -->
<g id="edge20" class="edge">
<title>Link ∖ (BinaryLinkObject ∪ LinkObject ∪ (Transfer ∖ (FlowTransferBefore ∪ TransferBefore)))&#45;&gt;Anything</title>
<path fill="none" stroke="black" d="M458.46,-117.47C389.23,-152.7 238.64,-229.34 165.26,-266.68"/>
<polygon fill="none" stroke="black" points="163.68,-263.56 156.36,-271.21 166.86,-269.8 163.68,-263.56"/>
</g>
</g>
</svg>
