<?xml version="1.0" encoding="UTF-8" standalone="no"?>
<!DOCTYPE svg PUBLIC "-//W3C//DTD SVG 1.1//EN"
 "http://www.w3.org/Graphics/SVG/1.1/DTD/svg11.dtd">
<!-- Generated by graphviz version 10.0.1 (20240210.2158)
 -->
<!-- Title: RGL__DirectedAdjacencyGraph Pages: 1 -->
<svg width="904pt" height="390pt"
 viewBox="0.00 0.00 903.75 390.00" xmlns="http://www.w3.org/2000/svg" xmlns:xlink="http://www.w3.org/1999/xlink">
<g id="graph0" class="graph" transform="scale(1 1) rotate(0) translate(4 386)">
<title>RGL__DirectedAdjacencyGraph</title>
<polygon fill="white" stroke="none" points="-4,4 -4,-386 899.75,-386 899.75,4 -4,4"/>
<!-- Anything -->
<g id="node1" class="node">
<title>Anything</title>
<polygon fill="none" stroke="black" points="64.75,-171 0,-171 0,-135 64.75,-135 64.75,-171"/>
<text text-anchor="middle" x="32.38" y="-147.95" font-family="Times,serif" font-style="italic" font-size="14.00">Anything</text>
</g>
<!-- Link -->
<g id="node2" class="node">
<title>Link</title>
<polygon fill="none" stroke="black" points="167.62,-198 113.62,-198 113.62,-162 167.62,-162 167.62,-198"/>
<text text-anchor="middle" x="140.62" y="-174.95" font-family="Times,serif" font-style="italic" font-size="14.00">Link</text>
</g>
<!-- Link&#45;&gt;Anything -->
<g id="edge1" class="edge">
<title>Link&#45;&gt;Anything</title>
<path fill="none" stroke="black" d="M113.36,-173.33C102.05,-170.45 88.53,-167.02 75.86,-163.8"/>
<polygon fill="none" stroke="black" points="77.03,-160.48 66.48,-161.41 75.31,-167.27 77.03,-160.48"/>
</g>
<!-- BinaryLink -->
<g id="node3" class="node">
<title>BinaryLink</title>
<polygon fill="none" stroke="black" points="298.12,-294 221.38,-294 221.38,-258 298.12,-258 298.12,-294"/>
<text text-anchor="middle" x="259.75" y="-270.95" font-family="Times,serif" font-style="italic" font-size="14.00">BinaryLink</text>
</g>
<!-- BinaryLink&#45;&gt;Link -->
<g id="edge2" class="edge">
<title>BinaryLink&#45;&gt;Link</title>
<path fill="none" stroke="black" d="M228.75,-257.76C224.55,-254.94 220.36,-251.98 216.5,-249 199.46,-235.86 181.69,-219.62 167.74,-206.19"/>
<polygon fill="none" stroke="black" points="170.28,-203.78 160.68,-199.3 165.4,-208.79 170.28,-203.78"/>
</g>
<!-- BinaryLinkObject -->
<g id="node4" class="node">
<title>BinaryLinkObject</title>
<polygon fill="none" stroke="black" points="595.62,-198 482.88,-198 482.88,-162 595.62,-162 595.62,-198"/>
<text text-anchor="middle" x="539.25" y="-174.95" font-family="Times,serif" font-style="italic" font-size="14.00">BinaryLinkObject</text>
</g>
<!-- BinaryLinkObject&#45;&gt;BinaryLink -->
<g id="edge3" class="edge">
<title>BinaryLinkObject&#45;&gt;BinaryLink</title>
<path fill="none" stroke="black" d="M482.54,-197.16C442.41,-209.77 387.09,-227.65 339,-245 329.21,-248.53 318.81,-252.5 308.89,-256.39"/>
<polygon fill="none" stroke="black" points="307.8,-253.06 299.79,-259.99 310.37,-259.56 307.8,-253.06"/>
</g>
<!-- LinkObject -->
<g id="node6" class="node">
<title>LinkObject</title>
<polygon fill="none" stroke="black" points="428.5,-198 352.5,-198 352.5,-162 428.5,-162 428.5,-198"/>
<text text-anchor="middle" x="390.5" y="-174.95" font-family="Times,serif" font-style="italic" font-size="14.00">LinkObject</text>
</g>
<!-- BinaryLinkObject&#45;&gt;LinkObject -->
<g id="edge4" class="edge">
<title>BinaryLinkObject&#45;&gt;LinkObject</title>
<path fill="none" stroke="black" d="M482.77,-180C468.69,-180 453.68,-180 439.98,-180"/>
<polygon fill="none" stroke="black" points="440.34,-176.5 430.34,-180 440.34,-183.5 440.34,-176.5"/>
</g>
<!-- Transfer -->
<g id="node5" class="node">
<title>Transfer</title>
<polygon fill="none" stroke="black" points="421.38,-290 359.62,-290 359.62,-254 421.38,-254 421.38,-290"/>
<text text-anchor="middle" x="390.5" y="-266.95" font-family="Times,serif" font-style="italic" font-size="14.00">Transfer</text>
</g>
<!-- Transfer&#45;&gt;BinaryLink -->
<g id="edge5" class="edge">
<title>Transfer&#45;&gt;BinaryLink</title>
<path fill="none" stroke="black" d="M359.31,-272.94C344.58,-273.4 326.48,-273.96 309.83,-274.48"/>
<polygon fill="none" stroke="black" points="309.99,-270.97 300.1,-274.78 310.2,-277.97 309.99,-270.97"/>
</g>
<!-- Performance -->
<g id="node19" class="node">
<title>Performance</title>
<polygon fill="none" stroke="black" points="303,-240 216.5,-240 216.5,-204 303,-204 303,-240"/>
<text text-anchor="middle" x="259.75" y="-216.95" font-family="Times,serif" font-style="italic" font-size="14.00">Performance</text>
</g>
<!-- Transfer&#45;&gt;Performance -->
<g id="edge6" class="edge">
<title>Transfer&#45;&gt;Performance</title>
<path fill="none" stroke="black" d="M359.31,-260.28C345.79,-255.02 329.42,-248.67 313.95,-242.66"/>
<polygon fill="none" stroke="black" points="315.42,-239.48 304.83,-239.12 312.89,-246 315.42,-239.48"/>
</g>
<!-- LinkObject&#45;&gt;Link -->
<g id="edge7" class="edge">
<title>LinkObject&#45;&gt;Link</title>
<path fill="none" stroke="black" d="M352.12,-180C305.47,-180 226.12,-180 179.32,-180"/>
<polygon fill="none" stroke="black" points="179.39,-176.5 169.39,-180 179.39,-183.5 179.39,-176.5"/>
</g>
<!-- Object -->
<g id="node13" class="node">
<title>Object</title>
<polygon fill="none" stroke="black" points="286.75,-144 232.75,-144 232.75,-108 286.75,-108 286.75,-144"/>
<text text-anchor="middle" x="259.75" y="-120.95" font-family="Times,serif" font-style="italic" font-size="14.00">Object</text>
</g>
<!-- LinkObject&#45;&gt;Object -->
<g id="edge8" class="edge">
<title>LinkObject&#45;&gt;Object</title>
<path fill="none" stroke="black" d="M352.26,-164.38C334.92,-157.11 314.36,-148.48 297.12,-141.26"/>
<polygon fill="none" stroke="black" points="298.85,-138.18 288.28,-137.54 296.14,-144.64 298.85,-138.18"/>
</g>
<!-- HappensLink -->
<g id="node7" class="node">
<title>HappensLink</title>
<polygon fill="none" stroke="black" points="434.5,-363 346.5,-363 346.5,-327 434.5,-327 434.5,-363"/>
<text text-anchor="middle" x="390.5" y="-339.95" font-family="Times,serif" font-style="italic" font-size="14.00">HappensLink</text>
</g>
<!-- HappensLink&#45;&gt;BinaryLink -->
<g id="edge9" class="edge">
<title>HappensLink&#45;&gt;BinaryLink</title>
<path fill="none" stroke="black" d="M355,-326.51C339.58,-318.24 321.22,-308.41 304.82,-299.62"/>
<polygon fill="none" stroke="black" points="306.7,-296.66 296.24,-295.02 303.4,-302.83 306.7,-296.66"/>
</g>
<!-- HappensBefore -->
<g id="node8" class="node">
<title>HappensBefore</title>
<polygon fill="none" stroke="black" points="589.25,-382 489.25,-382 489.25,-346 589.25,-346 589.25,-382"/>
<text text-anchor="middle" x="539.25" y="-358.95" font-family="Times,serif" font-style="italic" font-size="14.00">HappensBefore</text>
</g>
<!-- HappensBefore&#45;&gt;HappensLink -->
<g id="edge10" class="edge">
<title>HappensBefore&#45;&gt;HappensLink</title>
<path fill="none" stroke="black" d="M488.98,-357.62C475.18,-355.83 460.1,-353.88 446.02,-352.06"/>
<polygon fill="none" stroke="black" points="446.85,-348.64 436.48,-350.82 445.95,-355.58 446.85,-348.64"/>
</g>
<!-- TransferBefore -->
<g id="node9" class="node">
<title>TransferBefore</title>
<polygon fill="none" stroke="black" points="734.25,-336 636.5,-336 636.5,-300 734.25,-300 734.25,-336"/>
<text text-anchor="middle" x="685.38" y="-312.95" font-family="Times,serif" font-style="italic" font-size="14.00">TransferBefore</text>
</g>
<!-- TransferBefore&#45;&gt;Transfer -->
<g id="edge11" class="edge">
<title>TransferBefore&#45;&gt;Transfer</title>
<path fill="none" stroke="black" d="M636.01,-316.43C593.92,-314.37 531.45,-309.68 478,-299 462.76,-295.95 446.39,-291.24 432.05,-286.59"/>
<polygon fill="none" stroke="black" points="433.55,-283.4 422.95,-283.56 431.33,-290.05 433.55,-283.4"/>
</g>
<!-- TransferBefore&#45;&gt;HappensBefore -->
<g id="edge12" class="edge">
<title>TransferBefore&#45;&gt;HappensBefore</title>
<path fill="none" stroke="black" d="M636.38,-333.32C624.85,-337 612.38,-340.98 600.37,-344.81"/>
<polygon fill="none" stroke="black" points="599.41,-341.44 590.95,-347.82 601.54,-348.11 599.41,-341.44"/>
</g>
<!-- FlowTransferBefore -->
<g id="node10" class="node">
<title>FlowTransferBefore</title>
<polygon fill="none" stroke="black" points="895.75,-290 770.25,-290 770.25,-254 895.75,-254 895.75,-290"/>
<text text-anchor="middle" x="833" y="-266.95" font-family="Times,serif" font-style="italic" font-size="14.00">FlowTransferBefore</text>
</g>
<!-- FlowTransferBefore&#45;&gt;TransferBefore -->
<g id="edge13" class="edge">
<title>FlowTransferBefore&#45;&gt;TransferBefore</title>
<path fill="none" stroke="black" d="M773.61,-290.44C764.28,-293.39 754.62,-296.44 745.29,-299.39"/>
<polygon fill="none" stroke="black" points="744.43,-295.99 735.95,-302.34 746.54,-302.67 744.43,-295.99"/>
</g>
<!-- FlowTransfer -->
<g id="node11" class="node">
<title>FlowTransfer</title>
<polygon fill="none" stroke="black" points="730.12,-263 640.62,-263 640.62,-227 730.12,-227 730.12,-263"/>
<text text-anchor="middle" x="685.38" y="-239.95" font-family="Times,serif" font-style="italic" font-size="14.00">FlowTransfer</text>
</g>
<!-- FlowTransferBefore&#45;&gt;FlowTransfer -->
<g id="edge14" class="edge">
<title>FlowTransferBefore&#45;&gt;FlowTransfer</title>
<path fill="none" stroke="black" d="M769.82,-260.47C760.37,-258.72 750.67,-256.92 741.38,-255.2"/>
<polygon fill="none" stroke="black" points="742.26,-251.8 731.79,-253.42 740.99,-258.69 742.26,-251.8"/>
</g>
<!-- FlowTransfer&#45;&gt;Transfer -->
<g id="edge15" class="edge">
<title>FlowTransfer&#45;&gt;Transfer</title>
<path fill="none" stroke="black" d="M640.2,-241.17C598.22,-238.43 533.43,-236.55 478,-245 462.91,-247.3 446.82,-251.74 432.67,-256.36"/>
<polygon fill="none" stroke="black" points="431.56,-253.04 423.23,-259.58 433.82,-259.67 431.56,-253.04"/>
</g>
<!-- MessageTransfer -->
<g id="node12" class="node">
<title>MessageTransfer</title>
<polygon fill="none" stroke="black" points="594.12,-290 484.38,-290 484.38,-254 594.12,-254 594.12,-290"/>
<text text-anchor="middle" x="539.25" y="-266.95" font-family="Times,serif" font-style="italic" font-size="14.00">MessageTransfer</text>
</g>
<!-- MessageTransfer&#45;&gt;Transfer -->
<g id="edge16" class="edge">
<title>MessageTransfer&#45;&gt;Transfer</title>
<path fill="none" stroke="black" d="M484.02,-272C467.07,-272 448.66,-272 432.75,-272"/>
<polygon fill="none" stroke="black" points="433.18,-268.5 423.18,-272 433.18,-275.5 433.18,-268.5"/>
</g>
<!-- Occurrence -->
<g id="node18" class="node">
<title>Occurrence</title>
<polygon fill="none" stroke="black" points="180.5,-144 100.75,-144 100.75,-108 180.5,-108 180.5,-144"/>
<text text-anchor="middle" x="140.62" y="-120.95" font-family="Times,serif" font-style="italic" font-size="14.00">Occurrence</text>
</g>
<!-- Object&#45;&gt;Occurrence -->
<g id="edge17" class="edge">
<title>Object&#45;&gt;Occurrence</title>
<path fill="none" stroke="black" d="M232.46,-126C220.56,-126 206.06,-126 192.17,-126"/>
<polygon fill="none" stroke="black" points="192.24,-122.5 182.24,-126 192.24,-129.5 192.24,-122.5"/>
</g>
<!-- Clock -->
<g id="node14" class="node">
<title>Clock</title>
<polygon fill="none" stroke="black" points="417.5,-90 363.5,-90 363.5,-54 417.5,-54 417.5,-90"/>
<text text-anchor="middle" x="390.5" y="-66.95" font-family="Times,serif" font-style="italic" font-size="14.00">Clock</text>
</g>
<!-- Clock&#45;&gt;Object -->
<g id="edge18" class="edge">
<title>Clock&#45;&gt;Object</title>
<path fill="none" stroke="black" d="M363.13,-83.06C344.21,-90.99 318.47,-101.79 297.53,-110.57"/>
<polygon fill="none" stroke="black" points="296.34,-107.28 288.48,-114.37 299.05,-113.73 296.34,-107.28"/>
</g>
<!-- UniversalClockLife -->
<g id="node15" class="node">
<title>UniversalClockLife</title>
<polygon fill="none" stroke="black" points="600.12,-36 478.38,-36 478.38,0 600.12,0 600.12,-36"/>
<text text-anchor="middle" x="539.25" y="-12.95" font-family="Times,serif" font-style="italic" font-size="14.00">UniversalClockLife</text>
</g>
<!-- UniversalClockLife&#45;&gt;Clock -->
<g id="edge19" class="edge">
<title>UniversalClockLife&#45;&gt;Clock</title>
<path fill="none" stroke="black" d="M488.16,-36.43C468.63,-43.62 446.65,-51.71 428.59,-58.35"/>
<polygon fill="none" stroke="black" points="427.5,-55.02 419.32,-61.76 429.92,-61.59 427.5,-55.02"/>
</g>
<!-- Life -->
<g id="node20" class="node">
<title>Life</title>
<polygon fill="none" stroke="black" points="417.5,-36 363.5,-36 363.5,0 417.5,0 417.5,-36"/>
<text text-anchor="middle" x="390.5" y="-12.95" font-family="Times,serif" font-style="italic" font-size="14.00">Life</text>
</g>
<!-- UniversalClockLife&#45;&gt;Life -->
<g id="edge20" class="edge">
<title>UniversalClockLife&#45;&gt;Life</title>
<path fill="none" stroke="black" d="M478.14,-18C461.52,-18 443.97,-18 429.04,-18"/>
<polygon fill="none" stroke="black" points="429.21,-14.5 419.21,-18 429.21,-21.5 429.21,-14.5"/>
</g>
<!-- DefaultMonitorLife -->
<g id="node16" class="node">
<title>DefaultMonitorLife</title>
<polygon fill="none" stroke="black" points="600.5,-90 478,-90 478,-54 600.5,-54 600.5,-90"/>
<text text-anchor="middle" x="539.25" y="-66.95" font-family="Times,serif" font-style="italic" font-size="14.00">DefaultMonitorLife</text>
</g>
<!-- DefaultMonitorLife&#45;&gt;Clock -->
<g id="edge21" class="edge">
<title>DefaultMonitorLife&#45;&gt;Clock</title>
<path fill="none" stroke="black" d="M477.71,-72C461.27,-72 443.93,-72 429.15,-72"/>
<polygon fill="none" stroke="black" points="429.43,-68.5 419.43,-72 429.43,-75.5 429.43,-68.5"/>
</g>
<!-- ChangeMonitor -->
<g id="node17" class="node">
<title>ChangeMonitor</title>
<polygon fill="none" stroke="black" points="442,-144 339,-144 339,-108 442,-108 442,-144"/>
<text text-anchor="middle" x="390.5" y="-120.95" font-family="Times,serif" font-style="italic" font-size="14.00">ChangeMonitor</text>
</g>
<!-- DefaultMonitorLife&#45;&gt;ChangeMonitor -->
<g id="edge22" class="edge">
<title>DefaultMonitorLife&#45;&gt;ChangeMonitor</title>
<path fill="none" stroke="black" d="M488.16,-90.43C476.47,-94.73 463.9,-99.36 451.82,-103.8"/>
<polygon fill="none" stroke="black" points="450.96,-100.39 442.79,-107.13 453.38,-106.96 450.96,-100.39"/>
</g>
<!-- DefaultMonitorLife&#45;&gt;Life -->
<g id="edge23" class="edge">
<title>DefaultMonitorLife&#45;&gt;Life</title>
<path fill="none" stroke="black" d="M488.16,-53.57C468.63,-46.38 446.65,-38.29 428.59,-31.65"/>
<polygon fill="none" stroke="black" points="429.92,-28.41 419.32,-28.24 427.5,-34.98 429.92,-28.41"/>
</g>
<!-- ChangeMonitor&#45;&gt;Object -->
<g id="edge24" class="edge">
<title>ChangeMonitor&#45;&gt;Object</title>
<path fill="none" stroke="black" d="M338.61,-126C325.3,-126 311.18,-126 298.67,-126"/>
<polygon fill="none" stroke="black" points="298.76,-122.5 288.76,-126 298.76,-129.5 298.76,-122.5"/>
</g>
<!-- Occurrence&#45;&gt;Anything -->
<g id="edge25" class="edge">
<title>Occurrence&#45;&gt;Anything</title>
<path fill="none" stroke="black" d="M100.36,-135.98C92.49,-137.98 84.18,-140.09 76.19,-142.12"/>
<polygon fill="none" stroke="black" points="75.49,-138.69 66.66,-144.54 77.21,-145.47 75.49,-138.69"/>
</g>
<!-- Performance&#45;&gt;Occurrence -->
<g id="edge26" class="edge">
<title>Performance&#45;&gt;Occurrence</title>
<path fill="none" stroke="black" d="M239.35,-203.77C223.84,-189.46 201.31,-169.31 180.5,-153 179.71,-152.38 178.9,-151.76 178.09,-151.13"/>
<polygon fill="none" stroke="black" points="180.44,-148.52 170.32,-145.39 176.28,-154.15 180.44,-148.52"/>
</g>
<!-- Life&#45;&gt;Occurrence -->
<g id="edge27" class="edge">
<title>Life&#45;&gt;Occurrence</title>
<path fill="none" stroke="black" d="M363.44,-29.35C322.62,-47.14 242.92,-81.86 191,-104.49"/>
<polygon fill="none" stroke="black" points="189.85,-101.17 182.08,-108.38 192.64,-107.59 189.85,-101.17"/>
</g>
</g>
</svg>
