<?xml version="1.0" encoding="UTF-8" standalone="no"?>
<!DOCTYPE svg PUBLIC "-//W3C//DTD SVG 1.1//EN"
 "http://www.w3.org/Graphics/SVG/1.1/DTD/svg11.dtd">
<!-- Generated by graphviz version 11.0.0 (20240428.1522)
 -->
<!-- Title: g Pages: 1 -->
<svg width="350pt" height="260pt"
 viewBox="0.00 0.00 350.00 260.00" xmlns="http://www.w3.org/2000/svg" xmlns:xlink="http://www.w3.org/1999/xlink">
<g id="graph0" class="graph" transform="scale(1 1) rotate(0) translate(4 256)">
<title>g</title>
<polygon fill="white" stroke="none" points="-4,4 -4,-256 346,-256 346,4 -4,4"/>
<!-- a -->
<g id="node1" class="node">
<title>a</title>
<polygon fill="none" stroke="gray" points="234,-252 180,-252 180,-216 234,-216 234,-252"/>
<text text-anchor="start" x="202.88" y="-229.95" font-family="Times,serif" font-style="italic" font-size="14.00">A</text>
</g>
<!-- b -->
<g id="node2" class="node">
<title>b</title>
<polygon fill="none" stroke="gray" points="198,-180 144,-180 144,-144 198,-144 198,-180"/>
<text text-anchor="start" x="166.88" y="-157.95" font-family="Times,serif" font-style="italic" font-size="14.00">B</text>
</g>
<!-- a&#45;&gt;b -->
<g id="edge2" class="edge">
<title>a&#45;&gt;b</title>
<path fill="none" stroke="gray" d="M192.94,-205.67C188.51,-197.05 183.75,-187.79 179.8,-180.1"/>
<polygon fill="none" stroke="gray" points="189.72,-207.06 197.41,-214.35 195.95,-203.86 189.72,-207.06"/>
</g>
<!-- c -->
<g id="node3" class="node">
<title>c</title>
<polygon fill="none" stroke="gray" points="270,-180 216,-180 216,-144 270,-144 270,-180"/>
<text text-anchor="start" x="238.5" y="-157.95" font-family="Times,serif" font-style="italic" font-size="14.00">C</text>
</g>
<!-- a&#45;&gt;c -->
<g id="edge3" class="edge">
<title>a&#45;&gt;c</title>
<path fill="none" stroke="gray" d="M221.06,-205.67C225.49,-197.05 230.25,-187.79 234.2,-180.1"/>
<polygon fill="none" stroke="gray" points="218.05,-203.86 216.59,-214.35 224.28,-207.06 218.05,-203.86"/>
</g>
<!-- b&#45;&gt;c -->
<!-- d -->
<g id="node4" class="node">
<title>d</title>
<polygon fill="none" stroke="gray" points="54,-108 0,-108 0,-72 54,-72 54,-108"/>
<text text-anchor="start" x="22.12" y="-85.95" font-family="Times,serif" font-style="italic" font-size="14.00">D</text>
</g>
<!-- b&#45;&gt;d -->
<g id="edge4" class="edge">
<title>b&#45;&gt;d</title>
<path fill="none" stroke="gray" d="M133.43,-142.74C108.64,-130.68 76.71,-115.17 54.32,-104.28"/>
<polygon fill="none" stroke="gray" points="131.69,-145.78 142.21,-147.01 134.75,-139.49 131.69,-145.78"/>
</g>
<!-- e -->
<g id="node5" class="node">
<title>e</title>
<polygon fill="none" stroke="gray" points="126,-108 72,-108 72,-72 126,-72 126,-108"/>
<text text-anchor="start" x="94.88" y="-85.95" font-family="Times,serif" font-style="italic" font-size="14.00">E</text>
</g>
<!-- b&#45;&gt;e -->
<g id="edge5" class="edge">
<title>b&#45;&gt;e</title>
<path fill="none" stroke="gray" d="M144.98,-135.7C135.64,-126.62 125.33,-116.6 116.84,-108.35"/>
<polygon fill="none" stroke="gray" points="142.51,-138.18 152.12,-142.64 147.39,-133.16 142.51,-138.18"/>
</g>
<!-- f -->
<g id="node6" class="node">
<title>f</title>
<polygon fill="none" stroke="gray" points="198,-108 144,-108 144,-72 198,-72 198,-108"/>
<text text-anchor="start" x="166.88" y="-85.95" font-family="Times,serif" font-style="italic" font-size="14.00">F</text>
</g>
<!-- b&#45;&gt;f -->
<g id="edge6" class="edge">
<title>b&#45;&gt;f</title>
<path fill="none" stroke="gray" d="M171,-132.24C171,-124.04 171,-115.37 171,-108.1"/>
<polygon fill="none" stroke="gray" points="167.5,-132.18 171,-142.18 174.5,-132.18 167.5,-132.18"/>
</g>
<!-- g -->
<g id="node7" class="node">
<title>g</title>
<polygon fill="none" stroke="gray" points="270,-108 216,-108 216,-72 270,-72 270,-108"/>
<text text-anchor="start" x="238.12" y="-85.95" font-family="Times,serif" font-style="italic" font-size="14.00">G</text>
</g>
<!-- c&#45;&gt;g -->
<g id="edge9" class="edge">
<title>c&#45;&gt;g</title>
<path fill="none" stroke="gray" d="M243,-132.24C243,-124.04 243,-115.37 243,-108.1"/>
<polygon fill="none" stroke="gray" points="239.5,-132.18 243,-142.18 246.5,-132.18 239.5,-132.18"/>
</g>
<!-- h -->
<g id="node8" class="node">
<title>h</title>
<polygon fill="none" stroke="gray" points="342,-108 288,-108 288,-72 342,-72 342,-108"/>
<text text-anchor="start" x="310.12" y="-85.95" font-family="Times,serif" font-style="italic" font-size="14.00">H</text>
</g>
<!-- c&#45;&gt;h -->
<g id="edge10" class="edge">
<title>c&#45;&gt;h</title>
<path fill="none" stroke="gray" d="M269.02,-135.7C278.36,-126.62 288.67,-116.6 297.16,-108.35"/>
<polygon fill="none" stroke="gray" points="266.61,-133.16 261.88,-142.64 271.49,-138.18 266.61,-133.16"/>
</g>
<!-- d&#45;&gt;e -->
<!-- e&#45;&gt;f -->
<!-- i -->
<g id="node9" class="node">
<title>i</title>
<polygon fill="none" stroke="gray" points="54,-36 0,-36 0,0 54,0 54,-36"/>
<text text-anchor="start" x="24.75" y="-13.95" font-family="Times,serif" font-style="italic" font-size="14.00">I</text>
</g>
<!-- e&#45;&gt;i -->
<g id="edge12" class="edge">
<title>e&#45;&gt;i</title>
<path fill="none" stroke="gray" d="M72.98,-63.7C63.64,-54.62 53.33,-44.6 44.84,-36.35"/>
<polygon fill="none" stroke="gray" points="70.51,-66.18 80.12,-70.64 75.39,-61.16 70.51,-66.18"/>
</g>
<!-- j -->
<g id="node10" class="node">
<title>j</title>
<polygon fill="none" stroke="gray" points="126,-36 72,-36 72,0 126,0 126,-36"/>
<text text-anchor="start" x="96" y="-13.95" font-family="Times,serif" font-style="italic" font-size="14.00">J</text>
</g>
<!-- e&#45;&gt;j -->
<g id="edge13" class="edge">
<title>e&#45;&gt;j</title>
<path fill="none" stroke="gray" d="M99,-60.24C99,-52.04 99,-43.37 99,-36.1"/>
<polygon fill="none" stroke="gray" points="95.5,-60.18 99,-70.18 102.5,-60.18 95.5,-60.18"/>
</g>
<!-- k -->
<g id="node11" class="node">
<title>k</title>
<polygon fill="none" stroke="gray" points="198,-36 144,-36 144,0 198,0 198,-36"/>
<text text-anchor="start" x="166.5" y="-13.95" font-family="Times,serif" font-style="italic" font-size="14.00">K</text>
</g>
<!-- e&#45;&gt;k -->
<g id="edge14" class="edge">
<title>e&#45;&gt;k</title>
<path fill="none" stroke="gray" d="M125.02,-63.7C134.36,-54.62 144.67,-44.6 153.16,-36.35"/>
<polygon fill="none" stroke="gray" points="122.61,-61.16 117.88,-70.64 127.49,-66.18 122.61,-61.16"/>
</g>
<!-- g&#45;&gt;h -->
<!-- l -->
<g id="node12" class="node">
<title>l</title>
<polygon fill="none" stroke="gray" points="270,-36 216,-36 216,0 270,0 270,-36"/>
<text text-anchor="start" x="239.25" y="-13.95" font-family="Times,serif" font-style="italic" font-size="14.00">L</text>
</g>
<!-- g&#45;&gt;l -->
<g id="edge17" class="edge">
<title>g&#45;&gt;l</title>
<path fill="none" stroke="gray" d="M243,-60.24C243,-52.04 243,-43.37 243,-36.1"/>
<polygon fill="none" stroke="gray" points="239.5,-60.18 243,-70.18 246.5,-60.18 239.5,-60.18"/>
</g>
<!-- m -->
<g id="node13" class="node">
<title>m</title>
<polygon fill="none" stroke="gray" points="342,-36 288,-36 288,0 342,0 342,-36"/>
<text text-anchor="start" x="309" y="-13.95" font-family="Times,serif" font-style="italic" font-size="14.00">M</text>
</g>
<!-- g&#45;&gt;m -->
<g id="edge18" class="edge">
<title>g&#45;&gt;m</title>
<path fill="none" stroke="gray" d="M269.02,-63.7C278.36,-54.62 288.67,-44.6 297.16,-36.35"/>
<polygon fill="none" stroke="gray" points="266.61,-61.16 261.88,-70.64 271.49,-66.18 266.61,-61.16"/>
</g>
<!-- i&#45;&gt;j -->
<!-- j&#45;&gt;k -->
<!-- l&#45;&gt;m -->
</g>
</svg>
