<?xml version="1.0" encoding="UTF-8" standalone="no"?>
<!DOCTYPE svg PUBLIC "-//W3C//DTD SVG 1.1//EN"
 "http://www.w3.org/Graphics/SVG/1.1/DTD/svg11.dtd">
<!-- Generated by graphviz version 10.0.1 (20240210.2158)
 -->
<!-- Title: g Pages: 1 -->
<svg width="566pt" height="260pt"
 viewBox="0.00 0.00 566.00 260.00" xmlns="http://www.w3.org/2000/svg" xmlns:xlink="http://www.w3.org/1999/xlink">
<g id="graph0" class="graph" transform="scale(1 1) rotate(0) translate(4 256)">
<title>g</title>
<polygon fill="white" stroke="none" points="-4,4 -4,-256 562,-256 562,4 -4,4"/>
<!-- a1 -->
<g id="node1" class="node">
<title>a1</title>
<text text-anchor="start" x="124.88" y="-229.95" font-family="Times,serif" font-style="italic" font-size="14.00">A</text>
<text text-anchor="start" x="133.12" y="-229.95" font-family="Times,serif" font-style="italic" baseline-shift="sub" font-size="14.00">i</text>
<text text-anchor="start" x="136.12" y="-229.95" font-family="Times,serif" baseline-shift="sub" font-size="14.00">,1</text>
</g>
<!-- a2 -->
<g id="node2" class="node">
<title>a2</title>
<text text-anchor="start" x="196.88" y="-229.95" font-family="Times,serif" font-style="italic" font-size="14.00">A</text>
<text text-anchor="start" x="205.12" y="-229.95" font-family="Times,serif" font-style="italic" baseline-shift="sub" font-size="14.00">i</text>
<text text-anchor="start" x="208.12" y="-229.95" font-family="Times,serif" baseline-shift="sub" font-size="14.00">,2</text>
</g>
<!-- a1&#45;&gt;a2 -->
<!-- bi -->
<g id="node5" class="node">
<title>bi</title>
<text text-anchor="start" x="237.38" y="-157.95" font-family="Times,serif" font-style="italic" font-size="14.00">B</text>
<text text-anchor="start" x="245.62" y="-157.95" font-family="Times,serif" font-style="italic" baseline-shift="sub" font-size="14.00">i</text>
</g>
<!-- a1&#45;&gt;bi -->
<g id="edge12" class="edge">
<title>a1&#45;&gt;bi</title>
<path fill="none" stroke="black" d="M170.73,-209.84C185.88,-200.02 203.21,-188.79 217.1,-179.79"/>
<polygon fill="none" stroke="black" points="168.9,-206.86 162.41,-215.23 172.71,-212.73 168.9,-206.86"/>
</g>
<!-- adots -->
<g id="node3" class="node">
<title>adots</title>
<text text-anchor="start" x="265.88" y="-229.95" font-family="Times,serif" font-style="italic" font-size="14.00">A</text>
<text text-anchor="start" x="274.12" y="-229.95" font-family="Times,serif" font-style="italic" baseline-shift="sub" font-size="14.00">i</text>
<text text-anchor="start" x="277.12" y="-229.95" font-family="Times,serif" baseline-shift="sub" font-size="14.00">,…</text>
</g>
<!-- a2&#45;&gt;adots -->
<!-- a2&#45;&gt;bi -->
<g id="edge13" class="edge">
<title>a2&#45;&gt;bi</title>
<path fill="none" stroke="black" d="M220.96,-205.85C225.48,-197.07 230.35,-187.59 234.37,-179.79"/>
<polygon fill="none" stroke="black" points="217.87,-204.22 216.41,-214.71 224.09,-207.42 217.87,-204.22"/>
</g>
<!-- aj -->
<g id="node4" class="node">
<title>aj</title>
<text text-anchor="start" x="342.38" y="-229.95" font-family="Times,serif" font-style="italic" font-size="14.00">A</text>
<text text-anchor="start" x="350.62" y="-229.95" font-family="Times,serif" font-style="italic" baseline-shift="sub" font-size="14.00">i</text>
<text text-anchor="start" x="353.62" y="-229.95" font-family="Times,serif" baseline-shift="sub" font-size="14.00">,</text>
<text text-anchor="start" x="356.62" y="-229.95" font-family="Times,serif" font-style="italic" baseline-shift="sub" font-size="14.00">j</text>
</g>
<!-- adots&#45;&gt;aj -->
<!-- adots&#45;&gt;bi -->
<g id="edge14" class="edge">
<title>adots&#45;&gt;bi</title>
<path fill="none" stroke="black" d="M265.04,-205.85C260.52,-197.07 255.65,-187.59 251.63,-179.79"/>
<polygon fill="none" stroke="black" points="261.91,-207.42 269.59,-214.71 268.13,-204.22 261.91,-207.42"/>
</g>
<!-- aj&#45;&gt;bi -->
<g id="edge15" class="edge">
<title>aj&#45;&gt;bi</title>
<path fill="none" stroke="black" d="M315.27,-209.84C300.12,-200.02 282.79,-188.79 268.9,-179.79"/>
<polygon fill="none" stroke="black" points="313.29,-212.73 323.59,-215.23 317.1,-206.86 313.29,-212.73"/>
</g>
<!-- bimc -->
<g id="node6" class="node">
<title>bimc</title>
<text text-anchor="start" x="191.25" y="-86.33" font-family="Times,serif" font-style="italic" font-size="14.00">B</text>
<text text-anchor="start" x="199.5" y="-86.33" font-family="Times,serif" font-style="italic" baseline-shift="sub" font-size="14.00">i</text>
<text text-anchor="start" x="202.5" y="-86.33" font-family="Times,serif" font-size="14.00">∖</text>
<text text-anchor="start" x="213.75" y="-86.33" font-family="Times,serif" font-style="italic" font-size="14.00">C</text>
</g>
<!-- bi&#45;&gt;bimc -->
<g id="edge16" class="edge">
<title>bi&#45;&gt;bimc</title>
<path fill="none" stroke="black" d="M229.04,-133.85C224.52,-125.07 219.65,-115.59 215.63,-107.79"/>
<polygon fill="none" stroke="black" points="225.91,-135.42 233.59,-142.71 232.13,-132.22 225.91,-135.42"/>
</g>
<!-- c -->
<g id="node7" class="node">
<title>c</title>
<text text-anchor="start" x="310.5" y="-85.95" font-family="Times,serif" font-style="italic" font-size="14.00">C</text>
</g>
<!-- bi&#45;&gt;c -->
<g id="edge17" class="edge">
<title>bi&#45;&gt;c</title>
<path fill="none" stroke="black" d="M268.56,-136.15C278.23,-126.75 289,-116.28 297.73,-107.79"/>
<polygon fill="none" stroke="black" points="266.24,-133.52 261.51,-143 271.12,-138.54 266.24,-133.52"/>
</g>
<!-- bimc&#45;&gt;c -->
<!-- e1 -->
<g id="node12" class="node">
<title>e1</title>
<text text-anchor="start" x="16.88" y="-13.95" font-family="Times,serif" font-style="italic" font-size="14.00">E</text>
<text text-anchor="start" x="25.12" y="-13.95" font-family="Times,serif" font-style="italic" baseline-shift="sub" font-size="14.00">i</text>
<text text-anchor="start" x="28.12" y="-13.95" font-family="Times,serif" baseline-shift="sub" font-size="14.00">,1</text>
</g>
<!-- bimc&#45;&gt;e1 -->
<g id="edge18" class="edge">
<title>bimc&#45;&gt;e1</title>
<path fill="none" stroke="black" d="M169.61,-76.26C140.33,-66.04 98.73,-50.98 63,-36 59.94,-34.72 56.76,-33.32 53.62,-31.89"/>
<polygon fill="none" stroke="black" points="168.16,-79.46 178.76,-79.43 170.45,-72.85 168.16,-79.46"/>
</g>
<!-- e2 -->
<g id="node13" class="node">
<title>e2</title>
<text text-anchor="start" x="88.88" y="-13.95" font-family="Times,serif" font-style="italic" font-size="14.00">E</text>
<text text-anchor="start" x="97.12" y="-13.95" font-family="Times,serif" font-style="italic" baseline-shift="sub" font-size="14.00">i</text>
<text text-anchor="start" x="100.12" y="-13.95" font-family="Times,serif" baseline-shift="sub" font-size="14.00">,2</text>
</g>
<!-- bimc&#45;&gt;e2 -->
<g id="edge19" class="edge">
<title>bimc&#45;&gt;e2</title>
<path fill="none" stroke="black" d="M171.27,-65.84C156.12,-56.02 138.79,-44.79 124.9,-35.79"/>
<polygon fill="none" stroke="black" points="169.29,-68.73 179.59,-71.23 173.1,-62.86 169.29,-68.73"/>
</g>
<!-- edots -->
<g id="node14" class="node">
<title>edots</title>
<text text-anchor="start" x="157.88" y="-13.95" font-family="Times,serif" font-style="italic" font-size="14.00">E</text>
<text text-anchor="start" x="166.12" y="-13.95" font-family="Times,serif" font-style="italic" baseline-shift="sub" font-size="14.00">i</text>
<text text-anchor="start" x="169.12" y="-13.95" font-family="Times,serif" baseline-shift="sub" font-size="14.00">,…</text>
</g>
<!-- bimc&#45;&gt;edots -->
<g id="edge20" class="edge">
<title>bimc&#45;&gt;edots</title>
<path fill="none" stroke="black" d="M193.04,-61.85C188.52,-53.07 183.65,-43.59 179.63,-35.79"/>
<polygon fill="none" stroke="black" points="189.91,-63.42 197.59,-70.71 196.13,-60.22 189.91,-63.42"/>
</g>
<!-- em -->
<g id="node15" class="node">
<title>em</title>
<text text-anchor="start" x="231.75" y="-13.95" font-family="Times,serif" font-style="italic" font-size="14.00">E</text>
<text text-anchor="start" x="240" y="-13.95" font-family="Times,serif" font-style="italic" baseline-shift="sub" font-size="14.00">i</text>
<text text-anchor="start" x="243" y="-13.95" font-family="Times,serif" font-style="italic" baseline-shift="sub" font-size="14.00">,m</text>
</g>
<!-- bimc&#45;&gt;em -->
<g id="edge21" class="edge">
<title>bimc&#45;&gt;em</title>
<path fill="none" stroke="black" d="M220.96,-61.85C225.48,-53.07 230.35,-43.59 234.37,-35.79"/>
<polygon fill="none" stroke="black" points="217.87,-60.22 216.41,-70.71 224.09,-63.42 217.87,-60.22"/>
</g>
<!-- d1 -->
<g id="node8" class="node">
<title>d1</title>
<text text-anchor="start" x="307.12" y="-13.95" font-family="Times,serif" font-style="italic" font-size="14.00">D</text>
<text text-anchor="start" x="316.88" y="-13.95" font-family="Times,serif" baseline-shift="sub" font-size="14.00">1</text>
</g>
<!-- c&#45;&gt;d1 -->
<g id="edge22" class="edge">
<title>c&#45;&gt;d1</title>
<path fill="none" stroke="black" d="M315,-60.69C315,-52.24 315,-43.25 315,-35.79"/>
<polygon fill="none" stroke="black" points="311.5,-60.54 315,-70.54 318.5,-60.54 311.5,-60.54"/>
</g>
<!-- d2 -->
<g id="node9" class="node">
<title>d2</title>
<text text-anchor="start" x="379.12" y="-13.95" font-family="Times,serif" font-style="italic" font-size="14.00">D</text>
<text text-anchor="start" x="388.88" y="-13.95" font-family="Times,serif" baseline-shift="sub" font-size="14.00">2</text>
</g>
<!-- c&#45;&gt;d2 -->
<g id="edge23" class="edge">
<title>c&#45;&gt;d2</title>
<path fill="none" stroke="black" d="M340.56,-64.15C350.23,-54.75 361,-44.28 369.73,-35.79"/>
<polygon fill="none" stroke="black" points="338.24,-61.52 333.51,-71 343.12,-66.54 338.24,-61.52"/>
</g>
<!-- ddots -->
<g id="node10" class="node">
<title>ddots</title>
<text text-anchor="start" x="448.12" y="-13.95" font-family="Times,serif" font-style="italic" font-size="14.00">D</text>
<text text-anchor="start" x="457.88" y="-13.95" font-family="Times,serif" baseline-shift="sub" font-size="14.00">…</text>
</g>
<!-- c&#45;&gt;ddots -->
<g id="edge24" class="edge">
<title>c&#45;&gt;ddots</title>
<path fill="none" stroke="black" d="M352.01,-71.01C377.15,-58.79 409.81,-42.91 432.4,-31.93"/>
<polygon fill="none" stroke="black" points="350.57,-67.82 343.11,-75.34 353.63,-74.11 350.57,-67.82"/>
</g>
<!-- dl -->
<g id="node11" class="node">
<title>dl</title>
<text text-anchor="start" x="524.62" y="-13.95" font-family="Times,serif" font-style="italic" font-size="14.00">D</text>
<text text-anchor="start" x="534.38" y="-13.95" font-family="Times,serif" font-style="italic" baseline-shift="sub" font-size="14.00">l</text>
</g>
<!-- c&#45;&gt;dl -->
<g id="edge25" class="edge">
<title>c&#45;&gt;dl</title>
<path fill="none" stroke="black" d="M352.69,-79.72C389.5,-70.24 446.85,-54.33 495,-36 497.97,-34.87 501.04,-33.6 504.07,-32.27"/>
<polygon fill="none" stroke="black" points="352.25,-76.22 343.43,-82.08 353.98,-83.01 352.25,-76.22"/>
</g>
<!-- d1&#45;&gt;d2 -->
<!-- d2&#45;&gt;ddots -->
<!-- ddots&#45;&gt;dl -->
<!-- e1&#45;&gt;e2 -->
<!-- e2&#45;&gt;edots -->
<!-- edots&#45;&gt;em -->
<!-- em&#45;&gt;c -->
</g>
</svg>
