<?xml version="1.0" encoding="UTF-8" standalone="no"?>
<!DOCTYPE svg PUBLIC "-//W3C//DTD SVG 1.1//EN"
 "http://www.w3.org/Graphics/SVG/1.1/DTD/svg11.dtd">
<!-- Generated by graphviz version 10.0.1 (20240210.2158)
 -->
<!-- Title: g Pages: 1 -->
<svg width="566pt" height="260pt"
 viewBox="0.00 0.00 566.00 260.00" xmlns="http://www.w3.org/2000/svg" xmlns:xlink="http://www.w3.org/1999/xlink">
<g id="graph0" class="graph" transform="scale(1 1) rotate(0) translate(4 256)">
<title>g</title>
<polygon fill="white" stroke="none" points="-4,4 -4,-256 562,-256 562,4 -4,4"/>
<!-- a1 -->
<g id="node1" class="node">
<title>a1</title>
<polygon fill="none" stroke="gray" points="162,-252 108,-252 108,-216 162,-216 162,-252"/>
<text text-anchor="start" x="127.88" y="-229.95" font-family="Times,serif" font-style="italic" font-size="14.00">A</text>
<text text-anchor="start" x="136.12" y="-229.95" font-family="Times,serif" baseline-shift="sub" font-size="14.00">1</text>
</g>
<!-- a2 -->
<g id="node2" class="node">
<title>a2</title>
<polygon fill="none" stroke="gray" points="234,-252 180,-252 180,-216 234,-216 234,-252"/>
<text text-anchor="start" x="199.88" y="-229.95" font-family="Times,serif" font-style="italic" font-size="14.00">A</text>
<text text-anchor="start" x="208.12" y="-229.95" font-family="Times,serif" baseline-shift="sub" font-size="14.00">2</text>
</g>
<!-- a1&#45;&gt;a2 -->
<!-- b -->
<g id="node5" class="node">
<title>b</title>
<polygon fill="none" stroke="gray" points="270,-180 216,-180 216,-144 270,-144 270,-180"/>
<text text-anchor="start" x="238.88" y="-157.95" font-family="Times,serif" font-style="italic" font-size="14.00">B</text>
</g>
<!-- a1&#45;&gt;b -->
<g id="edge12" class="edge">
<title>a1&#45;&gt;b</title>
<path fill="none" stroke="gray" d="M171.33,-209.46C186.07,-199.9 202.79,-189.06 216.37,-180.26"/>
<polygon fill="none" stroke="gray" points="169.73,-206.32 163.24,-214.69 173.54,-212.19 169.73,-206.32"/>
</g>
<!-- adots -->
<g id="node3" class="node">
<title>adots</title>
<polygon fill="none" stroke="gray" points="306,-252 252,-252 252,-216 306,-216 306,-252"/>
<text text-anchor="start" x="268.88" y="-229.95" font-family="Times,serif" font-style="italic" font-size="14.00">A</text>
<text text-anchor="start" x="277.12" y="-229.95" font-family="Times,serif" baseline-shift="sub" font-size="14.00">…</text>
</g>
<!-- a2&#45;&gt;adots -->
<!-- a2&#45;&gt;b -->
<g id="edge13" class="edge">
<title>a2&#45;&gt;b</title>
<path fill="none" stroke="gray" d="M221.06,-205.67C225.49,-197.05 230.25,-187.79 234.2,-180.1"/>
<polygon fill="none" stroke="gray" points="218.05,-203.86 216.59,-214.35 224.28,-207.06 218.05,-203.86"/>
</g>
<!-- aj -->
<g id="node4" class="node">
<title>aj</title>
<polygon fill="none" stroke="gray" points="378,-252 324,-252 324,-216 378,-216 378,-252"/>
<text text-anchor="start" x="345.38" y="-229.95" font-family="Times,serif" font-style="italic" font-size="14.00">A</text>
<text text-anchor="start" x="353.62" y="-229.95" font-family="Times,serif" font-style="italic" baseline-shift="sub" font-size="14.00">j</text>
</g>
<!-- adots&#45;&gt;aj -->
<!-- adots&#45;&gt;b -->
<g id="edge14" class="edge">
<title>adots&#45;&gt;b</title>
<path fill="none" stroke="gray" d="M264.94,-205.67C260.51,-197.05 255.75,-187.79 251.8,-180.1"/>
<polygon fill="none" stroke="gray" points="261.72,-207.06 269.41,-214.35 267.95,-203.86 261.72,-207.06"/>
</g>
<!-- aj&#45;&gt;b -->
<g id="edge15" class="edge">
<title>aj&#45;&gt;b</title>
<path fill="none" stroke="gray" d="M314.67,-209.46C299.93,-199.9 283.21,-189.06 269.63,-180.26"/>
<polygon fill="none" stroke="gray" points="312.46,-212.19 322.76,-214.69 316.27,-206.32 312.46,-212.19"/>
</g>
<!-- bmc -->
<g id="node6" class="node">
<title>bmc</title>
<polygon fill="none" stroke="gray" points="234,-108 180,-108 180,-72 234,-72 234,-108"/>
<text text-anchor="start" x="192.75" y="-86.33" font-family="Times,serif" font-style="italic" font-size="14.00">B</text>
<text text-anchor="start" x="201" y="-86.33" font-family="Times,serif" font-size="14.00">∖</text>
<text text-anchor="start" x="212.25" y="-86.33" font-family="Times,serif" font-style="italic" font-size="14.00">C</text>
</g>
<!-- b&#45;&gt;bmc -->
<g id="edge16" class="edge">
<title>b&#45;&gt;bmc</title>
<path fill="none" stroke="gray" d="M228.94,-133.67C224.51,-125.05 219.75,-115.79 215.8,-108.1"/>
<polygon fill="none" stroke="gray" points="225.72,-135.06 233.41,-142.35 231.95,-131.86 225.72,-135.06"/>
</g>
<!-- c -->
<g id="node7" class="node">
<title>c</title>
<polygon fill="none" stroke="gray" points="342,-108 288,-108 288,-72 342,-72 342,-108"/>
<text text-anchor="start" x="310.5" y="-85.95" font-family="Times,serif" font-style="italic" font-size="14.00">C</text>
</g>
<!-- b&#45;&gt;c -->
<g id="edge17" class="edge">
<title>b&#45;&gt;c</title>
<path fill="none" stroke="gray" d="M269.02,-135.7C278.36,-126.62 288.67,-116.6 297.16,-108.35"/>
<polygon fill="none" stroke="gray" points="266.61,-133.16 261.88,-142.64 271.49,-138.18 266.61,-133.16"/>
</g>
<!-- bmc&#45;&gt;c -->
<!-- e1 -->
<g id="node12" class="node">
<title>e1</title>
<polygon fill="none" stroke="gray" points="54,-36 0,-36 0,0 54,0 54,-36"/>
<text text-anchor="start" x="19.88" y="-13.95" font-family="Times,serif" font-style="italic" font-size="14.00">E</text>
<text text-anchor="start" x="28.12" y="-13.95" font-family="Times,serif" baseline-shift="sub" font-size="14.00">1</text>
</g>
<!-- bmc&#45;&gt;e1 -->
<g id="edge18" class="edge">
<title>bmc&#45;&gt;e1</title>
<path fill="none" stroke="gray" d="M169.07,-76.07C139.82,-65.86 98.51,-50.88 63,-36 60.2,-34.82 57.29,-33.55 54.4,-32.25"/>
<polygon fill="none" stroke="gray" points="167.63,-79.28 178.22,-79.25 169.92,-72.66 167.63,-79.28"/>
</g>
<!-- e2 -->
<g id="node13" class="node">
<title>e2</title>
<polygon fill="none" stroke="gray" points="126,-36 72,-36 72,0 126,0 126,-36"/>
<text text-anchor="start" x="91.88" y="-13.95" font-family="Times,serif" font-style="italic" font-size="14.00">E</text>
<text text-anchor="start" x="100.12" y="-13.95" font-family="Times,serif" baseline-shift="sub" font-size="14.00">2</text>
</g>
<!-- bmc&#45;&gt;e2 -->
<g id="edge19" class="edge">
<title>bmc&#45;&gt;e2</title>
<path fill="none" stroke="gray" d="M170.67,-65.46C155.93,-55.9 139.21,-45.06 125.63,-36.26"/>
<polygon fill="none" stroke="gray" points="168.46,-68.19 178.76,-70.69 172.27,-62.32 168.46,-68.19"/>
</g>
<!-- edots -->
<g id="node14" class="node">
<title>edots</title>
<polygon fill="none" stroke="gray" points="198,-36 144,-36 144,0 198,0 198,-36"/>
<text text-anchor="start" x="160.88" y="-13.95" font-family="Times,serif" font-style="italic" font-size="14.00">E</text>
<text text-anchor="start" x="169.12" y="-13.95" font-family="Times,serif" baseline-shift="sub" font-size="14.00">…</text>
</g>
<!-- bmc&#45;&gt;edots -->
<g id="edge20" class="edge">
<title>bmc&#45;&gt;edots</title>
<path fill="none" stroke="gray" d="M192.94,-61.67C188.51,-53.05 183.75,-43.79 179.8,-36.1"/>
<polygon fill="none" stroke="gray" points="189.72,-63.06 197.41,-70.35 195.95,-59.86 189.72,-63.06"/>
</g>
<!-- em -->
<g id="node15" class="node">
<title>em</title>
<polygon fill="none" stroke="gray" points="270,-36 216,-36 216,0 270,0 270,-36"/>
<text text-anchor="start" x="234.75" y="-13.95" font-family="Times,serif" font-style="italic" font-size="14.00">E</text>
<text text-anchor="start" x="243" y="-13.95" font-family="Times,serif" font-style="italic" baseline-shift="sub" font-size="14.00">m</text>
</g>
<!-- bmc&#45;&gt;em -->
<g id="edge21" class="edge">
<title>bmc&#45;&gt;em</title>
<path fill="none" stroke="gray" d="M221.06,-61.67C225.49,-53.05 230.25,-43.79 234.2,-36.1"/>
<polygon fill="none" stroke="gray" points="218.05,-59.86 216.59,-70.35 224.28,-63.06 218.05,-59.86"/>
</g>
<!-- d1 -->
<g id="node8" class="node">
<title>d1</title>
<polygon fill="none" stroke="gray" points="342,-36 288,-36 288,0 342,0 342,-36"/>
<text text-anchor="start" x="307.12" y="-13.95" font-family="Times,serif" font-style="italic" font-size="14.00">D</text>
<text text-anchor="start" x="316.88" y="-13.95" font-family="Times,serif" baseline-shift="sub" font-size="14.00">1</text>
</g>
<!-- c&#45;&gt;d1 -->
<g id="edge22" class="edge">
<title>c&#45;&gt;d1</title>
<path fill="none" stroke="gray" d="M315,-60.24C315,-52.04 315,-43.37 315,-36.1"/>
<polygon fill="none" stroke="gray" points="311.5,-60.18 315,-70.18 318.5,-60.18 311.5,-60.18"/>
</g>
<!-- d2 -->
<g id="node9" class="node">
<title>d2</title>
<polygon fill="none" stroke="gray" points="414,-36 360,-36 360,0 414,0 414,-36"/>
<text text-anchor="start" x="379.12" y="-13.95" font-family="Times,serif" font-style="italic" font-size="14.00">D</text>
<text text-anchor="start" x="388.88" y="-13.95" font-family="Times,serif" baseline-shift="sub" font-size="14.00">2</text>
</g>
<!-- c&#45;&gt;d2 -->
<g id="edge23" class="edge">
<title>c&#45;&gt;d2</title>
<path fill="none" stroke="gray" d="M341.02,-63.7C350.36,-54.62 360.67,-44.6 369.16,-36.35"/>
<polygon fill="none" stroke="gray" points="338.61,-61.16 333.88,-70.64 343.49,-66.18 338.61,-61.16"/>
</g>
<!-- ddots -->
<g id="node10" class="node">
<title>ddots</title>
<polygon fill="none" stroke="gray" points="486,-36 432,-36 432,0 486,0 486,-36"/>
<text text-anchor="start" x="448.12" y="-13.95" font-family="Times,serif" font-style="italic" font-size="14.00">D</text>
<text text-anchor="start" x="457.88" y="-13.95" font-family="Times,serif" baseline-shift="sub" font-size="14.00">…</text>
</g>
<!-- c&#45;&gt;ddots -->
<g id="edge24" class="edge">
<title>c&#45;&gt;ddots</title>
<path fill="none" stroke="gray" d="M352.57,-70.74C377.36,-58.68 409.29,-43.17 431.68,-32.28"/>
<polygon fill="none" stroke="gray" points="351.25,-67.49 343.79,-75.01 354.31,-73.78 351.25,-67.49"/>
</g>
<!-- dl -->
<g id="node11" class="node">
<title>dl</title>
<polygon fill="none" stroke="gray" points="558,-36 504,-36 504,0 558,0 558,-36"/>
<text text-anchor="start" x="524.62" y="-13.95" font-family="Times,serif" font-style="italic" font-size="14.00">D</text>
<text text-anchor="start" x="534.38" y="-13.95" font-family="Times,serif" font-style="italic" baseline-shift="sub" font-size="14.00">l</text>
</g>
<!-- c&#45;&gt;dl -->
<g id="edge25" class="edge">
<title>c&#45;&gt;dl</title>
<path fill="none" stroke="gray" d="M353.01,-79.64C389.83,-70.15 446.99,-54.28 495,-36 497.84,-34.92 500.77,-33.71 503.67,-32.44"/>
<polygon fill="none" stroke="gray" points="352.56,-76.14 343.73,-82 354.29,-82.93 352.56,-76.14"/>
</g>
<!-- d1&#45;&gt;d2 -->
<!-- d2&#45;&gt;ddots -->
<!-- ddots&#45;&gt;dl -->
<!-- e1&#45;&gt;e2 -->
<!-- e2&#45;&gt;edots -->
<!-- edots&#45;&gt;em -->
<!-- em&#45;&gt;c -->
</g>
</svg>
