<?xml version="1.0" encoding="UTF-8" standalone="no"?>
<!DOCTYPE svg PUBLIC "-//W3C//DTD SVG 1.1//EN"
 "http://www.w3.org/Graphics/SVG/1.1/DTD/svg11.dtd">
<!-- Generated by graphviz version 10.0.1 (20240210.2158)
 -->
<!-- Title: g Pages: 1 -->
<svg width="566pt" height="188pt"
 viewBox="0.00 0.00 566.00 188.00" xmlns="http://www.w3.org/2000/svg" xmlns:xlink="http://www.w3.org/1999/xlink">
<g id="graph0" class="graph" transform="scale(1 1) rotate(0) translate(4 184)">
<title>g</title>
<polygon fill="white" stroke="none" points="-4,4 -4,-184 562,-184 562,4 -4,4"/>
<!-- a1 -->
<g id="node1" class="node">
<title>a1</title>
<polygon fill="none" stroke="gray" points="198,-180 144,-180 144,-144 198,-144 198,-180"/>
<text text-anchor="start" x="163.88" y="-157.95" font-family="Times,serif" font-style="italic" font-size="14.00">A</text>
<text text-anchor="start" x="172.12" y="-157.95" font-family="Times,serif" baseline-shift="sub" font-size="14.00">1</text>
</g>
<!-- a2 -->
<g id="node2" class="node">
<title>a2</title>
<polygon fill="none" stroke="gray" points="270,-180 216,-180 216,-144 270,-144 270,-180"/>
<text text-anchor="start" x="235.88" y="-157.95" font-family="Times,serif" font-style="italic" font-size="14.00">A</text>
<text text-anchor="start" x="244.12" y="-157.95" font-family="Times,serif" baseline-shift="sub" font-size="14.00">2</text>
</g>
<!-- a1&#45;&gt;a2 -->
<!-- bmc -->
<g id="node5" class="node">
<title>bmc</title>
<polygon fill="none" stroke="gray" points="270,-108 216,-108 216,-72 270,-72 270,-108"/>
<text text-anchor="start" x="228.75" y="-86.33" font-family="Times,serif" font-style="italic" font-size="14.00">B</text>
<text text-anchor="start" x="237" y="-86.33" font-family="Times,serif" font-size="14.00">∖</text>
<text text-anchor="start" x="248.25" y="-86.33" font-family="Times,serif" font-style="italic" font-size="14.00">C</text>
</g>
<!-- a1&#45;&gt;bmc -->
<g id="edge12" class="edge">
<title>a1&#45;&gt;bmc</title>
<path fill="none" stroke="gray" d="M197.02,-135.7C206.36,-126.62 216.67,-116.6 225.16,-108.35"/>
<polygon fill="none" stroke="gray" points="194.61,-133.16 189.88,-142.64 199.49,-138.18 194.61,-133.16"/>
</g>
<!-- c -->
<g id="node6" class="node">
<title>c</title>
<polygon fill="none" stroke="gray" points="342,-108 288,-108 288,-72 342,-72 342,-108"/>
<text text-anchor="start" x="310.5" y="-85.95" font-family="Times,serif" font-style="italic" font-size="14.00">C</text>
</g>
<!-- a1&#45;&gt;c -->
<g id="edge16" class="edge">
<title>a1&#45;&gt;c</title>
<path fill="none" stroke="gray" d="M208.57,-142.74C233.36,-130.68 265.29,-115.17 287.68,-104.28"/>
<polygon fill="none" stroke="gray" points="207.25,-139.49 199.79,-147.01 210.31,-145.78 207.25,-139.49"/>
</g>
<!-- adots -->
<g id="node3" class="node">
<title>adots</title>
<polygon fill="none" stroke="gray" points="342,-180 288,-180 288,-144 342,-144 342,-180"/>
<text text-anchor="start" x="304.88" y="-157.95" font-family="Times,serif" font-style="italic" font-size="14.00">A</text>
<text text-anchor="start" x="313.12" y="-157.95" font-family="Times,serif" baseline-shift="sub" font-size="14.00">…</text>
</g>
<!-- a2&#45;&gt;adots -->
<!-- a2&#45;&gt;bmc -->
<g id="edge13" class="edge">
<title>a2&#45;&gt;bmc</title>
<path fill="none" stroke="gray" d="M243,-132.24C243,-124.04 243,-115.37 243,-108.1"/>
<polygon fill="none" stroke="gray" points="239.5,-132.18 243,-142.18 246.5,-132.18 239.5,-132.18"/>
</g>
<!-- a2&#45;&gt;c -->
<g id="edge17" class="edge">
<title>a2&#45;&gt;c</title>
<path fill="none" stroke="gray" d="M269.02,-135.7C278.36,-126.62 288.67,-116.6 297.16,-108.35"/>
<polygon fill="none" stroke="gray" points="266.61,-133.16 261.88,-142.64 271.49,-138.18 266.61,-133.16"/>
</g>
<!-- aj -->
<g id="node4" class="node">
<title>aj</title>
<polygon fill="none" stroke="gray" points="414,-180 360,-180 360,-144 414,-144 414,-180"/>
<text text-anchor="start" x="381.38" y="-157.95" font-family="Times,serif" font-style="italic" font-size="14.00">A</text>
<text text-anchor="start" x="389.62" y="-157.95" font-family="Times,serif" font-style="italic" baseline-shift="sub" font-size="14.00">j</text>
</g>
<!-- adots&#45;&gt;aj -->
<!-- adots&#45;&gt;bmc -->
<g id="edge14" class="edge">
<title>adots&#45;&gt;bmc</title>
<path fill="none" stroke="gray" d="M288.98,-135.7C279.64,-126.62 269.33,-116.6 260.84,-108.35"/>
<polygon fill="none" stroke="gray" points="286.51,-138.18 296.12,-142.64 291.39,-133.16 286.51,-138.18"/>
</g>
<!-- adots&#45;&gt;c -->
<g id="edge18" class="edge">
<title>adots&#45;&gt;c</title>
<path fill="none" stroke="gray" d="M315,-132.24C315,-124.04 315,-115.37 315,-108.1"/>
<polygon fill="none" stroke="gray" points="311.5,-132.18 315,-142.18 318.5,-132.18 311.5,-132.18"/>
</g>
<!-- aj&#45;&gt;bmc -->
<g id="edge15" class="edge">
<title>aj&#45;&gt;bmc</title>
<path fill="none" stroke="gray" d="M349.43,-142.74C324.64,-130.68 292.71,-115.17 270.32,-104.28"/>
<polygon fill="none" stroke="gray" points="347.69,-145.78 358.21,-147.01 350.75,-139.49 347.69,-145.78"/>
</g>
<!-- aj&#45;&gt;c -->
<g id="edge19" class="edge">
<title>aj&#45;&gt;c</title>
<path fill="none" stroke="gray" d="M360.98,-135.7C351.64,-126.62 341.33,-116.6 332.84,-108.35"/>
<polygon fill="none" stroke="gray" points="358.51,-138.18 368.12,-142.64 363.39,-133.16 358.51,-138.18"/>
</g>
<!-- bmc&#45;&gt;c -->
<!-- e1 -->
<g id="node11" class="node">
<title>e1</title>
<polygon fill="none" stroke="gray" points="54,-36 0,-36 0,0 54,0 54,-36"/>
<text text-anchor="start" x="19.88" y="-13.95" font-family="Times,serif" font-style="italic" font-size="14.00">E</text>
<text text-anchor="start" x="28.12" y="-13.95" font-family="Times,serif" baseline-shift="sub" font-size="14.00">1</text>
</g>
<!-- bmc&#45;&gt;e1 -->
<g id="edge20" class="edge">
<title>bmc&#45;&gt;e1</title>
<path fill="none" stroke="gray" d="M204.99,-79.64C168.17,-70.15 111.01,-54.28 63,-36 60.16,-34.92 57.23,-33.71 54.33,-32.44"/>
<polygon fill="none" stroke="gray" points="203.71,-82.93 214.27,-82 205.44,-76.14 203.71,-82.93"/>
</g>
<!-- e2 -->
<g id="node12" class="node">
<title>e2</title>
<polygon fill="none" stroke="gray" points="126,-36 72,-36 72,0 126,0 126,-36"/>
<text text-anchor="start" x="91.88" y="-13.95" font-family="Times,serif" font-style="italic" font-size="14.00">E</text>
<text text-anchor="start" x="100.12" y="-13.95" font-family="Times,serif" baseline-shift="sub" font-size="14.00">2</text>
</g>
<!-- bmc&#45;&gt;e2 -->
<g id="edge21" class="edge">
<title>bmc&#45;&gt;e2</title>
<path fill="none" stroke="gray" d="M205.43,-70.74C180.64,-58.68 148.71,-43.17 126.32,-32.28"/>
<polygon fill="none" stroke="gray" points="203.69,-73.78 214.21,-75.01 206.75,-67.49 203.69,-73.78"/>
</g>
<!-- edots -->
<g id="node13" class="node">
<title>edots</title>
<polygon fill="none" stroke="gray" points="198,-36 144,-36 144,0 198,0 198,-36"/>
<text text-anchor="start" x="160.88" y="-13.95" font-family="Times,serif" font-style="italic" font-size="14.00">E</text>
<text text-anchor="start" x="169.12" y="-13.95" font-family="Times,serif" baseline-shift="sub" font-size="14.00">…</text>
</g>
<!-- bmc&#45;&gt;edots -->
<g id="edge22" class="edge">
<title>bmc&#45;&gt;edots</title>
<path fill="none" stroke="gray" d="M216.98,-63.7C207.64,-54.62 197.33,-44.6 188.84,-36.35"/>
<polygon fill="none" stroke="gray" points="214.51,-66.18 224.12,-70.64 219.39,-61.16 214.51,-66.18"/>
</g>
<!-- em -->
<g id="node14" class="node">
<title>em</title>
<polygon fill="none" stroke="gray" points="270,-36 216,-36 216,0 270,0 270,-36"/>
<text text-anchor="start" x="234.75" y="-13.95" font-family="Times,serif" font-style="italic" font-size="14.00">E</text>
<text text-anchor="start" x="243" y="-13.95" font-family="Times,serif" font-style="italic" baseline-shift="sub" font-size="14.00">m</text>
</g>
<!-- bmc&#45;&gt;em -->
<g id="edge23" class="edge">
<title>bmc&#45;&gt;em</title>
<path fill="none" stroke="gray" d="M243,-60.24C243,-52.04 243,-43.37 243,-36.1"/>
<polygon fill="none" stroke="gray" points="239.5,-60.18 243,-70.18 246.5,-60.18 239.5,-60.18"/>
</g>
<!-- d1 -->
<g id="node7" class="node">
<title>d1</title>
<polygon fill="none" stroke="gray" points="342,-36 288,-36 288,0 342,0 342,-36"/>
<text text-anchor="start" x="307.12" y="-13.95" font-family="Times,serif" font-style="italic" font-size="14.00">D</text>
<text text-anchor="start" x="316.88" y="-13.95" font-family="Times,serif" baseline-shift="sub" font-size="14.00">1</text>
</g>
<!-- c&#45;&gt;d1 -->
<g id="edge24" class="edge">
<title>c&#45;&gt;d1</title>
<path fill="none" stroke="gray" d="M315,-60.24C315,-52.04 315,-43.37 315,-36.1"/>
<polygon fill="none" stroke="gray" points="311.5,-60.18 315,-70.18 318.5,-60.18 311.5,-60.18"/>
</g>
<!-- d2 -->
<g id="node8" class="node">
<title>d2</title>
<polygon fill="none" stroke="gray" points="414,-36 360,-36 360,0 414,0 414,-36"/>
<text text-anchor="start" x="379.12" y="-13.95" font-family="Times,serif" font-style="italic" font-size="14.00">D</text>
<text text-anchor="start" x="388.88" y="-13.95" font-family="Times,serif" baseline-shift="sub" font-size="14.00">2</text>
</g>
<!-- c&#45;&gt;d2 -->
<g id="edge25" class="edge">
<title>c&#45;&gt;d2</title>
<path fill="none" stroke="gray" d="M341.02,-63.7C350.36,-54.62 360.67,-44.6 369.16,-36.35"/>
<polygon fill="none" stroke="gray" points="338.61,-61.16 333.88,-70.64 343.49,-66.18 338.61,-61.16"/>
</g>
<!-- ddots -->
<g id="node9" class="node">
<title>ddots</title>
<polygon fill="none" stroke="gray" points="486,-36 432,-36 432,0 486,0 486,-36"/>
<text text-anchor="start" x="448.12" y="-13.95" font-family="Times,serif" font-style="italic" font-size="14.00">D</text>
<text text-anchor="start" x="457.88" y="-13.95" font-family="Times,serif" baseline-shift="sub" font-size="14.00">…</text>
</g>
<!-- c&#45;&gt;ddots -->
<g id="edge26" class="edge">
<title>c&#45;&gt;ddots</title>
<path fill="none" stroke="gray" d="M352.57,-70.74C377.36,-58.68 409.29,-43.17 431.68,-32.28"/>
<polygon fill="none" stroke="gray" points="351.25,-67.49 343.79,-75.01 354.31,-73.78 351.25,-67.49"/>
</g>
<!-- dl -->
<g id="node10" class="node">
<title>dl</title>
<polygon fill="none" stroke="gray" points="558,-36 504,-36 504,0 558,0 558,-36"/>
<text text-anchor="start" x="524.62" y="-13.95" font-family="Times,serif" font-style="italic" font-size="14.00">D</text>
<text text-anchor="start" x="534.38" y="-13.95" font-family="Times,serif" font-style="italic" baseline-shift="sub" font-size="14.00">l</text>
</g>
<!-- c&#45;&gt;dl -->
<g id="edge27" class="edge">
<title>c&#45;&gt;dl</title>
<path fill="none" stroke="gray" d="M353.01,-79.64C389.83,-70.15 446.99,-54.28 495,-36 497.84,-34.92 500.77,-33.71 503.67,-32.44"/>
<polygon fill="none" stroke="gray" points="352.56,-76.14 343.73,-82 354.29,-82.93 352.56,-76.14"/>
</g>
<!-- d1&#45;&gt;d2 -->
<!-- d2&#45;&gt;ddots -->
<!-- ddots&#45;&gt;dl -->
<!-- e1&#45;&gt;e2 -->
<!-- e2&#45;&gt;edots -->
<!-- edots&#45;&gt;em -->
<!-- em&#45;&gt;c -->
</g>
</svg>
