<?xml version="1.0" encoding="UTF-8" standalone="no"?>
<!DOCTYPE svg PUBLIC "-//W3C//DTD SVG 1.1//EN"
 "http://www.w3.org/Graphics/SVG/1.1/DTD/svg11.dtd">
<!-- Generated by graphviz version 10.0.1 (20240210.2158)
 -->
<!-- Title: g Pages: 1 -->
<svg width="458pt" height="332pt"
 viewBox="0.00 0.00 458.00 332.00" xmlns="http://www.w3.org/2000/svg" xmlns:xlink="http://www.w3.org/1999/xlink">
<g id="graph0" class="graph" transform="scale(1 1) rotate(0) translate(4 328)">
<title>g</title>
<polygon fill="white" stroke="none" points="-4,4 -4,-328 454,-328 454,4 -4,4"/>
<!-- a1 -->
<g id="node1" class="node">
<title>a1</title>
<polygon fill="none" stroke="gray" points="126,-324 72,-324 72,-288 126,-288 126,-324"/>
<text text-anchor="start" x="91.88" y="-301.95" font-family="Times,serif" font-style="italic" font-size="14.00">A</text>
<text text-anchor="start" x="100.12" y="-301.95" font-family="Times,serif" baseline-shift="sub" font-size="14.00">1</text>
</g>
<!-- a2 -->
<g id="node2" class="node">
<title>a2</title>
<polygon fill="none" stroke="gray" points="198,-324 144,-324 144,-288 198,-288 198,-324"/>
<text text-anchor="start" x="163.88" y="-301.95" font-family="Times,serif" font-style="italic" font-size="14.00">A</text>
<text text-anchor="start" x="172.12" y="-301.95" font-family="Times,serif" baseline-shift="sub" font-size="14.00">2</text>
</g>
<!-- a1&#45;&gt;a2 -->
<!-- b -->
<g id="node5" class="node">
<title>b</title>
<polygon fill="none" stroke="gray" points="234,-252 180,-252 180,-216 234,-216 234,-252"/>
<text text-anchor="start" x="202.88" y="-229.95" font-family="Times,serif" font-style="italic" font-size="14.00">B</text>
</g>
<!-- a1&#45;&gt;b -->
<g id="edge12" class="edge">
<title>a1&#45;&gt;b</title>
<path fill="none" stroke="gray" d="M135.33,-281.46C150.07,-271.9 166.79,-261.06 180.37,-252.26"/>
<polygon fill="none" stroke="gray" points="133.73,-278.32 127.24,-286.69 137.54,-284.19 133.73,-278.32"/>
</g>
<!-- adots -->
<g id="node3" class="node">
<title>adots</title>
<polygon fill="none" stroke="gray" points="270,-324 216,-324 216,-288 270,-288 270,-324"/>
<text text-anchor="start" x="232.88" y="-301.95" font-family="Times,serif" font-style="italic" font-size="14.00">A</text>
<text text-anchor="start" x="241.12" y="-301.95" font-family="Times,serif" baseline-shift="sub" font-size="14.00">…</text>
</g>
<!-- a2&#45;&gt;adots -->
<!-- a2&#45;&gt;b -->
<g id="edge13" class="edge">
<title>a2&#45;&gt;b</title>
<path fill="none" stroke="gray" d="M185.06,-277.67C189.49,-269.05 194.25,-259.79 198.2,-252.1"/>
<polygon fill="none" stroke="gray" points="182.05,-275.86 180.59,-286.35 188.28,-279.06 182.05,-275.86"/>
</g>
<!-- aj -->
<g id="node4" class="node">
<title>aj</title>
<polygon fill="none" stroke="gray" points="342,-324 288,-324 288,-288 342,-288 342,-324"/>
<text text-anchor="start" x="309.38" y="-301.95" font-family="Times,serif" font-style="italic" font-size="14.00">A</text>
<text text-anchor="start" x="317.62" y="-301.95" font-family="Times,serif" font-style="italic" baseline-shift="sub" font-size="14.00">j</text>
</g>
<!-- adots&#45;&gt;aj -->
<!-- adots&#45;&gt;b -->
<g id="edge14" class="edge">
<title>adots&#45;&gt;b</title>
<path fill="none" stroke="gray" d="M228.94,-277.67C224.51,-269.05 219.75,-259.79 215.8,-252.1"/>
<polygon fill="none" stroke="gray" points="225.72,-279.06 233.41,-286.35 231.95,-275.86 225.72,-279.06"/>
</g>
<!-- aj&#45;&gt;b -->
<g id="edge15" class="edge">
<title>aj&#45;&gt;b</title>
<path fill="none" stroke="gray" d="M278.67,-281.46C263.93,-271.9 247.21,-261.06 233.63,-252.26"/>
<polygon fill="none" stroke="gray" points="276.46,-284.19 286.76,-286.69 280.27,-278.32 276.46,-284.19"/>
</g>
<!-- bmc -->
<g id="node6" class="node">
<title>bmc</title>
<polygon fill="none" stroke="gray" points="198,-180 144,-180 144,-144 198,-144 198,-180"/>
<text text-anchor="start" x="156.75" y="-158.32" font-family="Times,serif" font-style="italic" font-size="14.00">B</text>
<text text-anchor="start" x="165" y="-158.32" font-family="Times,serif" font-size="14.00">∖</text>
<text text-anchor="start" x="176.25" y="-158.32" font-family="Times,serif" font-style="italic" font-size="14.00">C</text>
</g>
<!-- b&#45;&gt;bmc -->
<g id="edge16" class="edge">
<title>b&#45;&gt;bmc</title>
<path fill="none" stroke="gray" d="M192.94,-205.67C188.51,-197.05 183.75,-187.79 179.8,-180.1"/>
<polygon fill="none" stroke="gray" points="189.72,-207.06 197.41,-214.35 195.95,-203.86 189.72,-207.06"/>
</g>
<!-- bic -->
<g id="node7" class="node">
<title>bic</title>
<polygon fill="none" stroke="gray" points="270,-180 216,-180 216,-144 270,-144 270,-180"/>
<text text-anchor="start" x="226.5" y="-157.95" font-family="Times,serif" font-style="italic" font-size="14.00">B</text>
<text text-anchor="start" x="234.75" y="-157.95" font-family="Times,serif" font-size="14.00"> ∩ </text>
<text text-anchor="start" x="250.5" y="-157.95" font-family="Times,serif" font-style="italic" font-size="14.00">C</text>
</g>
<!-- b&#45;&gt;bic -->
<g id="edge17" class="edge">
<title>b&#45;&gt;bic</title>
<path fill="none" stroke="gray" d="M221.06,-205.67C225.49,-197.05 230.25,-187.79 234.2,-180.1"/>
<polygon fill="none" stroke="gray" points="218.05,-203.86 216.59,-214.35 224.28,-207.06 218.05,-203.86"/>
</g>
<!-- bmc&#45;&gt;bic -->
<!-- e1 -->
<g id="node12" class="node">
<title>e1</title>
<polygon fill="none" stroke="gray" points="54,-108 0,-108 0,-72 54,-72 54,-108"/>
<text text-anchor="start" x="19.88" y="-85.95" font-family="Times,serif" font-style="italic" font-size="14.00">E</text>
<text text-anchor="start" x="28.12" y="-85.95" font-family="Times,serif" baseline-shift="sub" font-size="14.00">1</text>
</g>
<!-- bmc&#45;&gt;e1 -->
<g id="edge19" class="edge">
<title>bmc&#45;&gt;e1</title>
<path fill="none" stroke="gray" d="M133.43,-142.74C108.64,-130.68 76.71,-115.17 54.32,-104.28"/>
<polygon fill="none" stroke="gray" points="131.69,-145.78 142.21,-147.01 134.75,-139.49 131.69,-145.78"/>
</g>
<!-- e2 -->
<g id="node13" class="node">
<title>e2</title>
<polygon fill="none" stroke="gray" points="126,-108 72,-108 72,-72 126,-72 126,-108"/>
<text text-anchor="start" x="91.88" y="-85.95" font-family="Times,serif" font-style="italic" font-size="14.00">E</text>
<text text-anchor="start" x="100.12" y="-85.95" font-family="Times,serif" baseline-shift="sub" font-size="14.00">2</text>
</g>
<!-- bmc&#45;&gt;e2 -->
<g id="edge20" class="edge">
<title>bmc&#45;&gt;e2</title>
<path fill="none" stroke="gray" d="M144.98,-135.7C135.64,-126.62 125.33,-116.6 116.84,-108.35"/>
<polygon fill="none" stroke="gray" points="142.51,-138.18 152.12,-142.64 147.39,-133.16 142.51,-138.18"/>
</g>
<!-- edots -->
<g id="node14" class="node">
<title>edots</title>
<polygon fill="none" stroke="gray" points="198,-108 144,-108 144,-72 198,-72 198,-108"/>
<text text-anchor="start" x="160.88" y="-85.95" font-family="Times,serif" font-style="italic" font-size="14.00">E</text>
<text text-anchor="start" x="169.12" y="-85.95" font-family="Times,serif" baseline-shift="sub" font-size="14.00">…</text>
</g>
<!-- bmc&#45;&gt;edots -->
<g id="edge21" class="edge">
<title>bmc&#45;&gt;edots</title>
<path fill="none" stroke="gray" d="M171,-132.24C171,-124.04 171,-115.37 171,-108.1"/>
<polygon fill="none" stroke="gray" points="167.5,-132.18 171,-142.18 174.5,-132.18 167.5,-132.18"/>
</g>
<!-- em -->
<g id="node15" class="node">
<title>em</title>
<polygon fill="none" stroke="gray" points="270,-108 216,-108 216,-72 270,-72 270,-108"/>
<text text-anchor="start" x="234.75" y="-85.95" font-family="Times,serif" font-style="italic" font-size="14.00">E</text>
<text text-anchor="start" x="243" y="-85.95" font-family="Times,serif" font-style="italic" baseline-shift="sub" font-size="14.00">m</text>
</g>
<!-- bmc&#45;&gt;em -->
<g id="edge22" class="edge">
<title>bmc&#45;&gt;em</title>
<path fill="none" stroke="gray" d="M197.02,-135.7C206.36,-126.62 216.67,-116.6 225.16,-108.35"/>
<polygon fill="none" stroke="gray" points="194.61,-133.16 189.88,-142.64 199.49,-138.18 194.61,-133.16"/>
</g>
<!-- c -->
<g id="node16" class="node">
<title>c</title>
<polygon fill="none" stroke="gray" points="342,-108 288,-108 288,-72 342,-72 342,-108"/>
<text text-anchor="start" x="310.5" y="-85.95" font-family="Times,serif" font-style="italic" font-size="14.00">C</text>
</g>
<!-- bic&#45;&gt;c -->
<g id="edge18" class="edge">
<title>bic&#45;&gt;c</title>
<path fill="none" stroke="gray" d="M269.02,-135.7C278.36,-126.62 288.67,-116.6 297.16,-108.35"/>
<polygon fill="none" stroke="gray" points="266.61,-133.16 261.88,-142.64 271.49,-138.18 266.61,-133.16"/>
</g>
<!-- d1 -->
<g id="node8" class="node">
<title>d1</title>
<polygon fill="none" stroke="gray" points="234,-36 180,-36 180,0 234,0 234,-36"/>
<text text-anchor="start" x="199.12" y="-13.95" font-family="Times,serif" font-style="italic" font-size="14.00">D</text>
<text text-anchor="start" x="208.88" y="-13.95" font-family="Times,serif" baseline-shift="sub" font-size="14.00">1</text>
</g>
<!-- d2 -->
<g id="node9" class="node">
<title>d2</title>
<polygon fill="none" stroke="gray" points="306,-36 252,-36 252,0 306,0 306,-36"/>
<text text-anchor="start" x="271.12" y="-13.95" font-family="Times,serif" font-style="italic" font-size="14.00">D</text>
<text text-anchor="start" x="280.88" y="-13.95" font-family="Times,serif" baseline-shift="sub" font-size="14.00">2</text>
</g>
<!-- d1&#45;&gt;d2 -->
<!-- ddots -->
<g id="node10" class="node">
<title>ddots</title>
<polygon fill="none" stroke="gray" points="378,-36 324,-36 324,0 378,0 378,-36"/>
<text text-anchor="start" x="340.12" y="-13.95" font-family="Times,serif" font-style="italic" font-size="14.00">D</text>
<text text-anchor="start" x="349.88" y="-13.95" font-family="Times,serif" baseline-shift="sub" font-size="14.00">…</text>
</g>
<!-- d2&#45;&gt;ddots -->
<!-- dl -->
<g id="node11" class="node">
<title>dl</title>
<polygon fill="none" stroke="gray" points="450,-36 396,-36 396,0 450,0 450,-36"/>
<text text-anchor="start" x="416.62" y="-13.95" font-family="Times,serif" font-style="italic" font-size="14.00">D</text>
<text text-anchor="start" x="426.38" y="-13.95" font-family="Times,serif" font-style="italic" baseline-shift="sub" font-size="14.00">l</text>
</g>
<!-- ddots&#45;&gt;dl -->
<!-- e1&#45;&gt;e2 -->
<!-- e2&#45;&gt;edots -->
<!-- edots&#45;&gt;em -->
<!-- em&#45;&gt;c -->
<!-- c&#45;&gt;d1 -->
<g id="edge23" class="edge">
<title>c&#45;&gt;d1</title>
<path fill="none" stroke="gray" d="M278.67,-65.46C263.93,-55.9 247.21,-45.06 233.63,-36.26"/>
<polygon fill="none" stroke="gray" points="276.46,-68.19 286.76,-70.69 280.27,-62.32 276.46,-68.19"/>
</g>
<!-- c&#45;&gt;d2 -->
<g id="edge24" class="edge">
<title>c&#45;&gt;d2</title>
<path fill="none" stroke="gray" d="M300.94,-61.67C296.51,-53.05 291.75,-43.79 287.8,-36.1"/>
<polygon fill="none" stroke="gray" points="297.72,-63.06 305.41,-70.35 303.95,-59.86 297.72,-63.06"/>
</g>
<!-- c&#45;&gt;ddots -->
<g id="edge25" class="edge">
<title>c&#45;&gt;ddots</title>
<path fill="none" stroke="gray" d="M329.06,-61.67C333.49,-53.05 338.25,-43.79 342.2,-36.1"/>
<polygon fill="none" stroke="gray" points="326.05,-59.86 324.59,-70.35 332.28,-63.06 326.05,-59.86"/>
</g>
<!-- c&#45;&gt;dl -->
<g id="edge26" class="edge">
<title>c&#45;&gt;dl</title>
<path fill="none" stroke="gray" d="M351.33,-65.46C366.07,-55.9 382.79,-45.06 396.37,-36.26"/>
<polygon fill="none" stroke="gray" points="349.73,-62.32 343.24,-70.69 353.54,-68.19 349.73,-62.32"/>
</g>
</g>
</svg>
